<?xml version="1.0" standalone="no"?>
<!DOCTYPE svg PUBLIC "-//W3C//DTD SVG 1.1//EN" "http://www.w3.org/Graphics/SVG/1.1/DTD/svg11.dtd">
<svg version="1.1" xmlns="http://www.w3.org/2000/svg" xmlns:xlink="http://www.w3.org/1999/xlink"><metadata>This SVG WebFont was generated by YouWorkForThem.
</metadata><defs><font horiz-adv-x="552" id="ywftsvg"><font-face ascent="800" bbox="-144 -265 1120 1031" cap-height="700" descent="-200" font-family="" font-stretch="normal" font-weight="200" panose-1="0 0 0 0 0 0 0 0 0 0" underline-position="0" underline-thickness="0" unicode-range="U+0020-FB02" units-per-em="1000" x-height="510"/><missing-glyph d="M431 800v-1050h-333v1050h333zM350 84h-175v-119h175v119zM315 49v-49h-105v49h105zM350 266h-105v-59h35v24h35v-49h-105v84h-35v-119h175v119zM350 394h-35v-70h-140v-35h175v105zM350 457h-175v-35h70v-39h-70v-34h105v73h70v35zM245 559v-38h-35v38h35zM280 594h-105 v-109h175v36h-70v73zM350 730h-174v-35h69v-39h-70v-34h175v34h-70v39h70v35zM350 -59h-175v-35h74l-74 -49v-35h175v35h-107l73 49h34v35z" horiz-adv-x="525"/><glyph d="M152 0v475h-128v35h128v290h195v-34h-158v-256h258v290h195v-34h-157v-256h157v-35h-157v-475h-38v475h-258v-475h-37z" glyph-name="f_f.liga" horiz-adv-x="661" unicode="ff"/><glyph d="M152 0v475h-128v35h128v290h195v-34h-158v-256h258v290h195v-34h-157v-256h295v-510h-37v475h-258v-475h-38v475h-258v-475h-37zM762 620q-14 0 -23.5 9.5t-9.5 22.5q0 14 9.5 23.5t23.5 9.5q13 0 22.5 -10t9.5 -23q0 -14 -9 -23t-23 -9z" glyph-name="f_f_i.liga" horiz-adv-x="852" unicode="ffi"/><glyph d="M152 0v475h-128v35h128v290h195v-34h-158v-256h296v-510h-38v475h-258v-475h-37zM466 620q-14 0 -23.5 9.5t-9.5 22.5q0 14 9.5 23.5t23.5 9.5t23.5 -9.5t9.5 -23.5q0 -13 -9.5 -22.5t-23.5 -9.5z" glyph-name="f_i.liga" horiz-adv-x="556" unicode="fi"/><glyph d="M152 0v475h-128v35h128v290h333v-800h-38v766h-258v-256h158v-35h-158v-475h-37z" glyph-name="f_l.liga" horiz-adv-x="556" unicode="fl"/><glyph d="M431 800v-1050h-333v1050h333zM350 84h-175v-119h175v119zM315 49v-49h-105v49h105zM350 266h-105v-59h35v24h35v-49h-105v84h-35v-119h175v119zM350 394h-35v-70h-140v-35h175v105zM350 457h-175v-35h70v-39h-70v-34h105v73h70v35zM245 559v-38h-35v38h35zM280 594h-105 v-109h175v36h-70v73zM350 730h-174v-35h69v-39h-70v-34h175v34h-70v39h70v35zM350 -59h-175v-35h74l-74 -49v-35h175v35h-107l73 49h34v35z" glyph-name=".notdef" horiz-adv-x="525"/><glyph glyph-name="glyph1" horiz-adv-x="0"/><glyph glyph-name="glyph2" horiz-adv-x="333"/><glyph glyph-name="space" horiz-adv-x="215" unicode=" "/><glyph d="M62 142l-4 558h40l-3 -558h-33zM79 -6q-13 0 -22.5 9t-9.5 22t9 21.5t23 8.5q13 0 21.5 -8.5t8.5 -21.5t-8.5 -22t-21.5 -9z" glyph-name="exclam" horiz-adv-x="156" unicode="!"/><glyph d="M187 450l-3 250h36l-3 -250h-30zM49 450l-2 250h36l-3 -250h-31z" glyph-name="quotedbl" horiz-adv-x="267" unicode="&quot;"/><glyph d="M154 0l52 194h-169l10 36h170l66 241h-169l9 37h170l53 192h37l-53 -192h187l52 192h37l-52 -192h165l-9 -37h-166l-66 -241h165l-10 -36h-166l-53 -194h-37l53 194h-187l-52 -194h-37zM254 230h187l66 241h-187z" glyph-name="numbersign" horiz-adv-x="756" unicode="#"/><glyph d="M292 -102v93q-86 6 -148.5 52.5t-82.5 132.5h39q22 -76 80 -113t140 -37q87 0 138.5 39t51.5 109q0 32 -12.5 57.5t-30 41.5t-47.5 29.5t-53.5 20.5t-59.5 16q-23 6 -37 10t-40.5 13t-44 18t-39.5 24.5t-35.5 32.5t-22.5 41.5t-9 51.5q0 79 61.5 128.5t151.5 51.5v92h34 v-93q82 -7 139 -53.5t73 -123.5h-37q-20 65 -71.5 103.5t-129.5 38.5q-82 0 -132.5 -40.5t-50.5 -102.5q0 -31 15 -56t33.5 -40t51.5 -29t52 -19.5t51 -13.5t52 -14t50.5 -17.5t49.5 -25.5t38 -33.5t28.5 -46.5t9.5 -60q0 -87 -61.5 -135.5t-160.5 -50.5v-92h-34z" glyph-name="dollar" horiz-adv-x="608" unicode="$"/><glyph d="M163 0l419 700h36l-419 -700h-36zM572 -10q-72 0 -117.5 47t-45.5 120q0 72 45.5 119.5t117.5 47.5q71 0 116 -47.5t45 -119.5t-45 -119.5t-116 -47.5zM572 22q57 0 93 38.5t36 96.5t-36.5 97t-92.5 39q-57 0 -93.5 -39t-36.5 -97t36.5 -96.5t93.5 -38.5zM210 376 q-72 0 -117.5 47t-45.5 120q0 72 45.5 119.5t117.5 47.5q71 0 116.5 -47.5t45.5 -119.5t-45.5 -119.5t-116.5 -47.5zM210 407q56 0 92.5 39t36.5 97t-36 96.5t-93 38.5t-93.5 -38.5t-36.5 -96.5t36.5 -97t93.5 -39z" glyph-name="percent" horiz-adv-x="780" unicode="%"/><glyph d="M236 -10q-85 0 -141 44t-56 121q0 70 44 119t131 108q-107 111 -107 188q0 57 42.5 98.5t109.5 41.5q69 0 110 -44t41 -101q0 -51 -33.5 -90.5t-108.5 -96.5l200 -214q39 53 88 153h85v-35h-64q-44 -87 -86 -142l99 -106h51v-34h-67l-104 111q-100 -121 -234 -121z M237 23q117 0 209 112l-208 222q-34 -22 -55.5 -38t-49.5 -42.5t-42.5 -57.5t-14.5 -65q0 -61 45.5 -96t115.5 -35zM244 401q45 34 68 53.5t43 49.5t20 61q0 45 -32 78.5t-85 33.5q-52 0 -84 -33t-32 -75q0 -66 102 -168z" glyph-name="ampersand" horiz-adv-x="659" unicode="&amp;"/><glyph d="M49 450l-2 250h36l-3 -250h-31z" glyph-name="quotesingle" horiz-adv-x="130" unicode="'"/><glyph d="M166 -100q-100 197 -100 393t100 407h37q-100 -208 -100 -407t100 -393h-37z" glyph-name="parenleft" horiz-adv-x="258" unicode="("/><glyph d="M56 -100q99 195 99 393t-99 407h36q101 -213 101 -407t-101 -393h-36z" glyph-name="parenright" horiz-adv-x="258" unicode=")"/><glyph d="M168 404l1 126l-106 -69l-14 23l110 68l-112 63l14 23l108 -66l-1 128h27l-1 -126l106 69l14 -23l-109 -68l111 -63l-13 -22l-109 64l1 -127h-27z" glyph-name="asterisk" horiz-adv-x="363" unicode="*"/><glyph d="M255 139v177h-174v29h174v176h31v-176h174v-29h-174v-177h-31z" glyph-name="plus" horiz-adv-x="542" unicode="+"/><glyph d="M24 -146l36 197h40l-43 -197h-33z" glyph-name="comma" horiz-adv-x="137" unicode=","/><glyph d="M47 253v35h337v-35h-337z" glyph-name="hyphen" horiz-adv-x="431" unicode="-"/><glyph d="M78 -6q-13 0 -22 9t-9 22t9 21.5t22 8.5t22 -8.5t9 -21.5t-9 -22t-22 -9z" glyph-name="period" horiz-adv-x="156" unicode="."/><glyph d="M37 -40l260 780h37l-260 -780h-37z" glyph-name="slash" horiz-adv-x="371" unicode="/"/><glyph d="M314 -10q-119 0 -191 101.5t-72 258.5t72 258.5t191 101.5q118 0 189.5 -101.5t71.5 -258.5t-71.5 -258.5t-189.5 -101.5zM314 28q102 0 162.5 90.5t60.5 231.5t-60.5 231.5t-162.5 90.5q-103 0 -164 -90.5t-61 -231.5t61 -231.5t164 -90.5z" glyph-name="zero" horiz-adv-x="626" unicode="0"/><glyph d="M142 0v665h-113v35h152v-700h-39z" glyph-name="one" horiz-adv-x="263" unicode="1"/><glyph d="M42 0v34l212 191q99 89 142.5 149t43.5 131q0 79 -50.5 124t-125.5 45t-128.5 -45.5t-60.5 -124.5h-38q7 95 72 150.5t154 55.5q91 0 153.5 -56t62.5 -148q0 -79 -48.5 -146.5t-151.5 -159.5l-181 -164h376v-36h-432z" glyph-name="two" horiz-adv-x="519" unicode="2"/><glyph d="M269 -10q-93 0 -157 53t-75 137h38q11 -69 64.5 -112.5t129.5 -43.5q79 0 131 45.5t52 115.5q0 71 -54 117t-130 46h-41v34h39q69 0 115 42.5t46 105.5q0 62 -46 104t-118 42q-71 0 -118.5 -40t-57.5 -96h-37q9 74 66.5 122t145.5 48q91 0 147 -51t56 -127 q0 -59 -34.5 -104t-90.5 -62q67 -17 108.5 -66t41.5 -117q0 -83 -62 -138t-159 -55z" glyph-name="three" horiz-adv-x="537" unicode="3"/><glyph d="M396 0v181h-367v36l360 483h45v-483h107v-36h-107v-181h-38zM71 217h325v434z" glyph-name="four" horiz-adv-x="560" unicode="4"/><glyph d="M279 -10q-94 0 -162 57t-75 143h38q7 -71 64 -117.5t135 -46.5q83 0 141 55t58 137t-56.5 137t-136.5 55q-47 0 -95 -19.5t-78 -52.5l-34 17l49 345h327v-35h-297l-39 -280q73 60 169 60q95 0 162 -64.5t67 -161.5q0 -99 -68 -164t-169 -65z" glyph-name="five" horiz-adv-x="558" unicode="5"/><glyph d="M262 -10q-96 0 -162 67t-66 166q0 67 35 129l199 348h42l-163 -282q49 36 116 36q96 0 162 -65.5t66 -165.5t-66 -166.5t-163 -66.5zM262 26q80 0 135.5 56t55.5 141t-55.5 141t-135.5 56q-79 0 -134.5 -56.5t-55.5 -140.5t55.5 -140.5t134.5 -56.5z" glyph-name="six" horiz-adv-x="525" unicode="6"/><glyph d="M146 0l275 664h-394v36h448l-288 -700h-41z" glyph-name="seven" horiz-adv-x="497" unicode="7"/><glyph d="M272 -10q-100 0 -162.5 54.5t-62.5 138.5q0 66 41 115.5t107 67.5q-57 18 -92 63t-35 104q0 75 56.5 126t147.5 51t147.5 -51t56.5 -126q0 -59 -35 -104t-93 -63q66 -18 107.5 -67.5t41.5 -115.5q0 -84 -62.5 -138.5t-162.5 -54.5zM272 24q82 0 134 45t52 116t-54.5 117 t-131.5 46t-131.5 -46t-54.5 -117t52 -116t134 -45zM272 382q70 0 118 42.5t48 106.5q0 61 -46.5 103t-119.5 42q-74 0 -120 -42t-46 -103q0 -64 47.5 -106.5t118.5 -42.5z" glyph-name="eight" horiz-adv-x="544" unicode="8"/><glyph d="M380 286q-52 -41 -120 -41q-95 0 -160.5 66t-65.5 166t66 166.5t162 66.5t162.5 -67t66.5 -166q0 -68 -36 -129l-198 -348h-42zM262 280q80 0 135.5 56.5t55.5 140.5t-55.5 140.5t-135.5 56.5t-135 -56t-55 -141t55 -141t135 -56z" glyph-name="nine" horiz-adv-x="525" unicode="9"/><glyph d="M79 454q-13 0 -22.5 9t-9.5 22q0 12 9 21t22 9t22 -8.5t9 -21.5t-8.5 -22t-21.5 -9zM79 -6q-13 0 -22.5 9t-9.5 22t9 21.5t23 8.5q13 0 21.5 -8.5t8.5 -21.5t-8.5 -22t-21.5 -9z" glyph-name="colon" horiz-adv-x="156" unicode=":"/><glyph d="M24 -146l36 197h40l-43 -197h-33zM73 454q-13 0 -22 9t-9 22q0 12 9 21t22 9t22 -8.5t9 -21.5t-9 -22t-22 -9z" glyph-name="semicolon" horiz-adv-x="141" unicode=";"/><glyph d="M394 145l-319 176v20l319 174v-32l-277 -152l277 -154v-32z" glyph-name="less" horiz-adv-x="469" unicode="&lt;"/><glyph d="M81 392v29h379v-29h-379zM81 239v29h379v-29h-379z" glyph-name="equal" horiz-adv-x="542" unicode="="/><glyph d="M75 145v32l277 154l-277 152v32l319 -174v-20z" glyph-name="greater" horiz-adv-x="469" unicode=">"/><glyph d="M249 355q85 0 139.5 45.5t54.5 117.5q0 67 -47.5 112.5t-126.5 45.5q-75 0 -123.5 -40.5t-61.5 -101.5h-37q13 75 72.5 125.5t150.5 50.5q96 0 153.5 -56t57.5 -136t-57 -132t-140 -57v-187h-35v213zM267 -6q-13 0 -22 9t-9 22t9 21.5t22 8.5t22 -8.5t9 -21.5t-9 -22 t-22 -9z" glyph-name="question" horiz-adv-x="528" unicode="?"/><glyph d="M422 -163q-161 0 -269.5 111.5t-108.5 276.5q0 82 29.5 160t83.5 140t137 100t182 38q174 0 279 -107t105 -264q0 -99 -42.5 -166.5t-118.5 -67.5q-46 0 -74.5 28t-29.5 80q-25 -48 -71 -78t-102 -30q-75 0 -121.5 50t-46.5 127q0 87 58.5 150.5t140.5 63.5 q53 0 92.5 -29.5t57.5 -78.5l9 104h34l-22 -254q-4 -46 16 -74t61 -28q58 0 91.5 57t33.5 143q0 146 -96 244t-254 98q-118 0 -210.5 -58t-140 -149.5t-47.5 -196.5q0 -153 99.5 -255.5t248.5 -102.5q83 0 159 38l13 -30q-85 -40 -176 -40zM428 89q69 0 118.5 52.5 t49.5 126.5q0 64 -39 107t-100 43q-69 0 -119 -53.5t-50 -127.5q0 -64 39 -106t101 -42z" glyph-name="at" horiz-adv-x="903" unicode="@"/><glyph d="M12 0l304 711h2l305 -711h-43l-68 163h-389l-68 -163h-43zM138 198h359l-180 429z" glyph-name="A" horiz-adv-x="635" unicode="A"/><glyph d="M83 0v700h186q96 0 155 -42.5t59 -133.5q0 -128 -122 -164q147 -32 147 -177q0 -183 -228 -183h-197zM278 35q192 0 192 151q0 78 -50.5 116t-141.5 38h-157v-305h157zM265 374q85 0 132.5 36t47.5 110q0 145 -180 145h-144v-291h144z" glyph-name="B" horiz-adv-x="550" unicode="B"/><glyph d="M395 -10q-150 0 -251 104.5t-101 255.5t101 255.5t251 104.5q114 0 203.5 -62t122.5 -161h-40q-32 83 -110 134.5t-175 51.5q-134 0 -224.5 -94t-90.5 -229t90.5 -229t224.5 -94q96 0 173.5 51t109.5 133h42q-34 -98 -123 -159.5t-203 -61.5z" glyph-name="C" horiz-adv-x="754" unicode="C"/><glyph d="M83 0v700h197q145 0 241.5 -94t96.5 -255t-97 -256t-241 -95h-197zM280 36q130 0 214.5 85t84.5 230t-84.5 229t-214.5 84h-159v-628h159z" glyph-name="D" horiz-adv-x="660" unicode="D"/><glyph d="M83 0v700h415v-37h-377v-290h342v-35h-342v-301h377v-37h-415z" glyph-name="E" horiz-adv-x="546" unicode="E"/><glyph d="M83 0v700h415v-37h-377v-290h342v-35h-342v-338h-38z" glyph-name="F" horiz-adv-x="546" unicode="F"/><glyph d="M393 -10q-149 0 -249.5 105t-100.5 255q0 151 101 255.5t251 104.5q114 0 203.5 -62.5t122.5 -161.5h-40q-32 83 -110 135t-175 52q-134 0 -224.5 -94t-90.5 -229t90 -229t223 -94q105 0 187 64t112 195h-280v35h327q-25 -165 -122 -248t-225 -83z" glyph-name="G" horiz-adv-x="775" unicode="G"/><glyph d="M83 0v700h38v-321h397v321h38v-700h-38v343h-397v-343h-38z" glyph-name="H" horiz-adv-x="639" unicode="H"/><glyph d="M83 0v700h38v-700h-38z" glyph-name="I" horiz-adv-x="204" unicode="I"/><glyph d="M33 0v36h335v664h38v-700h-373z" glyph-name="J" horiz-adv-x="489" unicode="J"/><glyph d="M83 0v700h38v-339l366 339h53l-376 -348l386 -352h-54l-375 343v-343h-38z" glyph-name="K" horiz-adv-x="562" unicode="K"/><glyph d="M83 0v700h38v-664h365v-36h-403z" glyph-name="L" horiz-adv-x="519" unicode="L"/><glyph d="M426 -11l-202 606l-143 -595h-39l172 711h2l211 -626l211 626h2l172 -711h-38l-144 595l-202 -606h-2z" glyph-name="M" horiz-adv-x="854" unicode="M"/><glyph d="M599 -11l-479 625v-614h-37v711h2l479 -624v613h37v-711h-2z" glyph-name="N" horiz-adv-x="683" unicode="N"/><glyph d="M393 -10q-149 0 -249.5 105t-100.5 255t100.5 255t249.5 105q148 0 249 -105t101 -255t-101 -255t-249 -105zM393 28q132 0 222 94t90 228t-90 228t-222 94t-222 -94t-90 -228t90 -228t222 -94z" glyph-name="O" horiz-adv-x="786" unicode="O"/><glyph d="M83 0v700h209q94 0 156.5 -57.5t62.5 -156.5t-62.5 -156.5t-156.5 -57.5h-171v-272h-38zM121 308h169q82 0 132.5 48.5t50.5 129.5q0 82 -50.5 130t-132.5 48h-169v-356z" glyph-name="P" unicode="P"/><glyph d="M394 -10q-150 0 -250.5 104.5t-100.5 255.5q0 150 100.5 255t249.5 105q148 0 249 -105t101 -255q0 -87 -36.5 -163t-101.5 -125l53 -68h-42l-38 49q-83 -53 -184 -53zM393 28q90 0 161 45l-94 120h42l78 -101q59 45 92 112.5t33 145.5q0 134 -90 228t-222 94t-222 -94 t-90 -228t90 -228t222 -94z" glyph-name="Q" horiz-adv-x="786" unicode="Q"/><glyph d="M83 0v700h234q94 0 154.5 -56t60.5 -152q0 -88 -51.5 -142t-133.5 -63l122 -251h75v-36h-100l-136 284h-187v-284h-38zM313 320q82 0 131.5 46t49.5 126t-49.5 126t-131.5 46h-192v-344h192z" glyph-name="R" horiz-adv-x="592" unicode="R"/><glyph d="M321 -10q-96 0 -167 46t-93 140h39q22 -76 80.5 -113t140.5 -37q87 0 138 39.5t51 111.5q0 68 -52.5 103.5t-150.5 58.5q-47 11 -81.5 23.5t-71 34.5t-56 55.5t-19.5 77.5q0 81 64 130.5t158 49.5q90 0 154.5 -47.5t82.5 -130.5h-37q-20 65 -71.5 103.5t-128.5 38.5 q-82 0 -133 -40.5t-51 -103.5q0 -65 54.5 -100t148.5 -57q50 -12 85.5 -25t70.5 -35t53.5 -56t18.5 -80q0 -89 -63 -138t-164 -49z" glyph-name="S" horiz-adv-x="608" unicode="S"/><glyph d="M249 0v664h-230v36h498v-36h-230v-664h-38z" glyph-name="T" horiz-adv-x="536" unicode="T"/><glyph d="M325 -10q-102 0 -177.5 66.5t-75.5 181.5v462h39v-461q0 -100 64.5 -155.5t149.5 -55.5q86 0 151 55.5t65 155.5v461h38v-462q0 -114 -76 -181t-178 -67z" glyph-name="U" horiz-adv-x="651" unicode="U"/><glyph d="M318 -11l-304 711h42l263 -626l264 626h42l-305 -711h-2z" glyph-name="V" horiz-adv-x="639" unicode="V"/><glyph d="M243 -11l-229 711h41l190 -605l189 616h2l188 -616l190 605h41l-229 -711h-2l-189 615l-190 -615h-2z" glyph-name="W" horiz-adv-x="868" unicode="W"/><glyph d="M22 0l239 358l-228 342h45l210 -313l211 313h45l-230 -342l240 -358h-46l-220 329l-221 -329h-45z" glyph-name="X" horiz-adv-x="576" unicode="X"/><glyph d="M253 0v290l-244 410h42l221 -372l221 372h42l-244 -409v-291h-38z" glyph-name="Y" horiz-adv-x="544" unicode="Y"/><glyph d="M44 0l455 664h-424v36h489l-454 -664h444v-36h-510z" glyph-name="Z" horiz-adv-x="597" unicode="Z"/><glyph d="M77 -100v800h128v-33h-90v-734h90v-33h-128z" glyph-name="bracketleft" horiz-adv-x="243" unicode="["/><glyph d="M297 -40l-260 780h37l260 -780h-37z" glyph-name="backslash" horiz-adv-x="371" unicode="\"/><glyph d="M39 -100v33h89v734h-89v33h127v-800h-127z" glyph-name="bracketright" horiz-adv-x="243" unicode="]"/><glyph d="M37 390l171 310h27l172 -310h-33l-153 274l-150 -274h-34z" glyph-name="asciicircum" horiz-adv-x="444" unicode="^"/><glyph d="M46 -67v33h369v-33h-369z" glyph-name="underscore" horiz-adv-x="461" unicode="_"/><glyph d="M111 580l-81 133h38l73 -133h-30z" glyph-name="grave" horiz-adv-x="172" unicode="`"/><glyph d="M285 -5q-103 0 -172.5 75.5t-69.5 184.5t69.5 184.5t172.5 75.5q74 0 131 -41t85 -109v145h37v-510h-37v144q-28 -67 -85 -108t-131 -41zM290 29q90 0 150.5 65.5t60.5 160.5t-60.5 160.5t-150.5 65.5t-150.5 -65.5t-60.5 -160.5t60.5 -160.5t150.5 -65.5z" glyph-name="a" horiz-adv-x="610" unicode="a"/><glyph d="M324 -5q-73 0 -130 41t-85 108v-144h-37v800h37v-435q28 68 85 109t130 41q104 0 173.5 -75.5t69.5 -184.5t-69.5 -184.5t-173.5 -75.5zM320 29q90 0 150 65.5t60 160.5t-60 160.5t-150 65.5q-91 0 -151 -65.5t-60 -160.5t60 -160.5t151 -65.5z" glyph-name="b" horiz-adv-x="610" unicode="b"/><glyph d="M297 -5q-106 0 -180 76.5t-74 184.5t74 183.5t179 75.5q85 0 151.5 -49.5t92.5 -127.5h-39q-23 64 -79 103t-125 39q-91 0 -154.5 -65t-63.5 -159t63.5 -160t154.5 -66q70 0 125 39t79 103h39q-25 -78 -91.5 -127.5t-151.5 -49.5z" glyph-name="c" horiz-adv-x="572" unicode="c"/><glyph d="M285 -5q-103 0 -172.5 75.5t-69.5 184.5t69.5 184.5t172.5 75.5q74 0 131 -41t85 -109v435h37v-800h-37v144q-28 -67 -85 -108t-131 -41zM290 29q90 0 150.5 65.5t60.5 160.5t-60.5 160.5t-150.5 65.5t-150.5 -65.5t-60.5 -160.5t60.5 -160.5t150.5 -65.5z" glyph-name="d" horiz-adv-x="610" unicode="d"/><glyph d="M299 -5q-107 0 -181.5 76t-74.5 184t74.5 184t180.5 76q105 0 180 -75t75 -176q0 -13 -1 -20h-473q4 -91 68 -153t153 -62q66 0 119.5 34.5t76.5 89.5h39q-26 -70 -90.5 -114t-145.5 -44zM80 277h436q-6 86 -68.5 145t-149.5 59q-86 0 -148 -58.5t-70 -145.5z" glyph-name="e" horiz-adv-x="596" unicode="e"/><glyph d="M152 0v475h-128v35h128v290h195v-34h-158v-256h158v-35h-158v-475h-37z" glyph-name="f" horiz-adv-x="366" unicode="f"/><glyph d="M173 -250v34h328v360q-28 -67 -85 -108t-131 -41q-103 0 -172.5 75.5t-69.5 184.5t69.5 184.5t172.5 75.5q74 0 131 -41t85 -109v145h37v-760h-365zM290 29q90 0 150.5 65.5t60.5 160.5t-60.5 160.5t-150.5 65.5t-150.5 -65.5t-60.5 -160.5t60.5 -160.5t150.5 -65.5z" glyph-name="g" horiz-adv-x="610" unicode="g"/><glyph d="M72 0v800h37v-409q22 60 70 92t112 32q86 0 142 -59t56 -182v-274h-36v271q0 110 -48 160t-122 50q-78 0 -126 -53.5t-48 -156.5v-271h-37z" glyph-name="h" unicode="h"/><glyph d="M72 0v510h37v-510h-37zM91 623q-14 0 -23.5 9.5t-9.5 22.5q0 14 9.5 23.5t23.5 9.5q13 0 22.5 -9.5t9.5 -23.5q0 -13 -9.5 -22.5t-22.5 -9.5z" glyph-name="i" horiz-adv-x="180" unicode="i"/><glyph d="M-21 -250v34h97v726h37v-760h-134zM95 623q-14 0 -23.5 9.5t-9.5 22.5q0 14 9.5 23.5t23.5 9.5q13 0 22.5 -9.5t9.5 -23.5q0 -13 -9.5 -22.5t-22.5 -9.5z" glyph-name="j" horiz-adv-x="185" unicode="j"/><glyph d="M72 0v800h37v-531l293 241h53l-305 -251l318 -259h-53l-306 249v-249h-37z" glyph-name="k" horiz-adv-x="490" unicode="k"/><glyph d="M72 0v800h37v-800h-37z" glyph-name="l" horiz-adv-x="180" unicode="l"/><glyph d="M72 0v510h37v-105q19 52 62.5 81t100.5 29q131 0 163 -135q18 66 65 100.5t109 34.5q76 0 125.5 -52.5t49.5 -168.5v-294h-37v293q0 101 -41.5 144.5t-102.5 43.5q-70 0 -113.5 -47t-43.5 -141v-293h-37v293q0 101 -41 144.5t-103 43.5q-69 0 -112.5 -47t-43.5 -141v-293 h-37z" glyph-name="m" horiz-adv-x="846" unicode="m"/><glyph d="M72 0v510h37v-119q22 60 70 92t112 32q86 0 142 -59t56 -182v-274h-36v271q0 110 -48 160t-122 50q-78 0 -126 -53.5t-48 -156.5v-271h-37z" glyph-name="n" unicode="n"/><glyph d="M296 -5q-105 0 -179 76.5t-74 183.5q0 109 74 184.5t179 75.5q106 0 180.5 -75.5t74.5 -184.5q0 -107 -74.5 -183.5t-180.5 -76.5zM296 31q91 0 154.5 65.5t63.5 158.5q0 94 -63.5 159t-154.5 65t-154 -65t-63 -159q0 -93 63 -158.5t154 -65.5z" glyph-name="o" horiz-adv-x="593" unicode="o"/><glyph d="M72 -250v760h37v-145q28 68 85 109t130 41q104 0 173.5 -75.5t69.5 -184.5t-69.5 -184.5t-173.5 -75.5q-73 0 -130 41t-85 108v-394h-37zM320 29q90 0 150 65.5t60 160.5t-60 160.5t-150 65.5q-91 0 -151 -65.5t-60 -160.5t60 -160.5t151 -65.5z" glyph-name="p" horiz-adv-x="610" unicode="p"/><glyph d="M501 144q-28 -67 -85 -108t-131 -41q-103 0 -172.5 75.5t-69.5 184.5t69.5 184.5t172.5 75.5q74 0 131 -41t85 -109v145h37v-760h-37v394zM290 29q90 0 150.5 65.5t60.5 160.5t-60.5 160.5t-150.5 65.5t-150.5 -65.5t-60.5 -160.5t60.5 -160.5t150.5 -65.5z" glyph-name="q" horiz-adv-x="610" unicode="q"/><glyph d="M72 0v510h37v-102q20 48 60 77.5t94 29.5h34v-37h-34q-65 0 -109.5 -48t-44.5 -116v-314h-37z" glyph-name="r" horiz-adv-x="320" unicode="r"/><glyph d="M237 -5q-76 0 -127 36t-64 104h35q12 -52 52 -80t104 -28t101 27.5t37 73.5q0 41 -32.5 67t-78.5 39t-92.5 27.5t-79 44.5t-32.5 77q0 57 43 94.5t119 37.5q73 0 120.5 -36t54.5 -99h-34q-20 103 -139 103q-62 0 -95 -28t-33 -69q0 -39 32.5 -63.5t79 -37.5t93 -28 t79 -46t32.5 -80q0 -62 -48 -99t-127 -37z" glyph-name="s" horiz-adv-x="458" unicode="s"/><glyph d="M152 0v475h-128v35h128v165h37v-165h134v-35h-134v-475h-37z" glyph-name="t" horiz-adv-x="346" unicode="t"/><glyph d="M261 -5q-86 0 -142 59t-56 182v274h36v-271q0 -110 48.5 -160t121.5 -50q78 0 126.5 53.5t48.5 156.5v271h36v-510h-36v119q-23 -61 -71 -92.5t-112 -31.5z" glyph-name="u" unicode="u"/><glyph d="M254 -11l-245 521h41l205 -446l205 446h42l-246 -521h-2z" glyph-name="v" horiz-adv-x="510" unicode="v"/><glyph d="M201 -11l-192 521h39l156 -430l142 439h2l143 -439l155 430h40l-192 -521h-2l-145 437l-144 -437h-2z" glyph-name="w" horiz-adv-x="695" unicode="w"/><glyph d="M18 0l203 261l-193 249h45l174 -222l172 222h46l-194 -249l204 -261h-45l-183 235l-184 -235h-45z" glyph-name="x" horiz-adv-x="492" unicode="x"/><glyph d="M142 -250l100 240l-228 520h38l209 -475l197 475h40l-317 -760h-39z" glyph-name="y" horiz-adv-x="511" unicode="y"/><glyph d="M39 0l347 476h-322v34h390l-348 -476h338v-34h-405z" glyph-name="z" horiz-adv-x="488" unicode="z"/><glyph d="M225 -100q-54 0 -82.5 38.5t-28.5 104.5v123q0 24 -1.5 40.5t-7.5 37t-20.5 31t-37.5 10.5h-25v32h25q23 0 37.5 10.5t20.5 31t7.5 36.5t1.5 39v123q0 66 28.5 104.5t82.5 38.5h27v-33h-22q-38 0 -58.5 -28.5t-20.5 -81.5v-127q0 -113 -57 -129q57 -17 57 -129v-129 q0 -53 20.5 -81.5t58.5 -28.5h22v-33h-27z" glyph-name="braceleft" horiz-adv-x="291" unicode="{"/><glyph d="M50 -200v1000h31v-1000h-31z" glyph-name="bar" horiz-adv-x="131" unicode="|"/><glyph d="M39 -100v33h22q38 0 58.5 28.5t20.5 81.5v129q0 23 1.5 39t6.5 36.5t17.5 34t31.5 19.5q-36 10 -46.5 44t-10.5 85v127q0 53 -20.5 81.5t-58.5 28.5h-22v33h27q54 0 82 -38.5t28 -104.5v-123q0 -23 2 -39.5t8 -36.5t20.5 -30.5t36.5 -10.5h26v-32h-26q-22 0 -36.5 -10.5 t-20.5 -31t-8 -37t-2 -40.5v-123q0 -66 -28 -104.5t-82 -38.5h-27z" glyph-name="braceright" horiz-adv-x="291" unicode="}"/><glyph d="M47 287q17 33 47.5 53.5t57.5 20.5q41 0 95.5 -29.5t82.5 -29.5q52 0 85 53l20 -18q-16 -29 -45 -47t-56 -18q-36 0 -92 29t-87 29q-45 0 -86 -61z" glyph-name="asciitilde" horiz-adv-x="482" unicode="~"/><glyph glyph-name="uni00A0" horiz-adv-x="215" unicode=" "/><glyph d="M94 368l4 -558h-40l3 558h33zM77 516q13 0 22.5 -9t9.5 -22t-9 -21.5t-23 -8.5q-13 0 -21.5 8.5t-8.5 21.5t8.5 22t21.5 9z" glyph-name="exclamdown" horiz-adv-x="156" unicode="¡"/><glyph d="M282 -49v79q-101 6 -170 81.5t-69 179.5t69.5 178.5t169.5 80.5v79h31v-80q79 -4 141 -53t86 -123h-39q-23 64 -79 103t-125 39q-91 0 -154.5 -65t-63.5 -159t63.5 -160t154.5 -66q70 0 125 39t79 103h39q-23 -74 -85 -123t-142 -54v-79h-31z" glyph-name="cent" horiz-adv-x="572" unicode="¢"/><glyph d="M47 0v36h96v265h-96v30h96v190q0 86 54.5 137.5t144.5 51.5q91 0 145 -53.5t57 -129.5h-37q-3 61 -47.5 104t-117.5 43q-72 0 -116.5 -41.5t-44.5 -116.5v-185h264v-30h-264v-265h365v-36h-499z" glyph-name="sterling" horiz-adv-x="593" unicode="£"/><glyph d="M289 124q-86 0 -150 56l-63 -62l-19 21l62 62q-56 64 -56 149q0 86 56 150l-62 62l19 20l63 -62q64 56 150 56q87 0 149 -56l62 62l21 -20l-62 -62q56 -64 56 -150q0 -87 -56 -149l62 -62l-21 -21l-62 62q-64 -56 -149 -56zM288 153q81 0 139 57.5t58 139.5 q0 81 -57.5 139t-138.5 58t-139 -57.5t-58 -139.5q0 -81 57.5 -139t138.5 -58z" glyph-name="currency" horiz-adv-x="578" unicode="¤"/><glyph d="M253 0v175h-187v26h187v85h-187v27h174l-231 387h42l221 -372l221 372h42l-231 -387h174v-27h-187v-85h187v-26h-187v-175h-38z" glyph-name="yen" horiz-adv-x="544" unicode="¥"/><glyph d="M50 386v414h31v-414h-31zM50 -200v414h31v-414h-31z" glyph-name="brokenbar" horiz-adv-x="131" unicode="¦"/><glyph d="M249 -10q-77 0 -125 32t-56 88h33q20 -91 147 -91q68 0 103.5 26.5t35.5 67.5q0 39 -34 61t-82.5 32t-97.5 22t-83 41t-34 77q0 47 30.5 80t85.5 45q-54 16 -85 42t-31 73q0 55 44 89.5t125 34.5q76 0 123 -31.5t55 -87.5h-33q-20 90 -144 90q-67 0 -102 -26.5t-35 -67.5 q0 -39 34 -61t83 -32t98 -22t83 -41t34 -77q0 -47 -30.5 -80t-86.5 -45q117 -32 117 -115q0 -54 -45.5 -89t-126.5 -35zM246 245q66 2 104.5 31t38.5 74q0 21 -9.5 37t-21.5 26t-36.5 18.5t-42 12.5t-49.5 11q-65 -1 -103.5 -30t-38.5 -75q0 -21 9 -37t21.5 -26t36.5 -18.5 t41.5 -12.5t49.5 -11z" glyph-name="section" horiz-adv-x="476" unicode="§"/><glyph d="M209 624q-13 0 -22 9t-9 22t9 22.5t22 9.5t22 -9.5t9 -22.5t-9 -22t-22 -9zM62 624q-13 0 -22.5 9t-9.5 22t9 22.5t23 9.5q12 0 21 -9.5t9 -22.5t-9 -22t-21 -9z" glyph-name="dieresis" horiz-adv-x="270" unicode="¨"/><glyph d="M400 0q-146 0 -248 102t-102 248t102.5 248t249.5 102q146 0 247 -101t101 -247q0 -147 -102 -249.5t-248 -102.5zM402 170q-75 0 -125 52.5t-50 127.5q0 76 50 128t125 52q57 0 102 -32t61 -81h-30q-15 39 -51.5 62.5t-82.5 23.5q-62 0 -104 -44.5t-42 -108.5 t42.5 -108.5t105.5 -44.5q44 0 80 23.5t51 61.5h31q-17 -50 -61.5 -81t-101.5 -31zM400 27q134 0 228.5 94.5t94.5 228.5t-94.5 228.5t-228.5 94.5t-228.5 -94.5t-94.5 -228.5t94.5 -228.5t228.5 -94.5z" glyph-name="copyright" horiz-adv-x="800" unicode="©"/><glyph d="M145 442q-52 0 -86.5 38t-34.5 93q0 54 34.5 92t86.5 38q35 0 62.5 -17.5t41.5 -47.5v62h26v-255h-26v62q-14 -30 -41.5 -47.5t-62.5 -17.5zM149 468q43 0 71 30t28 75q0 44 -28.5 74t-70.5 30t-70 -30t-28 -74t28 -74.5t70 -30.5z" glyph-name="ordfeminine" horiz-adv-x="304" unicode="ª"/><glyph d="M430 91l-173 160l172 158l23 -21l-149 -137l149 -138zM239 91l-173 160l172 158l23 -21l-150 -137l150 -138z" glyph-name="guillemotleft" horiz-adv-x="508" unicode="«"/><glyph d="M365 151v150h-314v38h352v-188h-38z" glyph-name="logicalnot" horiz-adv-x="453" unicode="¬"/><glyph d="M47 253v35h337v-35h-337z" glyph-name="uni00AD" horiz-adv-x="431" unicode="­"/><glyph d="M400 0q-146 0 -248 102t-102 248t102.5 248t249.5 102q146 0 247 -101t101 -247q0 -147 -102 -249.5t-248 -102.5zM400 27q134 0 228.5 94.5t94.5 228.5t-94.5 228.5t-228.5 94.5t-228.5 -94.5t-94.5 -228.5t94.5 -228.5t228.5 -94.5zM293 175v350h124q47 0 78 -28 t31 -77q0 -42 -23.5 -69t-61.5 -33l56 -117h35v-26h-53l-67 140h-91v-140h-28zM414 341q38 0 61 21t23 58t-23 57.5t-61 20.5h-93v-157h93z" glyph-name="registered" horiz-adv-x="800" unicode="®"/><glyph d="M30 633v29h225v-29h-225z" glyph-name="macron" horiz-adv-x="285" unicode="¯"/><glyph d="M167 450q-55 0 -92.5 37.5t-37.5 92.5t37.5 92.5t92.5 37.5t92 -37t37 -92q0 -56 -37 -93.5t-92 -37.5zM167 476q44 0 73 29.5t29 75.5q0 43 -29.5 73t-72.5 30t-73 -30t-30 -73q0 -45 30 -75t73 -30z" glyph-name="degree" horiz-adv-x="334" unicode="°"/><glyph d="M81 74v28h379v-28h-379zM81 338v29h174v159h31v-159h174v-29h-174v-147h-31v147h-174z" glyph-name="plusminus" horiz-adv-x="542" unicode="±"/><glyph d="M22 450v25l104 93q45 40 67.5 70t22.5 64q0 35 -23.5 55.5t-58.5 20.5t-60 -21t-28 -57h-27q3 48 36 76.5t79 28.5t78.5 -28.5t32.5 -74.5q0 -39 -24.5 -73.5t-73.5 -78.5l-82 -73h177v-27h-220z" glyph-name="uni00B2" horiz-adv-x="263" unicode="²"/><glyph d="M137 445q-48 0 -80.5 27t-37.5 71h28q5 -34 30 -53t60 -19q36 0 60 20.5t24 52.5t-25 53.5t-60 21.5h-19v26h18q31 0 52.5 20t21.5 49q0 28 -21 46.5t-55 18.5q-32 0 -54 -17t-27 -45h-28q5 39 34.5 63.5t75.5 24.5t74.5 -26t28.5 -64q0 -29 -16.5 -51t-42.5 -31 q32 -9 52 -33t20 -56q0 -43 -32 -71t-81 -28z" glyph-name="uni00B3" horiz-adv-x="273" unicode="³"/><glyph d="M30 580l73 133h38l-80 -133h-31z" glyph-name="acute" horiz-adv-x="172" unicode="´"/><glyph d="M63 -250v760h36v-271q0 -110 48.5 -160t121.5 -50q78 0 126.5 53.5t48.5 156.5v271h36v-510h-36v119q-22 -60 -69.5 -92t-110.5 -32q-124 0 -165 113v-358h-36z" glyph-name="mu" unicode="µ"/><glyph d="M252 328q-70 0 -121.5 52t-51.5 135q0 84 52 134.5t121 50.5h181v-900h-32v868h-116v-868h-33v528z" glyph-name="paragraph" horiz-adv-x="530" unicode="¶"/><glyph d="M79 224q-13 0 -22.5 9t-9.5 22t9.5 22t22.5 9t21.5 -9t8.5 -22t-8.5 -22t-21.5 -9z" glyph-name="periodcentered" horiz-adv-x="156" unicode="·"/><glyph d="M114 -177q-33 0 -55.5 17.5t-28.5 45.5h27q10 -39 57 -39q26 0 41 14.5t15 37.5q0 48 -58 48h-24l17 60l23 -3l-10 -35q34 -1 56 -19t22 -50q0 -33 -22 -55t-60 -22z" glyph-name="cedilla" horiz-adv-x="226" unicode="¸"/><glyph d="M66 450v323h-57v27h86v-350h-29z" glyph-name="uni00B9" horiz-adv-x="138" unicode="¹"/><glyph d="M150 444q-52 0 -89 38t-37 92t37 91.5t89 37.5q53 0 90.5 -37.5t37.5 -91.5t-37.5 -92t-90.5 -38zM150 471q42 0 71.5 30t29.5 73t-29.5 72.5t-71.5 29.5q-41 0 -70 -29.5t-29 -72.5t29 -73t70 -30z" glyph-name="ordmasculine" horiz-adv-x="302" unicode="º"/><glyph d="M269 91l-22 22l149 138l-149 137l23 21l172 -158zM78 91l-22 22l149 138l-149 137l22 21l173 -158z" glyph-name="guillemotright" horiz-adv-x="508" unicode="»"/><glyph d="M66 350v323h-57v27h86v-350h-29zM-6 0l468 700h33l-468 -700h-33zM516 0v87h-176v27l172 236h33v-236h51v-27h-51v-87h-29zM371 114h145v199z" glyph-name="onequarter" horiz-adv-x="606" unicode="¼"/><glyph d="M66 350v323h-57v27h86v-350h-29zM-6 0l468 700h33l-468 -700h-33zM373 0v25l104 93q45 40 67.5 70t22.5 64q0 35 -23.5 55.5t-58.5 20.5t-60 -21t-28 -57h-27q3 48 36 76.5t79 28.5t78.5 -28.5t32.5 -74.5q0 -39 -24.5 -73.5t-73.5 -78.5l-82 -73h177v-27h-220z" glyph-name="onehalf" horiz-adv-x="614" unicode="½"/><glyph d="M137 345q-48 0 -80.5 27t-37.5 71h28q5 -34 30 -53t60 -19q36 0 60 20.5t24 52.5t-25 53.5t-60 21.5h-19v26h18q31 0 52.5 20t21.5 49q0 28 -21 46.5t-55 18.5q-32 0 -54 -17t-27 -45h-28q5 39 34.5 63.5t75.5 24.5t74.5 -26t28.5 -64q0 -29 -16.5 -51t-42.5 -31 q32 -9 52 -33t20 -56q0 -43 -32 -71t-81 -28zM129 0l468 700h33l-468 -700h-33zM651 0v87h-176v27l172 236h33v-236h51v-27h-51v-87h-29zM506 114h145v199z" glyph-name="threequarters" horiz-adv-x="741" unicode="¾"/><glyph d="M279 154q-85 0 -139.5 -45.5t-54.5 -117.5q0 -67 47.5 -112.5t126.5 -45.5q75 0 123.5 40.5t61.5 101.5h37q-13 -75 -72.5 -125.5t-150.5 -50.5q-96 0 -153.5 56t-57.5 136t57 132t140 57v187h35v-213zM261 515q13 0 22 -9t9 -22t-9 -21.5t-22 -8.5t-22 8.5t-9 21.5t9 22 t22 9z" glyph-name="questiondown" horiz-adv-x="528" unicode="¿"/><glyph d="M12 0l304 711h2l305 -711h-43l-68 163h-389l-68 -163h-43zM138 198h359l-180 429zM302 770l-81 133h38l73 -133h-30z" glyph-name="Agrave" horiz-adv-x="635" unicode="À"/><glyph d="M12 0l304 711h2l305 -711h-43l-68 163h-389l-68 -163h-43zM138 198h359l-180 429zM302 770l73 133h38l-80 -133h-31z" glyph-name="Aacute" horiz-adv-x="635" unicode="Á"/><glyph d="M12 0l304 711h2l305 -711h-43l-68 163h-389l-68 -163h-43zM138 198h359l-180 429zM205 770l89 133h45l89 -133h-36l-75 116l-75 -116h-37z" glyph-name="Acircumflex" horiz-adv-x="635" unicode="Â"/><glyph d="M12 0l304 711h2l305 -711h-43l-68 163h-389l-68 -163h-43zM138 198h359l-180 429zM206 795q4 100 61 100q22 0 38.5 -17.5t30.5 -35t31 -17.5q33 0 37 70h25q-4 -100 -61 -100q-22 0 -38.5 17.5t-30.5 35t-31 17.5q-32 0 -36 -70h-26z" glyph-name="Atilde" horiz-adv-x="635" unicode="Ã"/><glyph d="M12 0l304 711h2l305 -711h-43l-68 163h-389l-68 -163h-43zM138 198h359l-180 429zM391 814q-13 0 -22 9t-9 22t9 22.5t22 9.5t22 -9.5t9 -22.5t-9 -22t-22 -9zM244 814q-13 0 -22.5 9t-9.5 22t9 22.5t23 9.5q12 0 21 -9.5t9 -22.5t-9 -22t-21 -9z" glyph-name="Adieresis" horiz-adv-x="635" unicode="Ä"/><glyph d="M12 0l304 711h2l305 -711h-43l-68 163h-389l-68 -163h-43zM138 198h359l-180 429zM318 760q-38 0 -63 25.5t-25 61.5t25 61t63 25q37 0 62 -25t25 -61t-25 -61.5t-62 -25.5zM318 782q28 0 46 18.5t18 46.5q0 27 -18 45.5t-46 18.5q-29 0 -47 -18.5t-18 -45.5 q0 -28 18 -46.5t47 -18.5z" glyph-name="Aring" horiz-adv-x="635" unicode="Å"/><glyph d="M13 0l290 700h520v-37h-483l125 -290h323v-35h-309l128 -301h216v-37h-242l-69 163h-391l-66 -163h-42zM136 198h361l-184 434z" glyph-name="AE" horiz-adv-x="869" unicode="Æ"/><glyph d="M392 -177q-33 0 -55.5 17.5t-28.5 45.5h27q10 -39 57 -39q26 0 41 14.5t15 37.5q0 48 -58 48h-24l12 43q-144 7 -239.5 110.5t-95.5 249.5q0 151 101 255.5t251 104.5q114 0 203.5 -62t122.5 -161h-40q-32 83 -110 134.5t-175 51.5q-134 0 -224.5 -94t-90.5 -229 t90.5 -229t224.5 -94q96 0 173.5 51t109.5 133h42q-33 -96 -120 -157.5t-199 -63.5l-6 -21q34 -1 56 -19t22 -50q0 -33 -22 -55t-60 -22z" glyph-name="Ccedilla" horiz-adv-x="754" unicode="Ç"/><glyph d="M83 0v700h415v-37h-377v-290h342v-35h-342v-301h377v-37h-415zM283 770l-81 133h38l73 -133h-30z" glyph-name="Egrave" horiz-adv-x="546" unicode="È"/><glyph d="M83 0v700h415v-37h-377v-290h342v-35h-342v-301h377v-37h-415zM283 770l73 133h38l-80 -133h-31z" glyph-name="Eacute" horiz-adv-x="546" unicode="É"/><glyph d="M83 0v700h415v-37h-377v-290h342v-35h-342v-301h377v-37h-415zM187 770l89 133h45l89 -133h-36l-75 116l-75 -116h-37z" glyph-name="Ecircumflex" horiz-adv-x="546" unicode="Ê"/><glyph d="M83 0v700h415v-37h-377v-290h342v-35h-342v-301h377v-37h-415zM372 814q-13 0 -22 9t-9 22t9 22.5t22 9.5t22 -9.5t9 -22.5t-9 -22t-22 -9zM225 814q-13 0 -22.5 9t-9.5 22t9.5 22.5t22.5 9.5q12 0 21 -9.5t9 -22.5t-9 -22t-21 -9z" glyph-name="Edieresis" horiz-adv-x="546" unicode="Ë"/><glyph d="M83 0v700h38v-700h-38zM86 770l-81 133h38l73 -133h-30z" glyph-name="Igrave" horiz-adv-x="204" unicode="Ì"/><glyph d="M83 0v700h38v-700h-38zM86 770l73 133h38l-80 -133h-31z" glyph-name="Iacute" horiz-adv-x="204" unicode="Í"/><glyph d="M83 0v700h38v-700h-38zM-11 770l89 133h45l89 -133h-36l-75 116l-75 -116h-37z" glyph-name="Icircumflex" horiz-adv-x="204" unicode="Î"/><glyph d="M83 0v700h38v-700h-38zM175 814q-13 0 -22 9t-9 22t9 22.5t22 9.5t22 -9.5t9 -22.5t-9 -22t-22 -9zM28 814q-13 0 -22.5 9t-9.5 22t9 22.5t23 9.5q12 0 21 -9.5t9 -22.5t-9 -22t-21 -9z" glyph-name="Idieresis" horiz-adv-x="204" unicode="Ï"/><glyph d="M144 0v334h-122v33h122v333h197q145 0 241.5 -94t96.5 -255t-97 -256t-241 -95h-197zM341 36q131 0 215 85t84 230t-84 229t-215 84h-159v-297h222v-33h-222v-298h159z" glyph-name="Eth" horiz-adv-x="722" unicode="Ð"/><glyph d="M599 -11l-479 625v-614h-37v711h2l479 -624v613h37v-711h-2zM229 795q4 100 61 100q22 0 38.5 -17.5t30.5 -35t31 -17.5q33 0 37 70h25q-4 -100 -61 -100q-22 0 -38.5 17.5t-30.5 35t-31 17.5q-32 0 -36 -70h-26z" glyph-name="Ntilde" horiz-adv-x="683" unicode="Ñ"/><glyph d="M393 -10q-149 0 -249.5 105t-100.5 255t100.5 255t249.5 105q148 0 249 -105t101 -255t-101 -255t-249 -105zM393 28q132 0 222 94t90 228t-90 228t-222 94t-222 -94t-90 -228t90 -228t222 -94zM378 770l-81 133h38l73 -133h-30z" glyph-name="Ograve" horiz-adv-x="786" unicode="Ò"/><glyph d="M393 -10q-149 0 -249.5 105t-100.5 255t100.5 255t249.5 105q148 0 249 -105t101 -255t-101 -255t-249 -105zM393 28q132 0 222 94t90 228t-90 228t-222 94t-222 -94t-90 -228t90 -228t222 -94zM378 770l73 133h38l-80 -133h-31z" glyph-name="Oacute" horiz-adv-x="786" unicode="Ó"/><glyph d="M393 -10q-149 0 -249.5 105t-100.5 255t100.5 255t249.5 105q148 0 249 -105t101 -255t-101 -255t-249 -105zM393 28q132 0 222 94t90 228t-90 228t-222 94t-222 -94t-90 -228t90 -228t222 -94zM281 770l89 133h45l89 -133h-36l-75 116l-75 -116h-37z" glyph-name="Ocircumflex" horiz-adv-x="786" unicode="Ô"/><glyph d="M393 -10q-149 0 -249.5 105t-100.5 255t100.5 255t249.5 105q148 0 249 -105t101 -255t-101 -255t-249 -105zM393 28q132 0 222 94t90 228t-90 228t-222 94t-222 -94t-90 -228t90 -228t222 -94zM282 795q4 100 61 100q22 0 38.5 -17.5t30.5 -35t31 -17.5q33 0 37 70h25 q-4 -100 -61 -100q-22 0 -38.5 17.5t-30.5 35t-31 17.5q-32 0 -36 -70h-26z" glyph-name="Otilde" horiz-adv-x="786" unicode="Õ"/><glyph d="M393 -10q-149 0 -249.5 105t-100.5 255t100.5 255t249.5 105q148 0 249 -105t101 -255t-101 -255t-249 -105zM393 28q132 0 222 94t90 228t-90 228t-222 94t-222 -94t-90 -228t90 -228t222 -94zM467 814q-13 0 -22 9t-9 22t9 22.5t22 9.5t22 -9.5t9 -22.5t-9 -22t-22 -9z M320 814q-13 0 -22.5 9t-9.5 22t9 22.5t23 9.5q12 0 21 -9.5t9 -22.5t-9 -22t-21 -9z" glyph-name="Odieresis" horiz-adv-x="786" unicode="Ö"/><glyph d="M89 169l-22 20l139 141l-138 140l21 20l138 -139l138 140l22 -20l-139 -141l138 -140l-21 -20l-138 138z" glyph-name="multiply" horiz-adv-x="453" unicode="×"/><glyph d="M225 33q-83 45 -132.5 130t-49.5 187q0 150 100.5 255t249.5 105q73 0 138 -28l33 68h36l-39 -83q83 -45 132.5 -130t49.5 -187q0 -150 -101 -255t-249 -105q-74 0 -139 28l-32 -68h-36zM516 647q-59 25 -123 25q-132 0 -222 -94t-90 -228q0 -90 43.5 -165.5 t117.5 -116.5zM393 28q132 0 222 94t90 228q0 90 -43.5 165.5t-117.5 117.5l-273 -580q58 -25 122 -25z" glyph-name="Oslash" horiz-adv-x="786" unicode="Ø"/><glyph d="M325 -10q-102 0 -177.5 66.5t-75.5 181.5v462h39v-461q0 -100 64.5 -155.5t149.5 -55.5q86 0 151 55.5t65 155.5v461h38v-462q0 -114 -76 -181t-178 -67zM311 770l-81 133h38l73 -133h-30z" glyph-name="Ugrave" horiz-adv-x="651" unicode="Ù"/><glyph d="M325 -10q-102 0 -177.5 66.5t-75.5 181.5v462h39v-461q0 -100 64.5 -155.5t149.5 -55.5q86 0 151 55.5t65 155.5v461h38v-462q0 -114 -76 -181t-178 -67zM311 770l73 133h38l-80 -133h-31z" glyph-name="Uacute" horiz-adv-x="651" unicode="Ú"/><glyph d="M325 -10q-102 0 -177.5 66.5t-75.5 181.5v462h39v-461q0 -100 64.5 -155.5t149.5 -55.5q86 0 151 55.5t65 155.5v461h38v-462q0 -114 -76 -181t-178 -67zM215 770l89 133h45l89 -133h-36l-75 116l-75 -116h-37z" glyph-name="Ucircumflex" horiz-adv-x="651" unicode="Û"/><glyph d="M325 -10q-102 0 -177.5 66.5t-75.5 181.5v462h39v-461q0 -100 64.5 -155.5t149.5 -55.5q86 0 151 55.5t65 155.5v461h38v-462q0 -114 -76 -181t-178 -67zM400 814q-13 0 -22 9t-9 22t9 22.5t22 9.5t22 -9.5t9 -22.5t-9 -22t-22 -9zM253 814q-13 0 -22.5 9t-9.5 22 t9.5 22.5t22.5 9.5q12 0 21 -9.5t9 -22.5t-9 -22t-21 -9z" glyph-name="Udieresis" horiz-adv-x="651" unicode="Ü"/><glyph d="M253 0v290l-244 410h42l221 -372l221 372h42l-244 -409v-291h-38zM258 770l73 133h38l-80 -133h-31z" glyph-name="Yacute" horiz-adv-x="544" unicode="Ý"/><glyph d="M83 0v700h38v-160h183q95 0 157 -51t62 -139t-62 -139t-157 -51h-183v-160h-38zM302 195q82 0 132 42t50 113t-50 113t-132 42h-181v-310h181z" glyph-name="Thorn" horiz-adv-x="563" unicode="Þ"/><glyph d="M411 -5q-70 0 -116.5 37t-60.5 103h34q12 -49 48 -78.5t95 -29.5q60 0 94 32t34 82q0 34 -17.5 62.5t-44.5 47.5t-57.5 40.5t-57.5 41t-44.5 49t-17.5 64.5q0 43 39.5 110.5t39.5 111.5q0 98 -128 98h-62v-766h-37v475h-128v35h128v290h102q86 0 124 -34.5t38 -90.5 q0 -51 -39.5 -119t-39.5 -104q0 -37 24.5 -67t59.5 -52.5t70 -47t59.5 -61t24.5 -82.5q0 -64 -44 -105.5t-120 -41.5z" glyph-name="germandbls" horiz-adv-x="621" unicode="ß"/><glyph d="M285 -5q-103 0 -172.5 75.5t-69.5 184.5t69.5 184.5t172.5 75.5q74 0 131 -41t85 -109v145h37v-510h-37v144q-28 -67 -85 -108t-131 -41zM290 29q90 0 150.5 65.5t60.5 160.5t-60.5 160.5t-150.5 65.5t-150.5 -65.5t-60.5 -160.5t60.5 -160.5t150.5 -65.5zM285 580 l-81 133h38l73 -133h-30z" glyph-name="agrave" horiz-adv-x="610" unicode="à"/><glyph d="M285 -5q-103 0 -172.5 75.5t-69.5 184.5t69.5 184.5t172.5 75.5q74 0 131 -41t85 -109v145h37v-510h-37v144q-28 -67 -85 -108t-131 -41zM290 29q90 0 150.5 65.5t60.5 160.5t-60.5 160.5t-150.5 65.5t-150.5 -65.5t-60.5 -160.5t60.5 -160.5t150.5 -65.5zM285 580 l73 133h38l-80 -133h-31z" glyph-name="aacute" horiz-adv-x="610" unicode="á"/><glyph d="M285 -5q-103 0 -172.5 75.5t-69.5 184.5t69.5 184.5t172.5 75.5q74 0 131 -41t85 -109v145h37v-510h-37v144q-28 -67 -85 -108t-131 -41zM290 29q90 0 150.5 65.5t60.5 160.5t-60.5 160.5t-150.5 65.5t-150.5 -65.5t-60.5 -160.5t60.5 -160.5t150.5 -65.5zM188 580 l89 133h45l89 -133h-36l-75 116l-75 -116h-37z" glyph-name="acircumflex" horiz-adv-x="610" unicode="â"/><glyph d="M285 -5q-103 0 -172.5 75.5t-69.5 184.5t69.5 184.5t172.5 75.5q74 0 131 -41t85 -109v145h37v-510h-37v144q-28 -67 -85 -108t-131 -41zM290 29q90 0 150.5 65.5t60.5 160.5t-60.5 160.5t-150.5 65.5t-150.5 -65.5t-60.5 -160.5t60.5 -160.5t150.5 -65.5zM189 605 q4 100 61 100q22 0 38.5 -17.5t30.5 -35t31 -17.5q33 0 37 70h25q-4 -100 -61 -100q-22 0 -38.5 17.5t-30.5 35t-31 17.5q-32 0 -36 -70h-26z" glyph-name="atilde" horiz-adv-x="610" unicode="ã"/><glyph d="M285 -5q-103 0 -172.5 75.5t-69.5 184.5t69.5 184.5t172.5 75.5q74 0 131 -41t85 -109v145h37v-510h-37v144q-28 -67 -85 -108t-131 -41zM290 29q90 0 150.5 65.5t60.5 160.5t-60.5 160.5t-150.5 65.5t-150.5 -65.5t-60.5 -160.5t60.5 -160.5t150.5 -65.5zM374 624 q-13 0 -22 9t-9 22t9 22.5t22 9.5t22 -9.5t9 -22.5t-9 -22t-22 -9zM227 624q-13 0 -22.5 9t-9.5 22t9.5 22.5t22.5 9.5q12 0 21 -9.5t9 -22.5t-9 -22t-21 -9z" glyph-name="adieresis" horiz-adv-x="610" unicode="ä"/><glyph d="M285 -5q-103 0 -172.5 75.5t-69.5 184.5t69.5 184.5t172.5 75.5q74 0 131 -41t85 -109v145h37v-510h-37v144q-28 -67 -85 -108t-131 -41zM290 29q90 0 150.5 65.5t60.5 160.5t-60.5 160.5t-150.5 65.5t-150.5 -65.5t-60.5 -160.5t60.5 -160.5t150.5 -65.5zM301 570 q-38 0 -63 25.5t-25 61.5t25 61t63 25q37 0 62 -25t25 -61t-25 -61.5t-62 -25.5zM301 592q28 0 46 18.5t18 46.5q0 27 -18 45.5t-46 18.5q-29 0 -47 -18.5t-18 -45.5q0 -28 18 -46.5t47 -18.5z" glyph-name="aring" horiz-adv-x="610" unicode="å"/><glyph d="M286 -5q-104 0 -173.5 75.5t-69.5 184.5t69.5 184.5t173.5 75.5q73 0 130 -41t85 -109v145h35v-145q28 67 88.5 108.5t135.5 41.5q104 0 178.5 -75t74.5 -176v-20h-473q3 -90 66.5 -152.5t153.5 -62.5q66 0 120 34.5t76 89.5h39q-26 -70 -90 -114t-145 -44 q-76 0 -136 41.5t-88 109.5v-146h-35v145q-28 -68 -85 -109t-130 -41zM290 29q90 0 150.5 65.5t60.5 160.5t-60.5 160.5t-150.5 65.5t-150.5 -65.5t-60.5 -160.5t60.5 -160.5t150.5 -65.5zM976 277q-5 86 -68 145t-150 59q-86 0 -148 -58.5t-69 -145.5h435z" glyph-name="ae" horiz-adv-x="1056" unicode="æ"/><glyph d="M297 -177q-33 0 -55.5 17.5t-28.5 45.5h27q10 -39 57 -39q26 0 41 14.5t15 37.5q0 48 -58 48h-24l14 48q-102 5 -172 80.5t-70 180.5q0 108 74 183.5t179 75.5q85 0 151.5 -49.5t92.5 -127.5h-39q-23 64 -79 103t-125 39q-91 0 -154.5 -65t-63.5 -159t63.5 -160 t154.5 -66q70 0 125 39t79 103h39q-24 -76 -87.5 -124.5t-143.5 -52.5l-8 -26q34 -1 56 -19t22 -50q0 -33 -22 -55t-60 -22z" glyph-name="ccedilla" horiz-adv-x="572" unicode="ç"/><glyph d="M299 -5q-107 0 -181.5 76t-74.5 184t74.5 184t180.5 76q105 0 180 -75t75 -176q0 -13 -1 -20h-473q4 -91 68 -153t153 -62q66 0 119.5 34.5t76.5 89.5h39q-26 -70 -90.5 -114t-145.5 -44zM278 580l-81 133h38l73 -133h-30zM80 277h436q-6 86 -68.5 145t-149.5 59 q-86 0 -148 -58.5t-70 -145.5z" glyph-name="egrave" horiz-adv-x="596" unicode="è"/><glyph d="M299 -5q-107 0 -181.5 76t-74.5 184t74.5 184t180.5 76q105 0 180 -75t75 -176q0 -13 -1 -20h-473q4 -91 68 -153t153 -62q66 0 119.5 34.5t76.5 89.5h39q-26 -70 -90.5 -114t-145.5 -44zM278 580l73 133h38l-80 -133h-31zM80 277h436q-6 86 -68.5 145t-149.5 59 q-86 0 -148 -58.5t-70 -145.5z" glyph-name="eacute" horiz-adv-x="596" unicode="é"/><glyph d="M299 -5q-107 0 -181.5 76t-74.5 184t74.5 184t180.5 76q105 0 180 -75t75 -176q0 -13 -1 -20h-473q4 -91 68 -153t153 -62q66 0 119.5 34.5t76.5 89.5h39q-26 -70 -90.5 -114t-145.5 -44zM182 580l89 133h45l89 -133h-36l-75 116l-75 -116h-37zM80 277h436 q-6 86 -68.5 145t-149.5 59q-86 0 -148 -58.5t-70 -145.5z" glyph-name="ecircumflex" horiz-adv-x="596" unicode="ê"/><glyph d="M299 -5q-107 0 -181.5 76t-74.5 184t74.5 184t180.5 76q105 0 180 -75t75 -176q0 -13 -1 -20h-473q4 -91 68 -153t153 -62q66 0 119.5 34.5t76.5 89.5h39q-26 -70 -90.5 -114t-145.5 -44zM367 624q-13 0 -22 9t-9 22t9 22.5t22 9.5t22 -9.5t9 -22.5t-9 -22t-22 -9z M220 624q-13 0 -22.5 9t-9.5 22t9 22.5t23 9.5q12 0 21 -9.5t9 -22.5t-9 -22t-21 -9zM80 277h436q-6 86 -68.5 145t-149.5 59q-86 0 -148 -58.5t-70 -145.5z" glyph-name="edieresis" horiz-adv-x="596" unicode="ë"/><glyph d="M72 0v510h37v-510h-37zM76 580l-81 133h38l73 -133h-30z" glyph-name="igrave" horiz-adv-x="180" unicode="ì"/><glyph d="M72 0v510h37v-510h-37zM75 580l73 133h38l-80 -133h-31z" glyph-name="iacute" horiz-adv-x="180" unicode="í"/><glyph d="M72 0v510h37v-510h-37zM-21 580l89 133h45l89 -133h-36l-75 116l-75 -116h-37z" glyph-name="icircumflex" horiz-adv-x="180" unicode="î"/><glyph d="M72 0v510h37v-510h-37zM164 624q-13 0 -22 9t-9 22t9 22.5t22 9.5t22 -9.5t9 -22.5t-9 -22t-22 -9zM17 624q-13 0 -22.5 9t-9.5 22t9.5 22.5t22.5 9.5q12 0 21 -9.5t9 -22.5t-9 -22t-21 -9z" glyph-name="idieresis" horiz-adv-x="180" unicode="ï"/><glyph d="M298 -5q-106 0 -180.5 76t-74.5 183q0 109 74 185t180 76q74 0 133 -41t86 -108v323h-277v-87h-35v87h-77v34h77v77h35v-77h314v-469q0 -107 -74.5 -183t-180.5 -76zM298 31q91 0 155 65t64 158q0 94 -63.5 159.5t-155.5 65.5t-155.5 -65.5t-63.5 -159.5q0 -93 64 -158 t155 -65z" glyph-name="eth" horiz-adv-x="625" unicode="ð"/><glyph d="M72 0v510h37v-119q22 60 70 92t112 32q86 0 142 -59t56 -182v-274h-36v271q0 110 -48 160t-122 50q-78 0 -126 -53.5t-48 -156.5v-271h-37zM169 605q4 100 61 100q22 0 38.5 -17.5t30.5 -35t31 -17.5q33 0 37 70h25q-4 -100 -61 -100q-22 0 -38.5 17.5t-30.5 35t-31 17.5 q-32 0 -36 -70h-26z" glyph-name="ntilde" unicode="ñ"/><glyph d="M296 -5q-105 0 -179 76.5t-74 183.5q0 109 74 184.5t179 75.5q106 0 180.5 -75.5t74.5 -184.5q0 -107 -74.5 -183.5t-180.5 -76.5zM296 31q91 0 154.5 65.5t63.5 158.5q0 94 -63.5 159t-154.5 65t-154 -65t-63 -159q0 -93 63 -158.5t154 -65.5zM281 580l-81 133h38 l73 -133h-30z" glyph-name="ograve" horiz-adv-x="593" unicode="ò"/><glyph d="M296 -5q-105 0 -179 76.5t-74 183.5q0 109 74 184.5t179 75.5q106 0 180.5 -75.5t74.5 -184.5q0 -107 -74.5 -183.5t-180.5 -76.5zM296 31q91 0 154.5 65.5t63.5 158.5q0 94 -63.5 159t-154.5 65t-154 -65t-63 -159q0 -93 63 -158.5t154 -65.5zM281 580l73 133h38 l-80 -133h-31z" glyph-name="oacute" horiz-adv-x="593" unicode="ó"/><glyph d="M296 -5q-105 0 -179 76.5t-74 183.5q0 109 74 184.5t179 75.5q106 0 180.5 -75.5t74.5 -184.5q0 -107 -74.5 -183.5t-180.5 -76.5zM296 31q91 0 154.5 65.5t63.5 158.5q0 94 -63.5 159t-154.5 65t-154 -65t-63 -159q0 -93 63 -158.5t154 -65.5zM184 580l89 133h45 l89 -133h-36l-75 116l-75 -116h-37z" glyph-name="ocircumflex" horiz-adv-x="593" unicode="ô"/><glyph d="M296 -5q-105 0 -179 76.5t-74 183.5q0 109 74 184.5t179 75.5q106 0 180.5 -75.5t74.5 -184.5q0 -107 -74.5 -183.5t-180.5 -76.5zM296 31q91 0 154.5 65.5t63.5 158.5q0 94 -63.5 159t-154.5 65t-154 -65t-63 -159q0 -93 63 -158.5t154 -65.5zM184 605q4 100 61 100 q22 0 38.5 -17.5t30.5 -35t31 -17.5q33 0 37 70h25q-4 -100 -61 -100q-22 0 -38.5 17.5t-30.5 35t-31 17.5q-32 0 -36 -70h-26z" glyph-name="otilde" horiz-adv-x="593" unicode="õ"/><glyph d="M296 -5q-105 0 -179 76.5t-74 183.5q0 109 74 184.5t179 75.5q106 0 180.5 -75.5t74.5 -184.5q0 -107 -74.5 -183.5t-180.5 -76.5zM296 31q91 0 154.5 65.5t63.5 158.5q0 94 -63.5 159t-154.5 65t-154 -65t-63 -159q0 -93 63 -158.5t154 -65.5zM370 624q-13 0 -22 9 t-9 22t9 22.5t22 9.5t22 -9.5t9 -22.5t-9 -22t-22 -9zM223 624q-13 0 -22.5 9t-9.5 22t9.5 22.5t22.5 9.5q12 0 21 -9.5t9 -22.5t-9 -22t-21 -9z" glyph-name="odieresis" horiz-adv-x="593" unicode="ö"/><glyph d="M81 316v29h379v-29h-379zM271 142q-15 0 -26.5 11t-11.5 26t11.5 26.5t26.5 11.5t26 -11.5t11 -26.5t-11 -26t-26 -11zM271 456q-15 0 -26.5 11t-11.5 26t11.5 26.5t26.5 11.5t26 -11.5t11 -26.5t-11 -26t-26 -11z" glyph-name="divide" horiz-adv-x="542" unicode="÷"/><glyph d="M171 29q-59 34 -93.5 94t-34.5 132q0 109 74 184.5t179 75.5q52 0 98 -20l28 60h36l-36 -74q59 -33 94 -93t35 -133q0 -107 -74.5 -183.5t-180.5 -76.5q-50 0 -96 20l-28 -60h-36zM378 462q-39 17 -82 17q-91 0 -154 -65t-63 -159q0 -61 29.5 -112.5t78.5 -81.5zM296 31 q91 0 154.5 65.5t63.5 158.5q0 62 -29 113t-79 80l-191 -401q40 -16 81 -16z" glyph-name="oslash" horiz-adv-x="594" unicode="ø"/><glyph d="M261 -5q-86 0 -142 59t-56 182v274h36v-271q0 -110 48.5 -160t121.5 -50q78 0 126.5 53.5t48.5 156.5v271h36v-510h-36v119q-23 -61 -71 -92.5t-112 -31.5zM256 580l-81 133h38l73 -133h-30z" glyph-name="ugrave" unicode="ù"/><glyph d="M261 -5q-86 0 -142 59t-56 182v274h36v-271q0 -110 48.5 -160t121.5 -50q78 0 126.5 53.5t48.5 156.5v271h36v-510h-36v119q-23 -61 -71 -92.5t-112 -31.5zM255 580l73 133h38l-80 -133h-31z" glyph-name="uacute" unicode="ú"/><glyph d="M261 -5q-86 0 -142 59t-56 182v274h36v-271q0 -110 48.5 -160t121.5 -50q78 0 126.5 53.5t48.5 156.5v271h36v-510h-36v119q-23 -61 -71 -92.5t-112 -31.5zM159 580l89 133h45l89 -133h-36l-75 116l-75 -116h-37z" glyph-name="ucircumflex" unicode="û"/><glyph d="M261 -5q-86 0 -142 59t-56 182v274h36v-271q0 -110 48.5 -160t121.5 -50q78 0 126.5 53.5t48.5 156.5v271h36v-510h-36v119q-23 -61 -71 -92.5t-112 -31.5zM344 624q-13 0 -22 9t-9 22t9 22.5t22 9.5t22 -9.5t9 -22.5t-9 -22t-22 -9zM197 624q-13 0 -22.5 9t-9.5 22 t9.5 22.5t22.5 9.5q12 0 21 -9.5t9 -22.5t-9 -22t-21 -9z" glyph-name="udieresis" unicode="ü"/><glyph d="M142 -250l100 240l-228 520h38l209 -475l197 475h40l-317 -760h-39zM240 580l73 133h38l-80 -133h-31z" glyph-name="yacute" horiz-adv-x="511" unicode="ý"/><glyph d="M72 -250v1050h37v-435q28 68 85 109t130 41q104 0 173.5 -75.5t69.5 -184.5t-69.5 -184.5t-173.5 -75.5q-73 0 -130 41t-85 108v-394h-37zM320 29q90 0 150 65.5t60 160.5t-60 160.5t-150 65.5q-91 0 -151 -65.5t-60 -160.5t60 -160.5t151 -65.5z" glyph-name="thorn" horiz-adv-x="610" unicode="þ"/><glyph d="M142 -250l100 240l-228 520h38l209 -475l197 475h40l-317 -760h-39zM329 624q-13 0 -22 9t-9 22t9 22.5t22 9.5t22 -9.5t9 -22.5t-9 -22t-22 -9zM182 624q-13 0 -22.5 9t-9.5 22t9 22.5t23 9.5q12 0 21 -9.5t9 -22.5t-9 -22t-21 -9z" glyph-name="ydieresis" horiz-adv-x="511" unicode="ÿ"/><glyph d="M12 0l304 711h2l305 -711h-43l-68 163h-389l-68 -163h-43zM138 198h359l-180 429zM205 823v29h225v-29h-225z" glyph-name="Amacron" horiz-adv-x="635" unicode="Ā"/><glyph d="M285 -5q-103 0 -172.5 75.5t-69.5 184.5t69.5 184.5t172.5 75.5q74 0 131 -41t85 -109v145h37v-510h-37v144q-28 -67 -85 -108t-131 -41zM290 29q90 0 150.5 65.5t60.5 160.5t-60.5 160.5t-150.5 65.5t-150.5 -65.5t-60.5 -160.5t60.5 -160.5t150.5 -65.5zM188 633v29 h225v-29h-225z" glyph-name="amacron" horiz-adv-x="610" unicode="ā"/><glyph d="M12 0l304 711h2l305 -711h-43l-68 163h-389l-68 -163h-43zM138 198h359l-180 429zM317 769q-53 0 -81 35t-28 99h29q0 -107 80 -107q81 0 81 107h28q0 -64 -28 -99t-81 -35z" glyph-name="Abreve" horiz-adv-x="635" unicode="Ă"/><glyph d="M285 -5q-103 0 -172.5 75.5t-69.5 184.5t69.5 184.5t172.5 75.5q74 0 131 -41t85 -109v145h37v-510h-37v144q-28 -67 -85 -108t-131 -41zM290 29q90 0 150.5 65.5t60.5 160.5t-60.5 160.5t-150.5 65.5t-150.5 -65.5t-60.5 -160.5t60.5 -160.5t150.5 -65.5zM300 579 q-53 0 -81 35t-28 99h29q0 -107 80 -107q81 0 81 107h28q0 -64 -28 -99t-81 -35z" glyph-name="abreve" horiz-adv-x="610" unicode="ă"/><glyph d="M12 0l304 711h2l305 -711h-12q-88 -38 -88 -89q0 -42 52 -42q18 0 36 6v-27q-23 -5 -40 -5q-35 0 -55.5 17t-20.5 46q0 56 84 97l-67 160h-389l-68 -163h-43zM138 198h359l-180 429z" glyph-name="Aogonek" horiz-adv-x="635" unicode="Ą"/><glyph d="M285 -5q-103 0 -172.5 75.5t-69.5 184.5t69.5 184.5t172.5 75.5q74 0 131 -41t85 -109v145h37v-508l1 -2q-88 -38 -88 -89q0 -42 52 -42q18 0 36 6v-27q-23 -5 -40 -5q-35 0 -55.5 17t-20.5 46q0 54 79 94h-1v144q-28 -67 -85 -108t-131 -41zM290 29q90 0 150.5 65.5 t60.5 160.5t-60.5 160.5t-150.5 65.5t-150.5 -65.5t-60.5 -160.5t60.5 -160.5t150.5 -65.5z" glyph-name="aogonek" horiz-adv-x="610" unicode="ą"/><glyph d="M395 -10q-150 0 -251 104.5t-101 255.5t101 255.5t251 104.5q114 0 203.5 -62t122.5 -161h-40q-32 83 -110 134.5t-175 51.5q-134 0 -224.5 -94t-90.5 -229t90.5 -229t224.5 -94q96 0 173.5 51t109.5 133h42q-34 -98 -123 -159.5t-203 -61.5zM378 770l73 133h38l-80 -133 h-31z" glyph-name="Cacute" horiz-adv-x="754" unicode="Ć"/><glyph d="M297 -5q-106 0 -180 76.5t-74 184.5t74 183.5t179 75.5q85 0 151.5 -49.5t92.5 -127.5h-39q-23 64 -79 103t-125 39q-91 0 -154.5 -65t-63.5 -159t63.5 -160t154.5 -66q70 0 125 39t79 103h39q-25 -78 -91.5 -127.5t-151.5 -49.5zM282 580l73 133h38l-80 -133h-31z" glyph-name="cacute" horiz-adv-x="572" unicode="ć"/><glyph d="M395 -10q-150 0 -251 104.5t-101 255.5t101 255.5t251 104.5q114 0 203.5 -62t122.5 -161h-40q-32 83 -110 134.5t-175 51.5q-134 0 -224.5 -94t-90.5 -229t90.5 -229t224.5 -94q96 0 173.5 51t109.5 133h42q-34 -98 -123 -159.5t-203 -61.5zM281 770l89 133h45l89 -133 h-36l-75 116l-75 -116h-37z" glyph-name="Ccircumflex" horiz-adv-x="754" unicode="Ĉ"/><glyph d="M297 -5q-106 0 -180 76.5t-74 184.5t74 183.5t179 75.5q85 0 151.5 -49.5t92.5 -127.5h-39q-23 64 -79 103t-125 39q-91 0 -154.5 -65t-63.5 -159t63.5 -160t154.5 -66q70 0 125 39t79 103h39q-25 -78 -91.5 -127.5t-151.5 -49.5zM186 580l89 133h45l89 -133h-36l-75 116 l-75 -116h-37z" glyph-name="ccircumflex" horiz-adv-x="572" unicode="ĉ"/><glyph d="M395 -10q-150 0 -251 104.5t-101 255.5t101 255.5t251 104.5q114 0 203.5 -62t122.5 -161h-40q-32 83 -110 134.5t-175 51.5q-134 0 -224.5 -94t-90.5 -229t90.5 -229t224.5 -94q96 0 173.5 51t109.5 133h42q-34 -98 -123 -159.5t-203 -61.5zM393 813q-14 0 -23.5 9.5 t-9.5 22.5q0 14 9.5 23.5t23.5 9.5q13 0 22.5 -9.5t9.5 -23.5q0 -13 -9.5 -22.5t-22.5 -9.5z" glyph-name="Cdotaccent" horiz-adv-x="754" unicode="Ċ"/><glyph d="M297 -5q-106 0 -180 76.5t-74 184.5t74 183.5t179 75.5q85 0 151.5 -49.5t92.5 -127.5h-39q-23 64 -79 103t-125 39q-91 0 -154.5 -65t-63.5 -159t63.5 -160t154.5 -66q70 0 125 39t79 103h39q-25 -78 -91.5 -127.5t-151.5 -49.5zM298 623q-14 0 -23.5 9.5t-9.5 22.5 q0 14 9.5 23.5t23.5 9.5q13 0 22.5 -9.5t9.5 -23.5q0 -13 -9 -22.5t-23 -9.5z" glyph-name="cdotaccent" horiz-adv-x="572" unicode="ċ"/><glyph d="M395 -10q-150 0 -251 104.5t-101 255.5t101 255.5t251 104.5q114 0 203.5 -62t122.5 -161h-40q-32 83 -110 134.5t-175 51.5q-134 0 -224.5 -94t-90.5 -229t90.5 -229t224.5 -94q96 0 173.5 51t109.5 133h42q-34 -98 -123 -159.5t-203 -61.5zM370 770l-89 133h37l75 -116 l75 116h36l-89 -133h-45z" glyph-name="Ccaron" horiz-adv-x="754" unicode="Č"/><glyph d="M297 -5q-106 0 -180 76.5t-74 184.5t74 183.5t179 75.5q85 0 151.5 -49.5t92.5 -127.5h-39q-23 64 -79 103t-125 39q-91 0 -154.5 -65t-63.5 -159t63.5 -160t154.5 -66q70 0 125 39t79 103h39q-25 -78 -91.5 -127.5t-151.5 -49.5zM275 580l-89 133h37l75 -116l75 116h36 l-89 -133h-45z" glyph-name="ccaron" horiz-adv-x="572" unicode="č"/><glyph d="M83 0v700h197q145 0 241.5 -94t96.5 -255t-97 -256t-241 -95h-197zM280 36q130 0 214.5 85t84.5 230t-84.5 229t-214.5 84h-159v-628h159zM270 770l-89 133h37l75 -116l75 116h36l-89 -133h-45z" glyph-name="Dcaron" horiz-adv-x="660" unicode="Ď"/><glyph d="M285 -5q-103 0 -172.5 75.5t-69.5 184.5t69.5 184.5t172.5 75.5q74 0 131 -41t85 -109v435h37v-800h-37v144q-28 -67 -85 -108t-131 -41zM290 29q90 0 150.5 65.5t60.5 160.5t-60.5 160.5t-150.5 65.5t-150.5 -65.5t-60.5 -160.5t60.5 -160.5t150.5 -65.5zM622 620 l17 180h33l-26 -180h-24z" glyph-name="dcaron" horiz-adv-x="650" unicode="ď"/><glyph d="M144 0v334h-122v33h122v333h197q145 0 241.5 -94t96.5 -255t-97 -256t-241 -95h-197zM341 36q131 0 215 85t84 230t-84 229t-215 84h-159v-297h222v-33h-222v-298h159z" glyph-name="Dcroat" horiz-adv-x="722" unicode="Đ"/><glyph d="M285 -5q-103 0 -172.5 75.5t-69.5 184.5t69.5 184.5t172.5 75.5q74 0 131 -41t85 -109v272h-228v30h228v133h37v-133h112v-30h-112v-637h-37v144q-28 -67 -85 -108t-131 -41zM290 29q90 0 150.5 65.5t60.5 160.5t-60.5 160.5t-150.5 65.5t-150.5 -65.5t-60.5 -160.5 t60.5 -160.5t150.5 -65.5z" glyph-name="dcroat" horiz-adv-x="672" unicode="đ"/><glyph d="M83 0v700h415v-37h-377v-290h342v-35h-342v-301h377v-37h-415zM186 823v29h225v-29h-225z" glyph-name="Emacron" horiz-adv-x="546" unicode="Ē"/><glyph d="M299 -5q-107 0 -181.5 76t-74.5 184t74.5 184t180.5 76q105 0 180 -75t75 -176q0 -13 -1 -20h-473q4 -91 68 -153t153 -62q66 0 119.5 34.5t76.5 89.5h39q-26 -70 -90.5 -114t-145.5 -44zM181 633v29h225v-29h-225zM80 277h436q-6 86 -68.5 145t-149.5 59 q-86 0 -148 -58.5t-70 -145.5z" glyph-name="emacron" horiz-adv-x="596" unicode="ē"/><glyph d="M83 0v700h415v-37h-377v-290h342v-35h-342v-301h377v-37h-415zM299 769q-53 0 -81 35t-28 99h29q0 -107 80 -107q81 0 81 107h28q0 -64 -28 -99t-81 -35z" glyph-name="Ebreve" horiz-adv-x="546" unicode="Ĕ"/><glyph d="M299 -5q-107 0 -181.5 76t-74.5 184t74.5 184t180.5 76q105 0 180 -75t75 -176q0 -13 -1 -20h-473q4 -91 68 -153t153 -62q66 0 119.5 34.5t76.5 89.5h39q-26 -70 -90.5 -114t-145.5 -44zM293 579q-53 0 -81 35t-28 99h29q0 -107 80 -107q81 0 81 107h28q0 -64 -28 -99 t-81 -35zM80 277h436q-6 86 -68.5 145t-149.5 59q-86 0 -148 -58.5t-70 -145.5z" glyph-name="ebreve" horiz-adv-x="596" unicode="ĕ"/><glyph d="M83 0v700h415v-37h-377v-290h342v-35h-342v-301h377v-37h-415zM299 813q-14 0 -23.5 9.5t-9.5 22.5q0 14 9.5 23.5t23.5 9.5q13 0 22.5 -9.5t9.5 -23.5q0 -13 -9.5 -22.5t-22.5 -9.5z" glyph-name="Edotaccent" horiz-adv-x="546" unicode="Ė"/><glyph d="M299 -5q-107 0 -181.5 76t-74.5 184t74.5 184t180.5 76q105 0 180 -75t75 -176q0 -13 -1 -20h-473q4 -91 68 -153t153 -62q66 0 119.5 34.5t76.5 89.5h39q-26 -70 -90.5 -114t-145.5 -44zM293 623q-14 0 -23.5 9.5t-9.5 22.5q0 14 9.5 23.5t23.5 9.5q13 0 22.5 -9.5 t9.5 -23.5q0 -13 -9.5 -22.5t-22.5 -9.5zM80 277h436q-6 86 -68.5 145t-149.5 59q-86 0 -148 -58.5t-70 -145.5z" glyph-name="edotaccent" horiz-adv-x="596" unicode="ė"/><glyph d="M83 0v700h415v-37h-377v-290h342v-35h-342v-301h377v-35l1 -2q-88 -38 -88 -89q0 -42 52 -42q18 0 36 6v-27q-23 -5 -40 -5q-35 0 -55.5 17t-20.5 46q0 54 79 94h-379z" glyph-name="Eogonek" horiz-adv-x="546" unicode="Ę"/><glyph d="M352 -157q-35 0 -55 17t-20 46q0 47 70 93q-32 -4 -49 -4q-106 0 -180.5 76t-74.5 184t74.5 184t180.5 76q105 0 180 -74.5t75 -175.5q0 -14 -1 -21h-472q3 -90 66 -152.5t153 -62.5q67 0 120.5 34.5t76.5 89.5h39q-13 -33 -33.5 -59.5t-37.5 -40t-42 -28.5t-40 -25 t-36 -26.5t-31.5 -32.5t-10.5 -32q0 -40 52 -40q18 0 36 6v-27q-22 -5 -40 -5zM516 277q-6 86 -68.5 145t-149.5 59t-148.5 -59t-69.5 -145h436z" glyph-name="eogonek" horiz-adv-x="596" unicode="ę"/><glyph d="M83 0v700h415v-37h-377v-290h342v-35h-342v-301h377v-37h-415zM276 770l-89 133h37l75 -116l75 116h36l-89 -133h-45z" glyph-name="Ecaron" horiz-adv-x="546" unicode="Ě"/><glyph d="M299 -5q-107 0 -181.5 76t-74.5 184t74.5 184t180.5 76q105 0 180 -75t75 -176q0 -13 -1 -20h-473q4 -91 68 -153t153 -62q66 0 119.5 34.5t76.5 89.5h39q-26 -70 -90.5 -114t-145.5 -44zM271 580l-89 133h37l75 -116l75 116h36l-89 -133h-45zM80 277h436 q-6 86 -68.5 145t-149.5 59q-86 0 -148 -58.5t-70 -145.5z" glyph-name="ecaron" horiz-adv-x="596" unicode="ě"/><glyph d="M393 -10q-149 0 -249.5 105t-100.5 255q0 151 101 255.5t251 104.5q114 0 203.5 -62.5t122.5 -161.5h-40q-32 83 -110 135t-175 52q-134 0 -224.5 -94t-90.5 -229t90 -229t223 -94q105 0 187 64t112 195h-280v35h327q-25 -165 -122 -248t-225 -83zM281 770l89 133h45 l89 -133h-36l-75 116l-75 -116h-37z" glyph-name="Gcircumflex" horiz-adv-x="775" unicode="Ĝ"/><glyph d="M173 -250v34h328v360q-28 -67 -85 -108t-131 -41q-103 0 -172.5 75.5t-69.5 184.5t69.5 184.5t172.5 75.5q74 0 131 -41t85 -109v145h37v-760h-365zM290 29q90 0 150.5 65.5t60.5 160.5t-60.5 160.5t-150.5 65.5t-150.5 -65.5t-60.5 -160.5t60.5 -160.5t150.5 -65.5z M184 580l89 133h45l89 -133h-36l-75 116l-75 -116h-37z" glyph-name="gcircumflex" horiz-adv-x="610" unicode="ĝ"/><glyph d="M393 -10q-149 0 -249.5 105t-100.5 255q0 151 101 255.5t251 104.5q114 0 203.5 -62.5t122.5 -161.5h-40q-32 83 -110 135t-175 52q-134 0 -224.5 -94t-90.5 -229t90 -229t223 -94q105 0 187 64t112 195h-280v35h327q-25 -165 -122 -248t-225 -83zM393 769q-53 0 -81 35 t-28 99h29q0 -107 80 -107q81 0 81 107h28q0 -64 -28 -99t-81 -35z" glyph-name="Gbreve" horiz-adv-x="775" unicode="Ğ"/><glyph d="M173 -250v34h328v360q-28 -67 -85 -108t-131 -41q-103 0 -172.5 75.5t-69.5 184.5t69.5 184.5t172.5 75.5q74 0 131 -41t85 -109v145h37v-760h-365zM290 29q90 0 150.5 65.5t60.5 160.5t-60.5 160.5t-150.5 65.5t-150.5 -65.5t-60.5 -160.5t60.5 -160.5t150.5 -65.5z M296 579q-53 0 -81 35t-28 99h29q0 -107 80 -107q81 0 81 107h28q0 -64 -28 -99t-81 -35z" glyph-name="gbreve" horiz-adv-x="610" unicode="ğ"/><glyph d="M393 -10q-149 0 -249.5 105t-100.5 255q0 151 101 255.5t251 104.5q114 0 203.5 -62.5t122.5 -161.5h-40q-32 83 -110 135t-175 52q-134 0 -224.5 -94t-90.5 -229t90 -229t223 -94q105 0 187 64t112 195h-280v35h327q-25 -165 -122 -248t-225 -83zM393 813 q-14 0 -23.5 9.5t-9.5 22.5q0 14 9.5 23.5t23.5 9.5q13 0 22.5 -9.5t9.5 -23.5q0 -13 -9.5 -22.5t-22.5 -9.5z" glyph-name="Gdotaccent" horiz-adv-x="775" unicode="Ġ"/><glyph d="M173 -250v34h328v360q-28 -67 -85 -108t-131 -41q-103 0 -172.5 75.5t-69.5 184.5t69.5 184.5t172.5 75.5q74 0 131 -41t85 -109v145h37v-760h-365zM290 29q90 0 150.5 65.5t60.5 160.5t-60.5 160.5t-150.5 65.5t-150.5 -65.5t-60.5 -160.5t60.5 -160.5t150.5 -65.5z M296 623q-14 0 -23.5 9.5t-9.5 22.5q0 14 9.5 23.5t23.5 9.5q13 0 22.5 -9.5t9.5 -23.5q0 -13 -9 -22.5t-23 -9.5z" glyph-name="gdotaccent" horiz-adv-x="610" unicode="ġ"/><glyph d="M393 -10q-149 0 -249.5 105t-100.5 255q0 151 101 255.5t251 104.5q114 0 203.5 -62.5t122.5 -161.5h-40q-32 83 -110 135t-175 52q-134 0 -224.5 -94t-90.5 -229t90 -229t223 -94q105 0 187 64t112 195h-280v35h327q-25 -165 -122 -248t-225 -83zM310 -201l63 141h38 l-71 -141h-30z" glyph-name="uni0122" horiz-adv-x="775" unicode="Ģ"/><glyph d="M173 -250v34h328v360q-28 -67 -85 -108t-131 -41q-103 0 -172.5 75.5t-69.5 184.5t69.5 184.5t172.5 75.5q74 0 131 -41t85 -109v145h37v-760h-365zM290 29q90 0 150.5 65.5t60.5 160.5t-60.5 160.5t-150.5 65.5t-150.5 -65.5t-60.5 -160.5t60.5 -160.5t150.5 -65.5z M277 580l81 133h30l-73 -133h-38z" glyph-name="uni0123" horiz-adv-x="610" unicode="ģ"/><glyph d="M83 0v700h38v-321h397v321h38v-700h-38v343h-397v-343h-38zM207 770l89 133h45l89 -133h-36l-75 116l-75 -116h-37z" glyph-name="Hcircumflex" horiz-adv-x="639" unicode="Ĥ"/><glyph d="M72 0v800h37v-409q22 60 70 92t112 32q86 0 142 -59t56 -182v-274h-36v271q0 110 -48 160t-122 50q-78 0 -126 -53.5t-48 -156.5v-271h-37zM-21 870l89 133h45l89 -133h-36l-75 116l-75 -116h-37z" glyph-name="hcircumflex" unicode="ĥ"/><glyph d="M127 0v520h-105v31h105v149h39v-149h396v149h39v-149h105v-31h-105v-520h-39v342h-396v-342h-39zM166 379h396v141h-396v-141z" glyph-name="Hbar" horiz-adv-x="728" unicode="Ħ"/><glyph d="M134 0v637h-112v30h112v133h37v-133h228v-30h-228v-246q22 60 70 92t112 32q87 0 143 -59t56 -182v-274h-37v271q0 110 -48.5 160t-121.5 50q-78 0 -126 -53.5t-48 -156.5v-271h-37z" glyph-name="hbar" horiz-adv-x="614" unicode="ħ"/><glyph d="M83 0v700h38v-700h-38zM-10 795q4 100 61 100q22 0 38.5 -17.5t30.5 -35t31 -17.5q33 0 37 70h25q-4 -100 -61 -100q-22 0 -38.5 17.5t-30.5 35t-31 17.5q-32 0 -36 -70h-26z" glyph-name="Itilde" horiz-adv-x="204" unicode="Ĩ"/><glyph d="M72 0v510h37v-510h-37zM-21 605q4 100 61 100q22 0 38.5 -17.5t30.5 -35t31 -17.5q33 0 37 70h25q-4 -100 -61 -100q-22 0 -38.5 17.5t-30.5 35t-31 17.5q-32 0 -36 -70h-26z" glyph-name="itilde" horiz-adv-x="180" unicode="ĩ"/><glyph d="M83 0v700h38v-700h-38zM-11 823v29h225v-29h-225z" glyph-name="Imacron" horiz-adv-x="204" unicode="Ī"/><glyph d="M72 0v510h37v-510h-37zM-22 633v29h225v-29h-225z" glyph-name="imacron" horiz-adv-x="180" unicode="ī"/><glyph d="M83 0v700h38v-700h-38zM101 769q-53 0 -81 35t-28 99h29q0 -107 80 -107q81 0 81 107h28q0 -64 -28 -99t-81 -35z" glyph-name="Ibreve" horiz-adv-x="204" unicode="Ĭ"/><glyph d="M72 0v510h37v-510h-37zM91 579q-53 0 -81 35t-28 99h29q0 -107 80 -107q81 0 81 107h28q0 -64 -28 -99t-81 -35z" glyph-name="ibreve" horiz-adv-x="180" unicode="ĭ"/><glyph d="M83 0v700h38v-698l1 -2q-88 -38 -88 -89q0 -42 52 -42q18 0 36 6v-27q-23 -5 -40 -5q-35 0 -55.5 17t-20.5 46q0 54 79 94h-2z" glyph-name="Iogonek" horiz-adv-x="204" unicode="Į"/><glyph d="M72 0v510h37v-510q-88 -38 -88 -89q0 -42 52 -42q18 0 36 6v-27q-23 -5 -40 -5q-35 0 -55.5 17t-20.5 46q0 56 79 94zM91 623q-14 0 -23.5 9.5t-9.5 22.5q0 14 9.5 23.5t23.5 9.5q13 0 22.5 -9.5t9.5 -23.5q0 -13 -9.5 -22.5t-22.5 -9.5z" glyph-name="iogonek" horiz-adv-x="180" unicode="į"/><glyph d="M83 0v700h38v-700h-38zM101 813q-14 0 -23.5 9.5t-9.5 22.5q0 14 9.5 23.5t23.5 9.5q13 0 22.5 -9.5t9.5 -23.5q0 -13 -9.5 -22.5t-22.5 -9.5z" glyph-name="Idotaccent" horiz-adv-x="204" unicode="İ"/><glyph d="M72 0v510h37v-510h-37z" glyph-name="dotlessi" horiz-adv-x="180" unicode="ı"/><glyph d="M83 0v700h38v-700h-38zM237 0v36h335v664h38v-700h-373z" glyph-name="IJ" horiz-adv-x="693" unicode="Ĳ"/><glyph d="M72 0v510h37v-510h-37zM91 623q-14 0 -23.5 9.5t-9.5 22.5q0 14 9.5 23.5t23.5 9.5q13 0 22.5 -9.5t9.5 -23.5q0 -13 -9.5 -22.5t-22.5 -9.5zM159 -250v34h97v726h37v-760h-134zM275 623q-14 0 -23.5 9.5t-9.5 22.5q0 14 9.5 23.5t23.5 9.5q13 0 22.5 -9.5t9.5 -23.5 q0 -13 -9.5 -22.5t-22.5 -9.5z" glyph-name="ij" horiz-adv-x="364" unicode="ĳ"/><glyph d="M33 0v36h335v664h38v-700h-373zM276 770l89 133h45l89 -133h-36l-75 116l-75 -116h-37z" glyph-name="Jcircumflex" horiz-adv-x="489" unicode="Ĵ"/><glyph d="M-21 -250v34h97v726h37v-760h-134zM-17 580l89 133h45l89 -133h-36l-75 116l-75 -116h-37z" glyph-name="jcircumflex" horiz-adv-x="185" unicode="ĵ"/><glyph d="M83 0v700h38v-339l366 339h53l-376 -348l386 -352h-54l-375 343v-343h-38zM206 -201l63 141h38l-71 -141h-30z" glyph-name="uni0136" horiz-adv-x="562" unicode="Ķ"/><glyph d="M72 0v800h37v-531l293 241h53l-305 -251l318 -259h-53l-306 249v-249h-37zM169 -201l63 141h38l-71 -141h-30z" glyph-name="uni0137" horiz-adv-x="490" unicode="ķ"/><glyph d="M72 0v510h37v-241l293 241h53l-305 -251l318 -259h-53l-306 249v-249h-37z" glyph-name="kgreenlandic" horiz-adv-x="490" unicode="ĸ"/><glyph d="M83 0v700h38v-664h365v-36h-403zM87 770l73 133h38l-80 -133h-31z" glyph-name="Lacute" horiz-adv-x="519" unicode="Ĺ"/><glyph d="M72 0v800h37v-800h-37zM75 870l73 133h38l-80 -133h-31z" glyph-name="lacute" horiz-adv-x="180" unicode="ĺ"/><glyph d="M83 0v700h38v-664h365v-36h-403zM215 -201l63 141h38l-71 -141h-30z" glyph-name="uni013B" horiz-adv-x="519" unicode="Ļ"/><glyph d="M72 0v800h37v-800h-37zM8 -201l63 141h38l-71 -141h-30z" glyph-name="uni013C" horiz-adv-x="180" unicode="ļ"/><glyph d="M83 0v700h38v-664h365v-36h-403zM205 520l17 180h33l-26 -180h-24z" glyph-name="Lcaron" horiz-adv-x="519" unicode="Ľ"/><glyph d="M72 0v800h37v-800h-37zM193 620l17 180h33l-26 -180h-24z" glyph-name="lcaron" horiz-adv-x="221" unicode="ľ"/><glyph d="M83 0v700h38v-664h365v-36h-403zM362 329q-13 0 -22 9t-9 22t9 21.5t22 8.5t22 -8.5t9 -21.5t-9 -22t-22 -9z" glyph-name="Ldot" horiz-adv-x="519" unicode="Ŀ"/><glyph d="M72 0v800h37v-800h-37zM240 324q-13 0 -22.5 9t-9.5 22t9.5 22t22.5 9t21.5 -9t8.5 -22t-9 -22t-21 -9z" glyph-name="ldot" horiz-adv-x="298" unicode="ŀ"/><glyph d="M128 0v279l-92 -52l-14 27l106 60v386h38v-364l184 104l15 -27l-199 -113v-264h365v-36h-403z" glyph-name="Lslash" horiz-adv-x="564" unicode="Ł"/><glyph d="M161 0v353l-123 -86l-16 23l139 98v412h36v-387l122 86l16 -23l-138 -97v-379h-36z" glyph-name="lslash" horiz-adv-x="357" unicode="ł"/><glyph d="M599 -11l-479 625v-614h-37v711h2l479 -624v613h37v-711h-2zM326 770l73 133h38l-80 -133h-31z" glyph-name="Nacute" horiz-adv-x="683" unicode="Ń"/><glyph d="M72 0v510h37v-119q22 60 70 92t112 32q86 0 142 -59t56 -182v-274h-36v271q0 110 -48 160t-122 50q-78 0 -126 -53.5t-48 -156.5v-271h-37zM266 580l73 133h38l-80 -133h-31z" glyph-name="nacute" unicode="ń"/><glyph d="M599 -11l-479 625v-614h-37v711h2l479 -624v613h37v-711h-2zM259 -201l63 141h38l-71 -141h-30z" glyph-name="uni0145" horiz-adv-x="683" unicode="Ņ"/><glyph d="M72 0v510h37v-119q22 60 70 92t112 32q86 0 142 -59t56 -182v-274h-36v271q0 110 -48 160t-122 50q-78 0 -126 -53.5t-48 -156.5v-271h-37zM197 -201l63 141h38l-71 -141h-30z" glyph-name="uni0146" unicode="ņ"/><glyph d="M599 -11l-479 625v-614h-37v711h2l479 -624v613h37v-711h-2zM318 770l-89 133h37l75 -116l75 116h36l-89 -133h-45z" glyph-name="Ncaron" horiz-adv-x="683" unicode="Ň"/><glyph d="M72 0v510h37v-119q22 60 70 92t112 32q86 0 142 -59t56 -182v-274h-36v271q0 110 -48 160t-122 50q-78 0 -126 -53.5t-48 -156.5v-271h-37zM258 580l-89 133h37l75 -116l75 116h36l-89 -133h-45z" glyph-name="ncaron" unicode="ň"/><glyph d="M72 596l39 187h37l-46 -187h-30zM94 0v510h37v-119q22 60 70 92t112 32q86 0 142 -59t56 -182v-274h-36v271q0 110 -48 160t-122 50q-78 0 -126 -53.5t-48 -156.5v-271h-37z" glyph-name="napostrophe" horiz-adv-x="574" unicode="ŉ"/><glyph d="M461 -250v36h103v246l-444 582v-614h-37v711h2l479 -622v611h37v-950h-140z" glyph-name="Eng" horiz-adv-x="683" unicode="Ŋ"/><glyph d="M356 -250v34h97v487q0 110 -48 160t-122 50q-78 0 -126 -53.5t-48 -156.5v-271h-37v510h37v-119q22 60 70 92t112 32q86 0 142 -59t56 -182v-524h-133z" glyph-name="eng" unicode="ŋ"/><glyph d="M393 -10q-149 0 -249.5 105t-100.5 255t100.5 255t249.5 105q148 0 249 -105t101 -255t-101 -255t-249 -105zM393 28q132 0 222 94t90 228t-90 228t-222 94t-222 -94t-90 -228t90 -228t222 -94zM281 823v29h225v-29h-225z" glyph-name="Omacron" horiz-adv-x="786" unicode="Ō"/><glyph d="M296 -5q-105 0 -179 76.5t-74 183.5q0 109 74 184.5t179 75.5q106 0 180.5 -75.5t74.5 -184.5q0 -107 -74.5 -183.5t-180.5 -76.5zM296 31q91 0 154.5 65.5t63.5 158.5q0 94 -63.5 159t-154.5 65t-154 -65t-63 -159q0 -93 63 -158.5t154 -65.5zM184 633v29h225v-29h-225z " glyph-name="omacron" horiz-adv-x="593" unicode="ō"/><glyph d="M393 -10q-149 0 -249.5 105t-100.5 255t100.5 255t249.5 105q148 0 249 -105t101 -255t-101 -255t-249 -105zM393 28q132 0 222 94t90 228t-90 228t-222 94t-222 -94t-90 -228t90 -228t222 -94zM393 769q-53 0 -81 35t-28 99h29q0 -107 80 -107q81 0 81 107h28 q0 -64 -28 -99t-81 -35z" glyph-name="Obreve" horiz-adv-x="786" unicode="Ŏ"/><glyph d="M296 -5q-105 0 -179 76.5t-74 183.5q0 109 74 184.5t179 75.5q106 0 180.5 -75.5t74.5 -184.5q0 -107 -74.5 -183.5t-180.5 -76.5zM296 31q91 0 154.5 65.5t63.5 158.5q0 94 -63.5 159t-154.5 65t-154 -65t-63 -159q0 -93 63 -158.5t154 -65.5zM296 579q-53 0 -81 35 t-28 99h29q0 -107 80 -107q81 0 81 107h28q0 -64 -28 -99t-81 -35z" glyph-name="obreve" horiz-adv-x="593" unicode="ŏ"/><glyph d="M393 -10q-149 0 -249.5 105t-100.5 255t100.5 255t249.5 105q148 0 249 -105t101 -255t-101 -255t-249 -105zM393 28q132 0 222 94t90 228t-90 228t-222 94t-222 -94t-90 -228t90 -228t222 -94zM433 770l74 133h38l-81 -133h-31zM322 770l73 133h38l-80 -133h-31z" glyph-name="Ohungarumlaut" horiz-adv-x="786" unicode="Ő"/><glyph d="M296 -5q-105 0 -179 76.5t-74 183.5q0 109 74 184.5t179 75.5q106 0 180.5 -75.5t74.5 -184.5q0 -107 -74.5 -183.5t-180.5 -76.5zM296 31q91 0 154.5 65.5t63.5 158.5q0 94 -63.5 159t-154.5 65t-154 -65t-63 -159q0 -93 63 -158.5t154 -65.5zM336 580l74 133h38 l-81 -133h-31zM225 580l73 133h38l-80 -133h-31z" glyph-name="ohungarumlaut" horiz-adv-x="593" unicode="ő"/><glyph d="M392 -10q-148 0 -248.5 105t-100.5 255t100.5 255t248.5 105q109 0 193.5 -61.5t119.5 -161.5v213h415v-37h-377v-290h342v-35h-342v-301h377v-37h-415v213q-35 -100 -119.5 -161.5t-193.5 -61.5zM393 28q132 0 222 94t90 228t-90 228t-222 94t-222 -94t-90 -228t90 -228 t222 -94z" glyph-name="OE" horiz-adv-x="1168" unicode="Œ"/><glyph d="M296 -5q-105 0 -179 76.5t-74 183.5q0 109 74 184.5t179 75.5q81 0 145.5 -46t92.5 -120q28 74 92.5 120t145.5 46q105 0 180 -75t75 -176q0 -13 -1 -20h-473q4 -91 68 -153t153 -62q66 0 119.5 34.5t76.5 89.5h39q-26 -70 -90.5 -114t-145.5 -44t-146.5 46t-92.5 120 q-28 -74 -93 -120t-145 -46zM296 31q91 0 154.5 65.5t63.5 158.5q0 94 -63.5 159t-154.5 65t-154 -65t-63 -159q0 -93 63 -158.5t154 -65.5zM554 277h436q-6 86 -68.5 145t-149.5 59q-86 0 -148 -58.5t-70 -145.5z" glyph-name="oe" horiz-adv-x="1058" unicode="œ"/><glyph d="M83 0v700h234q94 0 154.5 -56t60.5 -152q0 -88 -51.5 -142t-133.5 -63l122 -251h75v-36h-100l-136 284h-187v-284h-38zM313 320q82 0 131.5 46t49.5 126t-49.5 126t-131.5 46h-192v-344h192zM273 770l73 133h38l-80 -133h-31z" glyph-name="Racute" horiz-adv-x="592" unicode="Ŕ"/><glyph d="M72 0v510h37v-102q20 48 60 77.5t94 29.5h34v-37h-34q-65 0 -109.5 -48t-44.5 -116v-314h-37zM168 580l73 133h38l-80 -133h-31z" glyph-name="racute" horiz-adv-x="320" unicode="ŕ"/><glyph d="M83 0v700h234q94 0 154.5 -56t60.5 -152q0 -88 -51.5 -142t-133.5 -63l122 -251h75v-36h-100l-136 284h-187v-284h-38zM313 320q82 0 131.5 46t49.5 126t-49.5 126t-131.5 46h-192v-344h192zM200 -201l63 141h38l-71 -141h-30z" glyph-name="uni0156" horiz-adv-x="592" unicode="Ŗ"/><glyph d="M72 0v510h37v-102q20 48 60 77.5t94 29.5h34v-37h-34q-65 0 -109.5 -48t-44.5 -116v-314h-37zM8 -201l63 141h38l-71 -141h-30z" glyph-name="uni0157" horiz-adv-x="320" unicode="ŗ"/><glyph d="M83 0v700h234q94 0 154.5 -56t60.5 -152q0 -88 -51.5 -142t-133.5 -63l122 -251h75v-36h-100l-136 284h-187v-284h-38zM313 320q82 0 131.5 46t49.5 126t-49.5 126t-131.5 46h-192v-344h192zM266 770l-89 133h37l75 -116l75 116h36l-89 -133h-45z" glyph-name="Rcaron" horiz-adv-x="592" unicode="Ř"/><glyph d="M72 0v510h37v-102q20 48 60 77.5t94 29.5h34v-37h-34q-65 0 -109.5 -48t-44.5 -116v-314h-37zM160 580l-89 133h37l75 -116l75 116h36l-89 -133h-45z" glyph-name="rcaron" horiz-adv-x="320" unicode="ř"/><glyph d="M321 -10q-96 0 -167 46t-93 140h39q22 -76 80.5 -113t140.5 -37q87 0 138 39.5t51 111.5q0 68 -52.5 103.5t-150.5 58.5q-47 11 -81.5 23.5t-71 34.5t-56 55.5t-19.5 77.5q0 81 64 130.5t158 49.5q90 0 154.5 -47.5t82.5 -130.5h-37q-20 65 -71.5 103.5t-128.5 38.5 q-82 0 -133 -40.5t-51 -103.5q0 -65 54.5 -100t148.5 -57q50 -12 85.5 -25t70.5 -35t53.5 -56t18.5 -80q0 -89 -63 -138t-164 -49zM285 770l73 133h38l-80 -133h-31z" glyph-name="Sacute" horiz-adv-x="608" unicode="Ś"/><glyph d="M237 -5q-76 0 -127 36t-64 104h35q12 -52 52 -80t104 -28t101 27.5t37 73.5q0 41 -32.5 67t-78.5 39t-92.5 27.5t-79 44.5t-32.5 77q0 57 43 94.5t119 37.5q73 0 120.5 -36t54.5 -99h-34q-20 103 -139 103q-62 0 -95 -28t-33 -69q0 -39 32.5 -63.5t79 -37.5t93 -28 t79 -46t32.5 -80q0 -62 -48 -99t-127 -37zM210 580l73 133h38l-80 -133h-31z" glyph-name="sacute" horiz-adv-x="458" unicode="ś"/><glyph d="M321 -10q-96 0 -167 46t-93 140h39q22 -76 80.5 -113t140.5 -37q87 0 138 39.5t51 111.5q0 68 -52.5 103.5t-150.5 58.5q-47 11 -81.5 23.5t-71 34.5t-56 55.5t-19.5 77.5q0 81 64 130.5t158 49.5q90 0 154.5 -47.5t82.5 -130.5h-37q-20 65 -71.5 103.5t-128.5 38.5 q-82 0 -133 -40.5t-51 -103.5q0 -65 54.5 -100t148.5 -57q50 -12 85.5 -25t70.5 -35t53.5 -56t18.5 -80q0 -89 -63 -138t-164 -49zM189 770l89 133h45l89 -133h-36l-75 116l-75 -116h-37z" glyph-name="Scircumflex" horiz-adv-x="608" unicode="Ŝ"/><glyph d="M237 -5q-76 0 -127 36t-64 104h35q12 -52 52 -80t104 -28t101 27.5t37 73.5q0 41 -32.5 67t-78.5 39t-92.5 27.5t-79 44.5t-32.5 77q0 57 43 94.5t119 37.5q73 0 120.5 -36t54.5 -99h-34q-20 103 -139 103q-62 0 -95 -28t-33 -69q0 -39 32.5 -63.5t79 -37.5t93 -28 t79 -46t32.5 -80q0 -62 -48 -99t-127 -37zM114 580l89 133h45l89 -133h-36l-75 116l-75 -116h-37z" glyph-name="scircumflex" horiz-adv-x="458" unicode="ŝ"/><glyph d="M320 -177q-33 0 -55.5 17.5t-28.5 45.5h27q10 -39 57 -39q26 0 41 14.5t15 37.5q0 48 -58 48h-24l12 43q-92 4 -158 50t-87 136h39q22 -76 80.5 -113t140.5 -37q87 0 138 39.5t51 111.5q0 68 -52.5 103.5t-150.5 58.5q-47 11 -81.5 23.5t-71 34.5t-56 55.5t-19.5 77.5 q0 81 64 130.5t158 49.5q90 0 154.5 -47.5t82.5 -130.5h-37q-20 65 -71.5 103.5t-128.5 38.5q-82 0 -133 -40.5t-51 -103.5q0 -65 54.5 -100t148.5 -57q50 -12 85.5 -25t70.5 -35t53.5 -56t18.5 -80q0 -87 -60.5 -136t-157.5 -51l-6 -21q34 -1 56 -19t22 -50q0 -33 -22 -55 t-60 -22z" glyph-name="Scedilla" horiz-adv-x="608" unicode="Ş"/><glyph d="M235 -177q-33 0 -55.5 17.5t-28.5 45.5h27q10 -39 57 -39q26 0 41 14.5t15 37.5q0 48 -58 48h-24l14 48q-71 4 -118 39.5t-59 100.5h35q12 -52 52 -80t104 -28t101 27.5t37 73.5q0 41 -32.5 67t-78.5 39t-92.5 27.5t-79 44.5t-32.5 77q0 57 43 94.5t119 37.5 q73 0 120.5 -36t54.5 -99h-34q-20 103 -139 103q-62 0 -95 -28t-33 -69q0 -39 32.5 -63.5t79 -37.5t93 -28t79 -46t32.5 -80q0 -60 -45 -97t-121 -39l-7 -26q34 -1 56 -19t22 -50q0 -33 -22 -55t-60 -22z" glyph-name="scedilla" horiz-adv-x="458" unicode="ş"/><glyph d="M321 -10q-96 0 -167 46t-93 140h39q22 -76 80.5 -113t140.5 -37q87 0 138 39.5t51 111.5q0 68 -52.5 103.5t-150.5 58.5q-47 11 -81.5 23.5t-71 34.5t-56 55.5t-19.5 77.5q0 81 64 130.5t158 49.5q90 0 154.5 -47.5t82.5 -130.5h-37q-20 65 -71.5 103.5t-128.5 38.5 q-82 0 -133 -40.5t-51 -103.5q0 -65 54.5 -100t148.5 -57q50 -12 85.5 -25t70.5 -35t53.5 -56t18.5 -80q0 -89 -63 -138t-164 -49zM278 770l-89 133h37l75 -116l75 116h36l-89 -133h-45z" glyph-name="Scaron" horiz-adv-x="608" unicode="Š"/><glyph d="M237 -5q-76 0 -127 36t-64 104h35q12 -52 52 -80t104 -28t101 27.5t37 73.5q0 41 -32.5 67t-78.5 39t-92.5 27.5t-79 44.5t-32.5 77q0 57 43 94.5t119 37.5q73 0 120.5 -36t54.5 -99h-34q-20 103 -139 103q-62 0 -95 -28t-33 -69q0 -39 32.5 -63.5t79 -37.5t93 -28 t79 -46t32.5 -80q0 -62 -48 -99t-127 -37zM203 580l-89 133h37l75 -116l75 116h36l-89 -133h-45z" glyph-name="scaron" horiz-adv-x="458" unicode="š"/><glyph d="M249 0v664h-230v36h498v-36h-230v-664h-7l-9 -31q34 -1 56 -19t22 -50q0 -33 -22 -55t-60 -22q-33 0 -55.5 17.5t-28.5 45.5h27q10 -39 57 -39q26 0 41 14.5t15 37.5q0 48 -58 48h-24l15 53h-7z" glyph-name="uni0162" horiz-adv-x="536" unicode="Ţ"/><glyph d="M152 0v475h-128v35h128v165h37v-165h134v-35h-134v-475h-6l-9 -31q34 -1 56 -19t22 -50q0 -33 -22 -55t-60 -22q-33 0 -55.5 17.5t-28.5 45.5h27q10 -39 57 -39q26 0 41 14.5t15 37.5q0 48 -58 48h-24l15 53h-7z" glyph-name="uni0163" horiz-adv-x="346" unicode="ţ"/><glyph d="M249 0v664h-230v36h498v-36h-230v-664h-38zM245 770l-89 133h37l75 -116l75 116h36l-89 -133h-45z" glyph-name="Tcaron" horiz-adv-x="536" unicode="Ť"/><glyph d="M152 0v475h-128v35h128v165h37v-165h134v-35h-134v-475h-37zM273 620l17 180h33l-26 -180h-24z" glyph-name="tcaron" horiz-adv-x="312" unicode="ť"/><glyph d="M249 0v325h-146v31h146v308h-230v36h498v-36h-230v-308h145v-31h-145v-325h-38z" glyph-name="Tbar" horiz-adv-x="536" unicode="Ŧ"/><glyph d="M152 0v228h-120v30h120v217h-128v35h128v165h37v-165h134v-35h-134v-217h126v-30h-126v-228h-37z" glyph-name="tbar" horiz-adv-x="346" unicode="ŧ"/><glyph d="M325 -10q-102 0 -177.5 66.5t-75.5 181.5v462h39v-461q0 -100 64.5 -155.5t149.5 -55.5q86 0 151 55.5t65 155.5v461h38v-462q0 -114 -76 -181t-178 -67zM215 795q4 100 61 100q22 0 38.5 -17.5t30.5 -35t31 -17.5q33 0 37 70h25q-4 -100 -61 -100q-22 0 -38.5 17.5 t-30.5 35t-31 17.5q-32 0 -36 -70h-26z" glyph-name="Utilde" horiz-adv-x="651" unicode="Ũ"/><glyph d="M261 -5q-86 0 -142 59t-56 182v274h36v-271q0 -110 48.5 -160t121.5 -50q78 0 126.5 53.5t48.5 156.5v271h36v-510h-36v119q-23 -61 -71 -92.5t-112 -31.5zM159 605q4 100 61 100q22 0 38.5 -17.5t30.5 -35t31 -17.5q33 0 37 70h25q-4 -100 -61 -100q-22 0 -38.5 17.5 t-30.5 35t-31 17.5q-32 0 -36 -70h-26z" glyph-name="utilde" unicode="ũ"/><glyph d="M325 -10q-102 0 -177.5 66.5t-75.5 181.5v462h39v-461q0 -100 64.5 -155.5t149.5 -55.5q86 0 151 55.5t65 155.5v461h38v-462q0 -114 -76 -181t-178 -67zM214 823v29h225v-29h-225z" glyph-name="Umacron" horiz-adv-x="651" unicode="Ū"/><glyph d="M261 -5q-86 0 -142 59t-56 182v274h36v-271q0 -110 48.5 -160t121.5 -50q78 0 126.5 53.5t48.5 156.5v271h36v-510h-36v119q-23 -61 -71 -92.5t-112 -31.5zM158 633v29h225v-29h-225z" glyph-name="umacron" unicode="ū"/><glyph d="M325 -10q-102 0 -177.5 66.5t-75.5 181.5v462h39v-461q0 -100 64.5 -155.5t149.5 -55.5q86 0 151 55.5t65 155.5v461h38v-462q0 -114 -76 -181t-178 -67zM326 769q-53 0 -81 35t-28 99h29q0 -107 80 -107q81 0 81 107h28q0 -64 -28 -99t-81 -35z" glyph-name="Ubreve" horiz-adv-x="651" unicode="Ŭ"/><glyph d="M261 -5q-86 0 -142 59t-56 182v274h36v-271q0 -110 48.5 -160t121.5 -50q78 0 126.5 53.5t48.5 156.5v271h36v-510h-36v119q-23 -61 -71 -92.5t-112 -31.5zM271 579q-53 0 -81 35t-28 99h29q0 -107 80 -107q81 0 81 107h28q0 -64 -28 -99t-81 -35z" glyph-name="ubreve" unicode="ŭ"/><glyph d="M325 -10q-102 0 -177.5 66.5t-75.5 181.5v462h39v-461q0 -100 64.5 -155.5t149.5 -55.5q86 0 151 55.5t65 155.5v461h38v-462q0 -114 -76 -181t-178 -67zM327 760q-38 0 -63 25.5t-25 61.5t25 61t63 25q37 0 62 -25t25 -61t-25 -61.5t-62 -25.5zM327 782q28 0 46 18.5 t18 46.5q0 27 -18 45.5t-46 18.5q-29 0 -47 -18.5t-18 -45.5q0 -28 18 -46.5t47 -18.5z" glyph-name="Uring" horiz-adv-x="651" unicode="Ů"/><glyph d="M261 -5q-86 0 -142 59t-56 182v274h36v-271q0 -110 48.5 -160t121.5 -50q78 0 126.5 53.5t48.5 156.5v271h36v-510h-36v119q-23 -61 -71 -92.5t-112 -31.5zM271 570q-38 0 -63 25.5t-25 61.5t25 61t63 25q37 0 62 -25t25 -61t-25 -61.5t-62 -25.5zM271 592q28 0 46 18.5 t18 46.5q0 27 -18 45.5t-46 18.5q-29 0 -47 -18.5t-18 -45.5q0 -28 18 -46.5t47 -18.5z" glyph-name="uring" unicode="ů"/><glyph d="M325 -10q-102 0 -177.5 66.5t-75.5 181.5v462h39v-461q0 -100 64.5 -155.5t149.5 -55.5q86 0 151 55.5t65 155.5v461h38v-462q0 -114 -76 -181t-178 -67zM366 770l74 133h38l-81 -133h-31zM255 770l73 133h38l-80 -133h-31z" glyph-name="Uhungarumlaut" horiz-adv-x="651" unicode="Ű"/><glyph d="M261 -5q-86 0 -142 59t-56 182v274h36v-271q0 -110 48.5 -160t121.5 -50q78 0 126.5 53.5t48.5 156.5v271h36v-510h-36v119q-23 -61 -71 -92.5t-112 -31.5zM311 580l74 133h38l-81 -133h-31zM200 580l73 133h38l-80 -133h-31z" glyph-name="uhungarumlaut" unicode="ű"/><glyph d="M325 -10q-102 0 -177.5 66.5t-75.5 181.5v462h39v-461q0 -100 64.5 -155.5t149.5 -55.5q86 0 151 55.5t65 155.5v461h38v-462q0 -93 -51.5 -155t-130.5 -83q-87 -38 -87 -89q0 -42 52 -42q18 0 36 6v-27q-23 -5 -40 -5q-35 0 -55.5 17t-20.5 46q0 48 61 85q-6 -1 -18 -1z " glyph-name="Uogonek" horiz-adv-x="651" unicode="Ų"/><glyph d="M261 -5q-86 0 -142 59t-56 182v274h36v-271q0 -110 48.5 -160t121.5 -50q78 0 126.5 53.5t48.5 156.5v271h36v-508l1 -2q-88 -38 -88 -89q0 -42 52 -42q18 0 36 6v-27q-23 -5 -40 -5q-35 0 -55.5 17t-20.5 46q0 56 79 94v119q-23 -61 -71 -92.5t-112 -31.5z" glyph-name="uogonek" unicode="ų"/><glyph d="M243 -11l-229 711h41l190 -605l189 616h2l188 -616l190 605h41l-229 -711h-2l-189 615l-190 -615h-2zM323 770l89 133h45l89 -133h-36l-75 116l-75 -116h-37z" glyph-name="Wcircumflex" horiz-adv-x="868" unicode="Ŵ"/><glyph d="M201 -11l-192 521h39l156 -430l142 439h2l143 -439l155 430h40l-192 -521h-2l-145 437l-144 -437h-2zM236 580l89 133h45l89 -133h-36l-75 116l-75 -116h-37z" glyph-name="wcircumflex" horiz-adv-x="695" unicode="ŵ"/><glyph d="M253 0v290l-244 410h42l221 -372l221 372h42l-244 -409v-291h-38zM162 770l89 133h45l89 -133h-36l-75 116l-75 -116h-37z" glyph-name="Ycircumflex" horiz-adv-x="544" unicode="Ŷ"/><glyph d="M142 -250l100 240l-228 520h38l209 -475l197 475h40l-317 -760h-39zM144 580l89 133h45l89 -133h-36l-75 116l-75 -116h-37z" glyph-name="ycircumflex" horiz-adv-x="511" unicode="ŷ"/><glyph d="M253 0v290l-244 410h42l221 -372l221 372h42l-244 -409v-291h-38zM347 814q-13 0 -22 9t-9 22t9 22.5t22 9.5t22 -9.5t9 -22.5t-9 -22t-22 -9zM200 814q-13 0 -22.5 9t-9.5 22t9 22.5t23 9.5q12 0 21 -9.5t9 -22.5t-9 -22t-21 -9z" glyph-name="Ydieresis" horiz-adv-x="544" unicode="Ÿ"/><glyph d="M44 0l455 664h-424v36h489l-454 -664h444v-36h-510zM304 770l73 133h38l-80 -133h-31z" glyph-name="Zacute" horiz-adv-x="597" unicode="Ź"/><glyph d="M39 0l347 476h-322v34h390l-348 -476h338v-34h-405zM244 580l73 133h38l-80 -133h-31z" glyph-name="zacute" horiz-adv-x="488" unicode="ź"/><glyph d="M44 0l455 664h-424v36h489l-454 -664h444v-36h-510zM320 813q-14 0 -23.5 9.5t-9.5 22.5q0 14 9.5 23.5t23.5 9.5q13 0 22.5 -9.5t9.5 -23.5q0 -13 -9 -22.5t-23 -9.5z" glyph-name="Zdotaccent" horiz-adv-x="597" unicode="Ż"/><glyph d="M39 0l347 476h-322v34h390l-348 -476h338v-34h-405zM260 623q-14 0 -23.5 9.5t-9.5 22.5q0 14 9.5 23.5t23.5 9.5q13 0 22.5 -9.5t9.5 -23.5q0 -13 -9 -22.5t-23 -9.5z" glyph-name="zdotaccent" horiz-adv-x="488" unicode="ż"/><glyph d="M44 0l455 664h-424v36h489l-454 -664h444v-36h-510zM297 770l-89 133h37l75 -116l75 116h36l-89 -133h-45z" glyph-name="Zcaron" horiz-adv-x="597" unicode="Ž"/><glyph d="M39 0l347 476h-322v34h390l-348 -476h338v-34h-405zM237 580l-89 133h37l75 -116l75 116h36l-89 -133h-45z" glyph-name="zcaron" horiz-adv-x="488" unicode="ž"/><glyph d="M392 -10q-148 0 -248.5 104t-100.5 255v13h660q-4 130 -93 220.5t-218 90.5q-100 0 -178 -56.5t-112 -148.5h-41q35 107 125 174.5t206 67.5q149 0 250 -105t101 -255t-101 -255t-250 -105zM392 27q126 0 215 87.5t96 214.5h-621q6 -128 95.5 -215t214.5 -87z" glyph-name="uni018F" horiz-adv-x="785" unicode="Ə"/><glyph d="M-77 -250v34h157l83 596h-128v35h133l40 285h191v-34h-159l-35 -251h154v-35h-159l-87 -630h-190z" glyph-name="florin" horiz-adv-x="408" unicode="ƒ"/><glyph d="M-17 -250v36h99v925h2l479 -624v613h37v-711h-2l-479 625v-864h-136z" glyph-name="uni019D" horiz-adv-x="683" unicode="Ɲ"/><glyph d="M393 -10q-149 0 -249.5 105t-100.5 255q0 151 100.5 255.5t250.5 104.5q45 0 84 -10h139q59 0 59 54q0 34 -22 67h33q19 -32 19 -69q0 -78 -87 -78h-72q89 -44 142.5 -131t53.5 -193q0 -150 -101 -255t-249 -105zM393 28q132 0 222 94t90 228t-90 228t-222 94t-222 -94 t-90 -228t90 -228t222 -94z" glyph-name="Ohorn" horiz-adv-x="786" unicode="Ơ"/><glyph d="M296 -5q-105 0 -179 76.5t-74 184.5t74 183.5t178 75.5q25 0 52 -5h105q59 0 59 54q0 34 -22 67h33q19 -36 19 -68q0 -39 -22.5 -58.5t-60.5 -19.5h-44q63 -33 100 -94t37 -136q0 -107 -74.5 -183.5t-180.5 -76.5zM296 31q91 0 154.5 65.5t63.5 158.5q0 94 -63.5 159 t-154.5 65t-154 -65t-63 -159q0 -93 63 -158.5t154 -65.5z" glyph-name="ohorn" horiz-adv-x="593" unicode="ơ"/><glyph d="M325 -10q-102 0 -177.5 66.5t-75.5 181.5v462h39v-461q0 -100 64.5 -155.5t149.5 -55.5q86 0 151 55.5t65 155.5v461h32q59 0 59 54q0 33 -21 67h32q19 -32 19 -68q0 -77 -83 -79v-436q0 -114 -76 -181t-178 -67z" glyph-name="Uhorn" horiz-adv-x="670" unicode="Ư"/><glyph d="M261 -5q-86 0 -142 59t-56 182v274h36v-271q0 -110 48.5 -160t121.5 -50q78 0 126.5 53.5t48.5 156.5v271h31q59 0 59 54q0 33 -21 67h32q19 -32 19 -68q0 -77 -84 -79v-484h-36v119q-23 -61 -71 -92.5t-112 -31.5z" glyph-name="uhorn" horiz-adv-x="579" unicode="ư"/><glyph d="M12 0l304 711h2l305 -711h-43l-68 163h-389l-68 -163h-43zM138 198h359l-180 429zM294 770l-89 133h37l75 -116l75 116h36l-89 -133h-45z" glyph-name="uni01CD" horiz-adv-x="635" unicode="Ǎ"/><glyph d="M285 -5q-103 0 -172.5 75.5t-69.5 184.5t69.5 184.5t172.5 75.5q74 0 131 -41t85 -109v145h37v-510h-37v144q-28 -67 -85 -108t-131 -41zM290 29q90 0 150.5 65.5t60.5 160.5t-60.5 160.5t-150.5 65.5t-150.5 -65.5t-60.5 -160.5t60.5 -160.5t150.5 -65.5zM277 580 l-89 133h37l75 -116l75 116h36l-89 -133h-45z" glyph-name="uni01CE" horiz-adv-x="610" unicode="ǎ"/><glyph d="M83 0v700h38v-700h-38zM78 770l-89 133h37l75 -116l75 116h36l-89 -133h-45z" glyph-name="uni01CF" horiz-adv-x="204" unicode="Ǐ"/><glyph d="M72 0v510h37v-510h-37zM68 580l-89 133h37l75 -116l75 116h36l-89 -133h-45z" glyph-name="uni01D0" horiz-adv-x="180" unicode="ǐ"/><glyph d="M393 -10q-149 0 -249.5 105t-100.5 255t100.5 255t249.5 105q148 0 249 -105t101 -255t-101 -255t-249 -105zM393 28q132 0 222 94t90 228t-90 228t-222 94t-222 -94t-90 -228t90 -228t222 -94zM370 770l-89 133h37l75 -116l75 116h36l-89 -133h-45z" glyph-name="uni01D1" horiz-adv-x="786" unicode="Ǒ"/><glyph d="M296 -5q-105 0 -179 76.5t-74 183.5q0 109 74 184.5t179 75.5q106 0 180.5 -75.5t74.5 -184.5q0 -107 -74.5 -183.5t-180.5 -76.5zM296 31q91 0 154.5 65.5t63.5 158.5q0 94 -63.5 159t-154.5 65t-154 -65t-63 -159q0 -93 63 -158.5t154 -65.5zM273 580l-89 133h37 l75 -116l75 116h36l-89 -133h-45z" glyph-name="uni01D2" horiz-adv-x="593" unicode="ǒ"/><glyph d="M325 -10q-102 0 -177.5 66.5t-75.5 181.5v462h39v-461q0 -100 64.5 -155.5t149.5 -55.5q86 0 151 55.5t65 155.5v461h38v-462q0 -114 -76 -181t-178 -67zM304 770l-89 133h37l75 -116l75 116h36l-89 -133h-45z" glyph-name="uni01D3" horiz-adv-x="651" unicode="Ǔ"/><glyph d="M261 -5q-86 0 -142 59t-56 182v274h36v-271q0 -110 48.5 -160t121.5 -50q78 0 126.5 53.5t48.5 156.5v271h36v-510h-36v119q-23 -61 -71 -92.5t-112 -31.5zM248 580l-89 133h37l75 -116l75 116h36l-89 -133h-45z" glyph-name="uni01D4" unicode="ǔ"/><glyph d="M325 -10q-102 0 -177.5 66.5t-75.5 181.5v462h39v-461q0 -100 64.5 -155.5t149.5 -55.5q86 0 151 55.5t65 155.5v461h38v-462q0 -114 -76 -181t-178 -67zM400 765q-13 0 -22 9t-9 22t9 22.5t22 9.5t22 -9.5t9 -22.5t-9 -22t-22 -9zM253 765q-13 0 -22.5 9t-9.5 22 q0 14 9.5 23t22.5 9q12 0 21 -9.5t9 -22.5t-9 -22t-21 -9zM212 907v29h225v-29h-225z" glyph-name="uni01D5" horiz-adv-x="651" unicode="Ǖ"/><glyph d="M261 -5q-86 0 -142 59t-56 182v274h36v-271q0 -110 48.5 -160t121.5 -50q78 0 126.5 53.5t48.5 156.5v271h36v-510h-36v119q-23 -61 -71 -92.5t-112 -31.5zM344 584q-13 0 -22 9t-9 22t9 22.5t22 9.5t22 -9.5t9 -22.5t-9 -22t-22 -9zM197 584q-13 0 -22.5 9t-9.5 22 t9.5 22.5t22.5 9.5q12 0 21 -9.5t9 -22.5t-9 -22t-21 -9zM158 729v29h225v-29h-225z" glyph-name="uni01D6" unicode="ǖ"/><glyph d="M325 -10q-102 0 -177.5 66.5t-75.5 181.5v462h39v-461q0 -100 64.5 -155.5t149.5 -55.5q86 0 151 55.5t65 155.5v461h38v-462q0 -114 -76 -181t-178 -67zM400 765q-13 0 -22 9t-9 22t9 22.5t22 9.5t22 -9.5t9 -22.5t-9 -22t-22 -9zM253 765q-13 0 -22.5 9t-9.5 22 q0 14 9.5 23t22.5 9q12 0 21 -9.5t9 -22.5t-9 -22t-21 -9zM310 854l73 133h38l-80 -133h-31z" glyph-name="uni01D7" horiz-adv-x="651" unicode="Ǘ"/><glyph d="M261 -5q-86 0 -142 59t-56 182v274h36v-271q0 -110 48.5 -160t121.5 -50q78 0 126.5 53.5t48.5 156.5v271h36v-510h-36v119q-23 -61 -71 -92.5t-112 -31.5zM344 584q-13 0 -22 9t-9 22t9 22.5t22 9.5t22 -9.5t9 -22.5t-9 -22t-22 -9zM197 584q-13 0 -22.5 9t-9.5 22 t9.5 22.5t22.5 9.5q12 0 21 -9.5t9 -22.5t-9 -22t-21 -9zM255 677l73 133h38l-80 -133h-31z" glyph-name="uni01D8" unicode="ǘ"/><glyph d="M325 -10q-102 0 -177.5 66.5t-75.5 181.5v462h39v-461q0 -100 64.5 -155.5t149.5 -55.5q86 0 151 55.5t65 155.5v461h38v-462q0 -114 -76 -181t-178 -67zM400 765q-13 0 -22 9t-9 22t9 22.5t22 9.5t22 -9.5t9 -22.5t-9 -22t-22 -9zM253 765q-13 0 -22.5 9t-9.5 22 q0 14 9.5 23t22.5 9q12 0 21 -9.5t9 -22.5t-9 -22t-21 -9zM303 854l-89 133h37l75 -116l75 116h36l-89 -133h-45z" glyph-name="uni01D9" horiz-adv-x="651" unicode="Ǚ"/><glyph d="M261 -5q-86 0 -142 59t-56 182v274h36v-271q0 -110 48.5 -160t121.5 -50q78 0 126.5 53.5t48.5 156.5v271h36v-510h-36v119q-23 -61 -71 -92.5t-112 -31.5zM344 584q-13 0 -22 9t-9 22t9 22.5t22 9.5t22 -9.5t9 -22.5t-9 -22t-22 -9zM197 584q-13 0 -22.5 9t-9.5 22 t9.5 22.5t22.5 9.5q12 0 21 -9.5t9 -22.5t-9 -22t-21 -9zM247 677l-89 133h37l75 -116l75 116h36l-89 -133h-45z" glyph-name="uni01DA" unicode="ǚ"/><glyph d="M325 -10q-102 0 -177.5 66.5t-75.5 181.5v462h39v-461q0 -100 64.5 -155.5t149.5 -55.5q86 0 151 55.5t65 155.5v461h38v-462q0 -114 -76 -181t-178 -67zM400 765q-13 0 -22 9t-9 22t9 22.5t22 9.5t22 -9.5t9 -22.5t-9 -22t-22 -9zM253 765q-13 0 -22.5 9t-9.5 22 q0 14 9.5 23t22.5 9q12 0 21 -9.5t9 -22.5t-9 -22t-21 -9zM310 854l-81 133h38l73 -133h-30z" glyph-name="uni01DB" horiz-adv-x="651" unicode="Ǜ"/><glyph d="M261 -5q-86 0 -142 59t-56 182v274h36v-271q0 -110 48.5 -160t121.5 -50q78 0 126.5 53.5t48.5 156.5v271h36v-510h-36v119q-23 -61 -71 -92.5t-112 -31.5zM344 584q-13 0 -22 9t-9 22t9 22.5t22 9.5t22 -9.5t9 -22.5t-9 -22t-22 -9zM197 584q-13 0 -22.5 9t-9.5 22 t9.5 22.5t22.5 9.5q12 0 21 -9.5t9 -22.5t-9 -22t-21 -9zM256 677l-81 133h38l73 -133h-30z" glyph-name="uni01DC" unicode="ǜ"/><glyph d="M393 -10q-149 0 -249.5 105t-100.5 255q0 151 101 255.5t251 104.5q114 0 203.5 -62.5t122.5 -161.5h-40q-32 83 -110 135t-175 52q-134 0 -224.5 -94t-90.5 -229t90 -229t223 -94q105 0 187 64t112 195h-280v35h327q-25 -165 -122 -248t-225 -83zM370 770l-89 133h37 l75 -116l75 116h36l-89 -133h-45z" glyph-name="Gcaron" horiz-adv-x="775" unicode="Ǧ"/><glyph d="M173 -250v34h328v360q-28 -67 -85 -108t-131 -41q-103 0 -172.5 75.5t-69.5 184.5t69.5 184.5t172.5 75.5q74 0 131 -41t85 -109v145h37v-760h-365zM290 29q90 0 150.5 65.5t60.5 160.5t-60.5 160.5t-150.5 65.5t-150.5 -65.5t-60.5 -160.5t60.5 -160.5t150.5 -65.5z M273 580l-89 133h37l75 -116l75 116h36l-89 -133h-45z" glyph-name="gcaron" horiz-adv-x="610" unicode="ǧ"/><glyph d="M393 -10q-149 0 -249.5 105t-100.5 255t100.5 255t249.5 105q148 0 249 -105t101 -255q0 -126 -73.5 -223.5t-190.5 -126.5q-88 -38 -88 -89q0 -42 52 -42q18 0 36 6v-27q-23 -5 -40 -5q-35 0 -55.5 17t-20.5 46q0 50 63 85q-11 -1 -33 -1zM393 28q132 0 222 94t90 228 t-90 228t-222 94t-222 -94t-90 -228t90 -228t222 -94z" glyph-name="uni01EA" horiz-adv-x="786" unicode="Ǫ"/><glyph d="M296 -5q-105 0 -179 76.5t-74 183.5q0 109 74 184.5t179 75.5q106 0 180.5 -75.5t74.5 -184.5q0 -93 -58 -165t-146 -90q-88 -38 -88 -89q0 -42 52 -42q18 0 36 6v-27q-23 -5 -40 -5q-35 0 -55.5 17t-20.5 46q0 52 69 89h-4zM296 31q91 0 154.5 65.5t63.5 158.5 q0 94 -63.5 159t-154.5 65t-154 -65t-63 -159q0 -93 63 -158.5t154 -65.5z" glyph-name="uni01EB" horiz-adv-x="593" unicode="ǫ"/><glyph d="M12 0l299 700q-34 2 -55 24.5t-21 55.5t20.5 55t53.5 25l49 93h38l-59 -95q28 -6 45 -27t17 -51q0 -33 -21 -55.5t-55 -24.5l300 -700h-43l-68 163h-389l-68 -163h-43zM138 198h359l-180 429zM317 720q24 0 41.5 18t17.5 42t-17 41.5t-42 17.5t-42 -17.5t-17 -41.5 q0 -25 17 -42.5t42 -17.5z" glyph-name="Aringacute" horiz-adv-x="635" unicode="Ǻ"/><glyph d="M285 -5q-103 0 -172.5 75.5t-69.5 184.5t69.5 184.5t172.5 75.5q74 0 131 -41t85 -109v145h37v-510h-37v144q-28 -67 -85 -108t-131 -41zM290 29q90 0 150.5 65.5t60.5 160.5t-60.5 160.5t-150.5 65.5t-150.5 -65.5t-60.5 -160.5t60.5 -160.5t150.5 -65.5zM300 547 q-36 0 -59 22.5t-23 57.5q0 33 20.5 55t53.5 25l49 93h38l-59 -95q28 -6 45 -27t17 -51q0 -35 -23 -57.5t-59 -22.5zM300 568q25 0 42 17.5t17 41.5t-17 41.5t-42 17.5t-42 -17.5t-17 -41.5q0 -25 17 -42t42 -17z" glyph-name="aringacute" horiz-adv-x="610" unicode="ǻ"/><glyph d="M13 0l290 700h520v-37h-483l125 -290h323v-35h-309l128 -301h216v-37h-242l-69 163h-391l-66 -163h-42zM136 198h361l-184 434zM420 770l73 133h38l-80 -133h-31z" glyph-name="AEacute" horiz-adv-x="869" unicode="Ǽ"/><glyph d="M286 -5q-104 0 -173.5 75.5t-69.5 184.5t69.5 184.5t173.5 75.5q73 0 130 -41t85 -109v145h35v-145q28 67 88.5 108.5t135.5 41.5q104 0 178.5 -75t74.5 -176v-20h-473q3 -90 66.5 -152.5t153.5 -62.5q66 0 120 34.5t76 89.5h39q-26 -70 -90 -114t-145 -44 q-76 0 -136 41.5t-88 109.5v-146h-35v145q-28 -68 -85 -109t-130 -41zM290 29q90 0 150.5 65.5t60.5 160.5t-60.5 160.5t-150.5 65.5t-150.5 -65.5t-60.5 -160.5t60.5 -160.5t150.5 -65.5zM976 277q-5 86 -68 145t-150 59q-86 0 -148 -58.5t-69 -145.5h435zM504 580l73 133 h38l-80 -133h-31z" glyph-name="aeacute" horiz-adv-x="1056" unicode="ǽ"/><glyph d="M225 33q-83 45 -132.5 130t-49.5 187q0 150 100.5 255t249.5 105q73 0 138 -28l33 68h36l-39 -83q83 -45 132.5 -130t49.5 -187q0 -150 -101 -255t-249 -105q-74 0 -139 28l-32 -68h-36zM516 647q-59 25 -123 25q-132 0 -222 -94t-90 -228q0 -90 43.5 -165.5 t117.5 -116.5zM393 28q132 0 222 94t90 228q0 90 -43.5 165.5t-117.5 117.5l-273 -580q58 -25 122 -25zM378 770l73 133h38l-80 -133h-31z" glyph-name="Oslashacute" horiz-adv-x="786" unicode="Ǿ"/><glyph d="M171 29q-59 34 -93.5 94t-34.5 132q0 109 74 184.5t179 75.5q52 0 98 -20l28 60h36l-36 -74q59 -33 94 -93t35 -133q0 -107 -74.5 -183.5t-180.5 -76.5q-50 0 -96 20l-28 -60h-36zM378 462q-39 17 -82 17q-91 0 -154 -65t-63 -159q0 -61 29.5 -112.5t78.5 -81.5zM296 31 q91 0 154.5 65.5t63.5 158.5q0 62 -29 113t-79 80l-191 -401q40 -16 81 -16zM281 580l73 133h38l-80 -133h-31z" glyph-name="oslashacute" horiz-adv-x="594" unicode="ǿ"/><glyph d="M321 -10q-96 0 -167 46t-93 140h39q22 -76 80.5 -113t140.5 -37q87 0 138 39.5t51 111.5q0 68 -52.5 103.5t-150.5 58.5q-47 11 -81.5 23.5t-71 34.5t-56 55.5t-19.5 77.5q0 81 64 130.5t158 49.5q90 0 154.5 -47.5t82.5 -130.5h-37q-20 65 -71.5 103.5t-128.5 38.5 q-82 0 -133 -40.5t-51 -103.5q0 -65 54.5 -100t148.5 -57q50 -12 85.5 -25t70.5 -35t53.5 -56t18.5 -80q0 -89 -63 -138t-164 -49zM239 -201l63 141h38l-71 -141h-30z" glyph-name="uni0218" horiz-adv-x="608" unicode="Ș"/><glyph d="M237 -5q-76 0 -127 36t-64 104h35q12 -52 52 -80t104 -28t101 27.5t37 73.5q0 41 -32.5 67t-78.5 39t-92.5 27.5t-79 44.5t-32.5 77q0 57 43 94.5t119 37.5q73 0 120.5 -36t54.5 -99h-34q-20 103 -139 103q-62 0 -95 -28t-33 -69q0 -39 32.5 -63.5t79 -37.5t93 -28 t79 -46t32.5 -80q0 -62 -48 -99t-127 -37zM153 -201l63 141h38l-71 -141h-30z" glyph-name="uni0219" horiz-adv-x="458" unicode="ș"/><glyph d="M249 0v664h-230v36h498v-36h-230v-664h-38zM186 -201l63 141h38l-71 -141h-30z" glyph-name="uni021A" horiz-adv-x="536" unicode="Ț"/><glyph d="M152 0v475h-128v35h128v165h37v-165h134v-35h-134v-475h-37zM88 -201l63 141h38l-71 -141h-30z" glyph-name="uni021B" horiz-adv-x="346" unicode="ț"/><glyph d="M83 0v700h415v-37h-377v-290h342v-35h-342v-301h377v-37h-192l-9 -31q34 -1 56 -19t22 -50q0 -33 -22 -55t-60 -22q-33 0 -55.5 17.5t-28.5 45.5h27q10 -39 57 -39q26 0 41 14.5t15 37.5q0 48 -58 48h-24l15 53h-199z" glyph-name="uni0228" horiz-adv-x="546" unicode="Ȩ"/><glyph d="M292 -177q-33 0 -55.5 17.5t-28.5 45.5h27q10 -39 57 -39q26 0 41 14.5t15 37.5q0 48 -58 48h-24l14 49q-101 8 -169 82t-68 177q0 108 74.5 184t180.5 76q105 0 180 -75t75 -176q0 -13 -1 -20h-473q4 -91 68 -153t153 -62q66 0 119.5 34.5t76.5 89.5h39 q-26 -69 -89 -113t-143 -45l-7 -26q34 -1 56 -19t22 -50q0 -33 -22 -55t-60 -22zM80 277h436q-6 86 -68.5 145t-149.5 59q-86 0 -148 -58.5t-70 -145.5z" glyph-name="uni0229" horiz-adv-x="596" unicode="ȩ"/><glyph d="M253 0v290l-244 410h42l221 -372l221 372h42l-244 -409v-291h-38zM161 823v29h225v-29h-225z" glyph-name="uni0232" horiz-adv-x="544" unicode="Ȳ"/><glyph d="M142 -250l100 240l-228 520h38l209 -475l197 475h40l-317 -760h-39zM143 633v29h225v-29h-225z" glyph-name="uni0233" horiz-adv-x="511" unicode="ȳ"/><glyph d="M-21 -250v34h97v726h37v-760h-134z" glyph-name="uni0237" horiz-adv-x="185" unicode="ȷ"/><glyph d="M364 -10q-102 0 -178 66.5t-76 181.5v143h-88v31h88v288h39v-288h430v288h38v-288h89v-31h-89v-143q0 -114 -76 -181t-177 -67zM364 28q85 0 150 55.5t65 155.5v142h-430v-142q0 -101 64.5 -156t150.5 -55z" glyph-name="uni0244" horiz-adv-x="728" unicode="Ʉ"/><glyph d="M298 -5q-105 0 -180 75t-75 176q0 13 1 20h473q-4 91 -68 153t-153 62q-66 0 -120 -34.5t-76 -89.5h-39q26 70 90.5 114t145.5 44q107 0 181.5 -76t74.5 -184t-74.5 -184t-180.5 -76zM80 233q5 -86 68 -145t150 -59q85 0 147.5 58.5t70.5 145.5h-436z" glyph-name="uni0259" horiz-adv-x="596" unicode="ə"/><glyph d="M-21 -250v34h97v726h37v-119q22 60 70 92t112 32q87 0 143 -59t56 -182v-274h-37v271q0 110 -48 160t-122 50q-78 0 -126 -53.5t-48 -156.5v-521h-134z" glyph-name="uni0272" horiz-adv-x="556" unicode="ɲ"/><glyph d="M307 -5q-86 0 -142 59t-56 182v38h-87v30h87v206h37v-206h344v206h37v-206h86v-30h-86v-274h-37v119q-22 -60 -70.5 -92t-112.5 -32zM315 29q78 0 126.5 53.5t48.5 155.5v36h-344v-36q0 -109 48 -159t121 -50z" glyph-name="uni0289" horiz-adv-x="635" unicode="ʉ"/><glyph d="M40 513l39 187h37l-46 -187h-30z" glyph-name="uni02BC" horiz-adv-x="146" unicode="ʼ"/><glyph d="M30 580l89 133h45l89 -133h-36l-75 116l-75 -116h-37z" glyph-name="circumflex" horiz-adv-x="283" unicode="ˆ"/><glyph d="M119 580l-89 133h37l75 -116l75 116h36l-89 -133h-45z" glyph-name="caron" horiz-adv-x="283" unicode="ˇ"/><glyph d="M139 579q-53 0 -81 35t-28 99h29q0 -107 80 -107q81 0 81 107h28q0 -64 -28 -99t-81 -35z" glyph-name="breve" horiz-adv-x="278" unicode="˘"/><glyph d="M63 623q-14 0 -23.5 9.5t-9.5 22.5q0 14 9.5 23.5t23.5 9.5q13 0 22.5 -9.5t9.5 -23.5q0 -13 -9.5 -22.5t-22.5 -9.5z" glyph-name="dotaccent" horiz-adv-x="125" unicode="˙"/><glyph d="M118 570q-38 0 -63 25.5t-25 61.5t25 61t63 25q37 0 62 -25t25 -61t-25 -61.5t-62 -25.5zM118 592q28 0 46 18.5t18 46.5q0 27 -18 45.5t-46 18.5q-29 0 -47 -18.5t-18 -45.5q0 -28 18 -46.5t47 -18.5z" glyph-name="ring" horiz-adv-x="235" unicode="˚"/><glyph d="M106 -157q-35 0 -55.5 17t-20.5 46q0 64 108 107l8 -13q-88 -38 -88 -89q0 -42 52 -42q18 0 36 6v-27q-23 -5 -40 -5z" glyph-name="ogonek" horiz-adv-x="175" unicode="˛"/><glyph d="M30 605q4 100 61 100q22 0 38.5 -17.5t30.5 -35t31 -17.5q33 0 37 70h25q-4 -100 -61 -100q-22 0 -38.5 17.5t-30.5 35t-31 17.5q-32 0 -36 -70h-26z" glyph-name="tilde" horiz-adv-x="283" unicode="˜"/><glyph d="M141 580l74 133h38l-81 -133h-31zM30 580l73 133h38l-80 -133h-31z" glyph-name="hungarumlaut" horiz-adv-x="283" unicode="˝"/><glyph d="M111 580l-81 133h38l73 -133h-30z" glyph-name="gravecomb" horiz-adv-x="0" unicode="̀"/><glyph d="M30 580l73 133h38l-80 -133h-31z" glyph-name="acutecomb" horiz-adv-x="0" unicode="́"/><glyph d="M30 580l89 133h45l89 -133h-36l-75 116l-75 -116h-37z" glyph-name="uni0302" horiz-adv-x="0" unicode="̂"/><glyph d="M30 605q4 100 61 100q22 0 38.5 -17.5t30.5 -35t31 -17.5q33 0 37 70h25q-4 -100 -61 -100q-22 0 -38.5 17.5t-30.5 35t-31 17.5q-32 0 -36 -70h-26z" glyph-name="tildecomb" horiz-adv-x="0" unicode="̃"/><glyph d="M30 633v29h225v-29h-225z" glyph-name="uni0304" horiz-adv-x="0" unicode="̄"/><glyph d="M139 579q-53 0 -81 35t-28 99h29q0 -107 80 -107q81 0 81 107h28q0 -64 -28 -99t-81 -35z" glyph-name="uni0306" horiz-adv-x="0" unicode="̆"/><glyph d="M63 623q-14 0 -23.5 9.5t-9.5 22.5q0 14 9.5 23.5t23.5 9.5q13 0 22.5 -9.5t9.5 -23.5q0 -13 -9.5 -22.5t-22.5 -9.5z" glyph-name="uni0307" horiz-adv-x="0" unicode="̇"/><glyph d="M209 624q-13 0 -22 9t-9 22t9 22.5t22 9.5t22 -9.5t9 -22.5t-9 -22t-22 -9zM62 624q-13 0 -22.5 9t-9.5 22t9 22.5t23 9.5q12 0 21 -9.5t9 -22.5t-9 -22t-21 -9z" glyph-name="uni0308" horiz-adv-x="0" unicode="̈"/><glyph d="M104 579v56h9q27 0 43.5 14.5t16.5 37.5q0 21 -14.5 36t-42.5 15q-49 0 -58 -39h-28q4 29 28 47t58 18q37 0 60.5 -21.5t23.5 -54.5q0 -30 -20 -50.5t-51 -23.5v-35h-25z" glyph-name="hookabovecomb" horiz-adv-x="0" unicode="̉"/><glyph d="M118 570q-38 0 -63 25.5t-25 61.5t25 61t63 25q37 0 62 -25t25 -61t-25 -61.5t-62 -25.5zM118 592q28 0 46 18.5t18 46.5q0 27 -18 45.5t-46 18.5q-29 0 -47 -18.5t-18 -45.5q0 -28 18 -46.5t47 -18.5z" glyph-name="uni030A" horiz-adv-x="0" unicode="̊"/><glyph d="M141 580l74 133h38l-81 -133h-31zM30 580l73 133h38l-80 -133h-31z" glyph-name="uni030B" horiz-adv-x="0" unicode="̋"/><glyph d="M119 580l-89 133h37l75 -116l75 116h36l-89 -133h-45z" glyph-name="uni030C" horiz-adv-x="0" unicode="̌"/><glyph d="M30 580l81 133h30l-73 -133h-38z" glyph-name="uni0312" horiz-adv-x="0" unicode="̒"/><glyph d="M30 484v26h11q59 0 59 54q0 33 -21 67h32q19 -32 19 -68q0 -79 -87 -79h-13z" glyph-name="uni031B" horiz-adv-x="0" unicode="̛"/><glyph d="M63 -168q-14 0 -23.5 9.5t-9.5 23.5q0 13 9.5 22.5t23.5 9.5q13 0 22.5 -9.5t9.5 -23.5t-9.5 -23t-22.5 -9z" glyph-name="dotbelowcomb" horiz-adv-x="0" unicode="̣"/><glyph d="M30 -201l63 141h38l-71 -141h-30z" glyph-name="uni0326" horiz-adv-x="0" unicode="̦"/><glyph d="M114 -177q-33 0 -55.5 17.5t-28.5 45.5h27q10 -39 57 -39q26 0 41 14.5t15 37.5q0 48 -58 48h-24l17 60l23 -3l-10 -35q34 -1 56 -19t22 -50q0 -33 -22 -55t-60 -22z" glyph-name="uni0327" horiz-adv-x="0" unicode="̧"/><glyph d="M106 -157q-35 0 -55.5 17t-20.5 46q0 64 108 107l8 -13q-88 -38 -88 -89q0 -42 52 -42q18 0 36 6v-27q-23 -5 -40 -5z" glyph-name="uni0328" horiz-adv-x="0" unicode="̨"/><glyph d="M30 329v31h329v-31h-329z" glyph-name="uni0335" horiz-adv-x="0" unicode="̵"/><glyph d="M34 0l227 700h50l236 -700h-513zM85 34h410l-209 625z" glyph-name="uni0394" horiz-adv-x="581" unicode="Δ"/><glyph d="M57 0v34h254v45q-119 19 -193.5 102t-74.5 201q0 140 101 234t251 94t251 -94t101 -234q0 -118 -74.5 -201t-193.5 -102v-45h254v-34h-290v99q116 11 191.5 89.5t75.5 191.5q0 125 -90.5 209.5t-224.5 84.5t-224.5 -84.5t-90.5 -209.5q0 -113 75.5 -191.5t190.5 -89.5 v-99h-289z" glyph-name="uni03A9" horiz-adv-x="790" unicode="Ω"/><glyph d="M63 -250v760h36v-271q0 -110 48.5 -160t121.5 -50q78 0 126.5 53.5t48.5 156.5v271h36v-510h-36v119q-22 -60 -69.5 -92t-110.5 -32q-124 0 -165 113v-358h-36z" glyph-name="uni03BC" unicode="μ"/><glyph d="M119 0v474h-95v36h518v-36h-96v-474h-37v474h-254v-474h-36z" glyph-name="pi" horiz-adv-x="565" unicode="π"/><glyph d="M83 0v700h415v-37h-377v-290h342v-35h-342v-301h377v-37h-415zM283 770l-81 133h38l73 -133h-30z" glyph-name="uni0400" horiz-adv-x="546" unicode="Ѐ"/><glyph d="M83 0v700h415v-37h-377v-290h342v-35h-342v-301h377v-37h-415zM372 814q-13 0 -22 9t-9 22t9 22.5t22 9.5t22 -9.5t9 -22.5t-9 -22t-22 -9zM225 814q-13 0 -22.5 9t-9.5 22t9.5 22.5t22.5 9.5q12 0 21 -9.5t9 -22.5t-9 -22t-21 -9z" glyph-name="uni0401" horiz-adv-x="546" unicode="Ё"/><glyph d="M208 0v664h-189v36h458v-36h-231v-277h388v-387h-185v34h147v318h-350v-352h-38z" glyph-name="uni0402" horiz-adv-x="707" unicode="Ђ"/><glyph d="M83 0v700h365v-36h-327v-664h-38zM260 770l73 133h38l-80 -133h-31z" glyph-name="uni0403" horiz-adv-x="466" unicode="Ѓ"/><glyph d="M395 -10q-150 0 -251 104.5t-101 255.5t101 255.5t251 104.5q114 0 203.5 -62t122.5 -161h-40q-32 83 -110 134.5t-175 51.5q-130 0 -219 -88t-94 -217h423v-35h-423q5 -129 93.5 -217.5t218.5 -88.5q97 0 174.5 51t109.5 133h42q-34 -98 -123 -159.5t-203 -61.5z" glyph-name="uni0404" horiz-adv-x="754" unicode="Є"/><glyph d="M321 -10q-96 0 -167 46t-93 140h39q22 -76 80.5 -113t140.5 -37q87 0 138 39.5t51 111.5q0 68 -52.5 103.5t-150.5 58.5q-47 11 -81.5 23.5t-71 34.5t-56 55.5t-19.5 77.5q0 81 64 130.5t158 49.5q90 0 154.5 -47.5t82.5 -130.5h-37q-20 65 -71.5 103.5t-128.5 38.5 q-82 0 -133 -40.5t-51 -103.5q0 -65 54.5 -100t148.5 -57q50 -12 85.5 -25t70.5 -35t53.5 -56t18.5 -80q0 -89 -63 -138t-164 -49z" glyph-name="uni0405" horiz-adv-x="608" unicode="Ѕ"/><glyph d="M83 0v700h38v-700h-38z" glyph-name="uni0406" horiz-adv-x="204" unicode="І"/><glyph d="M83 0v700h38v-700h-38zM175 814q-13 0 -22 9t-9 22t9 22.5t22 9.5t22 -9.5t9 -22.5t-9 -22t-22 -9zM28 814q-13 0 -22.5 9t-9.5 22t9 22.5t23 9.5q12 0 21 -9.5t9 -22.5t-9 -22t-21 -9z" glyph-name="uni0407" horiz-adv-x="204" unicode="Ї"/><glyph d="M33 0v36h335v664h38v-700h-373z" glyph-name="uni0408" horiz-adv-x="489" unicode="Ј"/><glyph d="M19 0v37h97l133 663h316v-292h155q95 0 157.5 -54.5t62.5 -149.5t-62.5 -149.5t-157.5 -54.5h-194v663h-246l-133 -663h-128zM719 36q82 0 132 45.5t50 122.5t-50 122.5t-132 45.5h-154v-336h154z" glyph-name="uni0409" horiz-adv-x="980" unicode="Љ"/><glyph d="M83 0v700h38v-292h358v292h39v-292h156q94 0 156.5 -54.5t62.5 -149.5t-62.5 -149.5t-156.5 -54.5h-195v372h-358v-372h-38zM672 36q82 0 132 45.5t50 122.5t-50 122.5t-132 45.5h-154v-336h154z" glyph-name="uni040A" horiz-adv-x="933" unicode="Њ"/><glyph d="M208 0v664h-189v36h458v-36h-231v-277h388v-387h-38v352h-350v-352h-38z" glyph-name="uni040B" horiz-adv-x="707" unicode="Ћ"/><glyph d="M83 0v700h38v-339l366 339h53l-376 -348l386 -352h-54l-375 343v-343h-38zM280 770l73 133h38l-80 -133h-31z" glyph-name="uni040C" horiz-adv-x="562" unicode="Ќ"/><glyph d="M83 -11v711h37v-614l479 625h2v-711h-37v614l-479 -625h-2zM333 770l-81 133h38l73 -133h-30z" glyph-name="uni040D" horiz-adv-x="683" unicode="Ѝ"/><glyph d="M144 0l118 234l-233 466h40l214 -425l214 425h41l-353 -700h-41zM284 769q-53 0 -81 35t-28 99h29q0 -107 80 -107q81 0 81 107h28q0 -64 -28 -99t-81 -35z" glyph-name="uni040E" horiz-adv-x="562" unicode="Ў"/><glyph d="M298 -150v150h-215v700h38v-663h392v663h38v-700h-215v-150h-38z" glyph-name="uni040F" horiz-adv-x="634" unicode="Џ"/><glyph d="M12 0l304 711h2l305 -711h-43l-68 163h-389l-68 -163h-43zM138 198h359l-180 429z" glyph-name="uni0410" horiz-adv-x="635" unicode="А"/><glyph d="M83 0v700h387v-37h-349v-275h172q95 0 156.5 -52t61.5 -142t-61.5 -142t-156.5 -52h-210zM292 36q82 0 131.5 42.5t49.5 115.5q0 72 -49.5 115t-131.5 43h-171v-316h171z" glyph-name="uni0411" unicode="Б"/><glyph d="M83 0v700h186q96 0 155 -42.5t59 -133.5q0 -128 -122 -164q147 -32 147 -177q0 -183 -228 -183h-197zM278 35q192 0 192 151q0 78 -50.5 116t-141.5 38h-157v-305h157zM265 374q85 0 132.5 36t47.5 110q0 145 -180 145h-144v-291h144z" glyph-name="uni0412" horiz-adv-x="550" unicode="В"/><glyph d="M83 0v700h365v-36h-327v-664h-38z" glyph-name="uni0413" horiz-adv-x="466" unicode="Г"/><glyph d="M24 -150v187h97l133 663h339v-663h89v-187h-38v150h-582v-150h-38zM159 37h395v626h-269z" glyph-name="uni0414" horiz-adv-x="715" unicode="Д"/><glyph d="M83 0v700h415v-37h-377v-290h342v-35h-342v-301h377v-37h-415z" glyph-name="uni0415" horiz-adv-x="546" unicode="Е"/><glyph d="M12 0l305 352l-297 348h47l288 -339v339h38v-338l287 338h47l-297 -348l304 -352h-47l-294 342v-342h-38v343l-296 -343h-47z" glyph-name="uni0416" horiz-adv-x="746" unicode="Ж"/><glyph d="M271 -10q-99 0 -165.5 54t-76.5 136h37q11 -69 68 -112.5t137 -43.5q83 0 138 45.5t55 114.5q0 72 -57 117.5t-137 45.5h-55v35h54q71 0 120 43t49 105t-48.5 104t-125.5 42q-74 0 -125 -39t-61 -97h-37q10 73 70.5 121.5t152.5 48.5q95 0 153.5 -51t58.5 -126 q0 -59 -36.5 -104.5t-95.5 -62.5q70 -17 114.5 -66t44.5 -115q0 -84 -65.5 -139.5t-166.5 -55.5z" glyph-name="uni0417" horiz-adv-x="550" unicode="З"/><glyph d="M83 -11v711h37v-614l479 625h2v-711h-37v614l-479 -625h-2z" glyph-name="uni0418" horiz-adv-x="683" unicode="И"/><glyph d="M83 -11v711h37v-614l479 625h2v-711h-37v614l-479 -625h-2zM349 769q-53 0 -81 35t-28 99h29q0 -107 80 -107q81 0 81 107h28q0 -64 -28 -99t-81 -35z" glyph-name="uni0419" horiz-adv-x="683" unicode="Й"/><glyph d="M83 0v700h38v-339l366 339h53l-376 -348l386 -352h-54l-375 343v-343h-38z" glyph-name="uni041A" horiz-adv-x="562" unicode="К"/><glyph d="M19 0v37h97l133 663h348v-700h-38v663h-279l-133 -663h-128z" glyph-name="uni041B" horiz-adv-x="680" unicode="Л"/><glyph d="M426 -11l-202 606l-143 -595h-39l172 711h2l211 -626l211 626h2l172 -711h-38l-144 595l-202 -606h-2z" glyph-name="uni041C" horiz-adv-x="854" unicode="М"/><glyph d="M83 0v700h38v-321h397v321h38v-700h-38v343h-397v-343h-38z" glyph-name="uni041D" horiz-adv-x="639" unicode="Н"/><glyph d="M393 -10q-149 0 -249.5 105t-100.5 255t100.5 255t249.5 105q148 0 249 -105t101 -255t-101 -255t-249 -105zM393 28q132 0 222 94t90 228t-90 228t-222 94t-222 -94t-90 -228t90 -228t222 -94z" glyph-name="uni041E" horiz-adv-x="786" unicode="О"/><glyph d="M83 0v700h472v-700h-39v663h-395v-663h-38z" glyph-name="uni041F" horiz-adv-x="637" unicode="П"/><glyph d="M83 0v700h209q94 0 156.5 -57.5t62.5 -156.5t-62.5 -156.5t-156.5 -57.5h-171v-272h-38zM121 308h169q82 0 132.5 48.5t50.5 129.5q0 82 -50.5 130t-132.5 48h-169v-356z" glyph-name="uni0420" unicode="Р"/><glyph d="M395 -10q-150 0 -251 104.5t-101 255.5t101 255.5t251 104.5q114 0 203.5 -62t122.5 -161h-40q-32 83 -110 134.5t-175 51.5q-134 0 -224.5 -94t-90.5 -229t90.5 -229t224.5 -94q96 0 173.5 51t109.5 133h42q-34 -98 -123 -159.5t-203 -61.5z" glyph-name="uni0421" horiz-adv-x="754" unicode="С"/><glyph d="M249 0v664h-230v36h498v-36h-230v-664h-38z" glyph-name="uni0422" horiz-adv-x="536" unicode="Т"/><glyph d="M144 0l118 234l-233 466h40l214 -425l214 425h41l-353 -700h-41z" glyph-name="uni0423" horiz-adv-x="562" unicode="У"/><glyph d="M376 -30v125h-57q-124 0 -203 72t-79 183t79 183t203 72h57v125h38v-125h57q123 0 202 -72t79 -183t-79 -183t-202 -72h-57v-125h-38zM321 131h55v438h-55q-108 0 -176.5 -61.5t-68.5 -157.5t68.5 -157.5t176.5 -61.5zM468 131q108 0 177 61.5t69 157.5t-69 157.5 t-177 61.5h-54v-438h54z" glyph-name="uni0424" horiz-adv-x="789" unicode="Ф"/><glyph d="M22 0l239 358l-228 342h45l210 -313l211 313h45l-230 -342l240 -358h-46l-220 329l-221 -329h-45z" glyph-name="uni0425" horiz-adv-x="576" unicode="Х"/><glyph d="M601 -150v150h-518v700h38v-663h391v663h39v-663h89v-187h-39z" glyph-name="uni0426" horiz-adv-x="673" unicode="Ц"/><glyph d="M464 0v312h-388v388h38v-351h350v351h38v-700h-38z" glyph-name="uni0427" horiz-adv-x="585" unicode="Ч"/><glyph d="M83 0v700h38v-663h354v663h38v-663h355v663h38v-700h-823z" glyph-name="uni0428" horiz-adv-x="989" unicode="Ш"/><glyph d="M957 -150v150h-874v700h38v-663h354v663h38v-663h355v663h38v-663h90v-187h-39z" glyph-name="uni0429" horiz-adv-x="1029" unicode="Щ"/><glyph d="M156 0v662h-137v38h176v-292h161q95 0 157 -54.5t62 -149.5t-62 -149.5t-157 -54.5h-200zM195 36h159q83 0 133 45.5t50 122.5t-50.5 122.5t-132.5 45.5h-159v-336z" glyph-name="uni042A" horiz-adv-x="616" unicode="Ъ"/><glyph d="M83 0v700h38v-292h153q94 0 156.5 -54.5t62.5 -149.5t-62.5 -149.5t-156.5 -54.5h-191zM600 0v700h38v-700h-38zM121 36h151q82 0 132.5 45.5t50.5 122.5t-50.5 122.5t-132.5 45.5h-151v-336z" glyph-name="uni042B" horiz-adv-x="721" unicode="Ы"/><glyph d="M83 0v700h38v-292h168q95 0 157.5 -54.5t62.5 -149.5t-62.5 -149.5t-157.5 -54.5h-206zM121 36h167q82 0 132.5 45.5t50.5 122.5t-50.5 122.5t-132.5 45.5h-167v-336z" glyph-name="uni042C" horiz-adv-x="549" unicode="Ь"/><glyph d="M359 -10q-114 0 -203 61.5t-122 159.5h41q32 -82 109.5 -133t174.5 -51q130 0 218.5 88.5t94.5 217.5h-423v35h423q-6 129 -95 217t-219 88q-97 0 -175 -51.5t-109 -134.5h-40q33 99 122 161t203 62q151 0 252 -104.5t101 -255.5t-101 -255.5t-252 -104.5z" glyph-name="uni042D" horiz-adv-x="754" unicode="Э"/><glyph d="M614 -10q-144 0 -243.5 98.5t-105.5 243.5h-144v-332h-38v700h38v-331h144q6 144 105.5 242.5t243.5 98.5q148 0 249 -105t101 -255t-101 -255t-249 -105zM614 28q131 0 221.5 94t90.5 228t-90.5 228t-221.5 94q-132 0 -222 -94t-90 -228t90 -228t222 -94z" glyph-name="uni042E" horiz-adv-x="1007" unicode="Ю"/><glyph d="M48 0v36h75l122 252q-83 9 -134 62.5t-51 141.5q0 97 61 152.5t157 55.5h232v-700h-39v284h-187l-136 -284h-100zM282 320h189v344h-189q-83 0 -133 -45.5t-50 -126.5t50 -126.5t133 -45.5z" glyph-name="uni042F" horiz-adv-x="592" unicode="Я"/><glyph d="M285 -5q-103 0 -172.5 75.5t-69.5 184.5t69.5 184.5t172.5 75.5q74 0 131 -41t85 -109v145h37v-510h-37v144q-28 -67 -85 -108t-131 -41zM290 29q90 0 150.5 65.5t60.5 160.5t-60.5 160.5t-150.5 65.5t-150.5 -65.5t-60.5 -160.5t60.5 -160.5t150.5 -65.5z" glyph-name="uni0430" horiz-adv-x="610" unicode="а"/><glyph d="M294 -5q-104 0 -173 77.5t-69 199.5q0 96 12.5 166.5t37 115t54 71.5t69.5 45q19 9 64.5 26.5t72 29.5t50.5 32t25 42h36q-1 -27 -17 -49t-43.5 -38t-53 -27.5t-62 -25t-53.5 -21.5q-30 -14 -51.5 -30.5t-44 -47t-36.5 -80t-20 -118.5q28 65 84 103.5t125 38.5 q99 0 168.5 -74.5t69.5 -180.5t-71.5 -180.5t-173.5 -74.5zM296 31q85 0 145.5 64t60.5 155q0 92 -60 156.5t-146 64.5t-146 -64.5t-60 -156.5q0 -91 60.5 -155t145.5 -64z" glyph-name="uni0431" horiz-adv-x="581" unicode="б"/><glyph d="M72 0v510h193q72 0 115.5 -35t43.5 -95q0 -42 -22 -74t-61 -46q51 -12 79.5 -44.5t28.5 -81.5q0 -62 -43.5 -98t-114.5 -36h-219zM287 33q57 0 91 28t34 76q0 49 -34.5 76.5t-90.5 27.5h-178v-208h178zM265 272q56 0 89.5 28t33.5 75q0 48 -34 75t-89 27h-156v-205h156z " glyph-name="uni0432" horiz-adv-x="496" unicode="в"/><glyph d="M72 0v510h314v-36h-277v-474h-37z" glyph-name="uni0433" horiz-adv-x="400" unicode="г"/><glyph d="M19 -140v176h83l93 474h301v-474h85v-176h-37v140h-490v-140h-35zM138 36h321v438h-235z" glyph-name="uni0434" horiz-adv-x="609" unicode="д"/><glyph d="M299 -5q-107 0 -181.5 76t-74.5 184t74.5 184t180.5 76q105 0 180 -75t75 -176q0 -13 -1 -20h-473q4 -91 68 -153t153 -62q66 0 119.5 34.5t76.5 89.5h39q-26 -70 -90.5 -114t-145.5 -44zM80 277h436q-6 86 -68.5 145t-149.5 59q-86 0 -148 -58.5t-70 -145.5z" glyph-name="uni0435" horiz-adv-x="596" unicode="е"/><glyph d="M22 0l244 259l-234 251h46l223 -240v240h36v-240l223 240h46l-234 -251l244 -259h-47l-232 248v-247h-36v247l-232 -248h-47z" glyph-name="uni0436" horiz-adv-x="638" unicode="ж"/><glyph d="M231 -5q-75 0 -128.5 37.5t-60.5 99.5h37q6 -47 50 -76.5t102 -29.5q63 0 105.5 33t42.5 85q0 50 -42 77t-108 27h-38v29h36q57 0 96 30t39 75q0 46 -40.5 74t-95.5 28q-53 0 -94 -27t-48 -71h-37q8 58 58.5 93.5t120.5 35.5q73 0 123.5 -36.5t50.5 -96.5 q0 -43 -27.5 -73.5t-74.5 -44.5q118 -26 118 -122q0 -64 -52.5 -105.5t-132.5 -41.5z" glyph-name="uni0437" horiz-adv-x="458" unicode="з"/><glyph d="M72 -11v521h37v-436l383 447h2v-521h-36v436l-384 -447h-2z" glyph-name="uni0438" horiz-adv-x="566" unicode="и"/><glyph d="M72 -11v521h37v-436l383 447h2v-521h-36v436l-384 -447h-2zM290 579q-53 0 -81 35t-28 99h29q0 -107 80 -107q81 0 81 107h28q0 -64 -28 -99t-81 -35z" glyph-name="uni0439" horiz-adv-x="566" unicode="й"/><glyph d="M72 0v510h37v-241l293 241h53l-305 -251l318 -259h-53l-306 249v-249h-37z" glyph-name="uni043A" horiz-adv-x="490" unicode="к"/><glyph d="M19 0v36h85l96 474h294v-510h-37v474h-228l-96 -474h-114z" glyph-name="uni043B" horiz-adv-x="566" unicode="л"/><glyph d="M367 -11l-177 424l-99 -413h-38l125 511h2l188 -446l188 446h2l125 -511h-38l-99 413l-177 -424h-2z" glyph-name="uni043C" horiz-adv-x="736" unicode="м"/><glyph d="M72 0v510h37v-236h349v236h36v-510h-36v237h-349v-237h-37z" glyph-name="uni043D" horiz-adv-x="566" unicode="н"/><glyph d="M296 -5q-105 0 -179 76.5t-74 183.5q0 109 74 184.5t179 75.5q106 0 180.5 -75.5t74.5 -184.5q0 -107 -74.5 -183.5t-180.5 -76.5zM296 31q91 0 154.5 65.5t63.5 158.5q0 94 -63.5 159t-154.5 65t-154 -65t-63 -159q0 -93 63 -158.5t154 -65.5z" glyph-name="uni043E" horiz-adv-x="593" unicode="о"/><glyph d="M72 0v510h422v-510h-37v474h-348v-474h-37z" glyph-name="uni043F" horiz-adv-x="566" unicode="п"/><glyph d="M72 -250v760h37v-145q28 68 85 109t130 41q104 0 173.5 -75.5t69.5 -184.5t-69.5 -184.5t-173.5 -75.5q-73 0 -130 41t-85 108v-394h-37zM320 29q90 0 150 65.5t60 160.5t-60 160.5t-150 65.5q-91 0 -151 -65.5t-60 -160.5t60 -160.5t151 -65.5z" glyph-name="uni0440" horiz-adv-x="610" unicode="р"/><glyph d="M297 -5q-106 0 -180 76.5t-74 184.5t74 183.5t179 75.5q85 0 151.5 -49.5t92.5 -127.5h-39q-23 64 -79 103t-125 39q-91 0 -154.5 -65t-63.5 -159t63.5 -160t154.5 -66q70 0 125 39t79 103h39q-25 -78 -91.5 -127.5t-151.5 -49.5z" glyph-name="uni0441" horiz-adv-x="572" unicode="с"/><glyph d="M212 0v474h-198v36h432v-36h-197v-474h-37z" glyph-name="uni0442" horiz-adv-x="461" unicode="т"/><glyph d="M142 -250l100 240l-228 520h38l209 -475l197 475h40l-317 -760h-39z" glyph-name="uni0443" horiz-adv-x="511" unicode="у"/><glyph d="M374 -250v245h-77q-108 0 -181 76t-73 184q0 110 72.5 185t181.5 75h77v285h36v-285h77q109 0 181.5 -75t72.5 -185q0 -108 -73 -184t-181 -76h-77v-245h-36zM297 28h77v454h-77q-93 0 -155.5 -65.5t-62.5 -161.5q0 -95 63 -161t155 -66zM487 28q92 0 154.5 66t62.5 161 q0 96 -62.5 161.5t-154.5 65.5h-77v-454h77z" glyph-name="uni0444" horiz-adv-x="784" unicode="ф"/><glyph d="M18 0l203 261l-193 249h45l174 -222l172 222h46l-194 -249l204 -261h-45l-183 235l-184 -235h-45z" glyph-name="uni0445" horiz-adv-x="492" unicode="х"/><glyph d="M530 -140v140h-458v510h37v-473h336v473h37v-474h85v-176h-37z" glyph-name="uni0446" horiz-adv-x="595" unicode="ц"/><glyph d="M387 0v223h-320v287h37v-252h283v252h37v-510h-37z" glyph-name="uni0447" horiz-adv-x="496" unicode="ч"/><glyph d="M72 0v510h37v-474h277v474h37v-474h277v474h37v-510h-665z" glyph-name="uni0448" horiz-adv-x="809" unicode="ш"/><glyph d="M785 -140v140h-713v510h37v-474h277v474h37v-474h277v474h37v-474h84v-176h-36z" glyph-name="uni0449" horiz-adv-x="850" unicode="щ"/><glyph d="M141 0v474h-122v36h159v-196h143q73 0 121 -43t48 -114t-48 -114t-121 -43h-180zM318 34q59 0 97 33.5t38 89.5t-38 90t-97 34h-140v-247h140z" glyph-name="uni044A" horiz-adv-x="522" unicode="ъ"/><glyph d="M72 0v510h37v-196h125q73 0 120.5 -44t47.5 -113t-47.5 -113t-120.5 -44h-162zM231 34q59 0 96.5 34t37.5 89t-37.5 89.5t-96.5 34.5h-122v-247h122zM494 0v510h37v-510h-37z" glyph-name="uni044B" horiz-adv-x="603" unicode="ы"/><glyph d="M72 0v510h37v-196h145q73 0 120.5 -43t47.5 -114t-47.5 -114t-120.5 -43h-182zM251 34q59 0 96.5 33.5t37.5 89.5t-37.5 90t-96.5 34h-142v-247h142z" glyph-name="uni044C" horiz-adv-x="455" unicode="ь"/><glyph d="M276 -5q-84 0 -151 49t-92 127h39q24 -63 79.5 -102.5t124.5 -39.5q88 0 150 61t67 149h-249v32h249q-5 89 -67.5 149.5t-149.5 60.5q-70 0 -125 -39t-79 -103h-39q25 78 92 127t151 49q106 0 180 -75.5t74 -183.5t-74 -184.5t-180 -76.5z" glyph-name="uni044D" horiz-adv-x="573" unicode="э"/><glyph d="M488 -5q-101 0 -173.5 70.5t-78.5 172.5h-127v-238h-37v510h37v-238h127q7 103 79.5 173t172.5 70q106 0 180.5 -75.5t74.5 -184.5q0 -108 -74.5 -184t-180.5 -76zM488 31q91 0 154.5 65.5t63.5 158.5q0 94 -63.5 159t-154.5 65q-90 0 -153.5 -65t-63.5 -159 q0 -93 63.5 -158.5t153.5 -65.5z" glyph-name="uni044E" horiz-adv-x="786" unicode="ю"/><glyph d="M47 0v34h74l99 178q-62 7 -101 45t-39 102q0 70 48 110.5t120 40.5h192v-510h-37v208h-147l-115 -208h-94zM249 240h154v236h-154q-58 0 -95 -30.5t-37 -86.5q0 -57 37 -88t95 -31z" glyph-name="uni044F" horiz-adv-x="512" unicode="я"/><glyph d="M299 -5q-107 0 -181.5 76t-74.5 184t74.5 184t180.5 76q105 0 180 -75t75 -176q0 -13 -1 -20h-473q4 -91 68 -153t153 -62q66 0 119.5 34.5t76.5 89.5h39q-26 -70 -90.5 -114t-145.5 -44zM278 580l-81 133h38l73 -133h-30zM80 277h436q-6 86 -68.5 145t-149.5 59 q-86 0 -148 -58.5t-70 -145.5z" glyph-name="uni0450" horiz-adv-x="596" unicode="ѐ"/><glyph d="M299 -5q-107 0 -181.5 76t-74.5 184t74.5 184t180.5 76q105 0 180 -75t75 -176q0 -13 -1 -20h-473q4 -91 68 -153t153 -62q66 0 119.5 34.5t76.5 89.5h39q-26 -70 -90.5 -114t-145.5 -44zM367 624q-13 0 -22 9t-9 22t9 22.5t22 9.5t22 -9.5t9 -22.5t-9 -22t-22 -9z M220 624q-13 0 -22.5 9t-9.5 22t9 22.5t23 9.5q12 0 21 -9.5t9 -22.5t-9 -22t-21 -9zM80 277h436q-6 86 -68.5 145t-149.5 59q-86 0 -148 -58.5t-70 -145.5z" glyph-name="uni0451" horiz-adv-x="596" unicode="ё"/><glyph d="M418 -250v34h97v487q0 110 -48 160t-122 50q-78 0 -126 -53.5t-48 -156.5v-271h-37v637h-112v30h112v133h37v-133h228v-30h-228v-246q22 60 70 92t112 32q87 0 143 -59t56 -182v-524h-134z" glyph-name="uni0452" horiz-adv-x="614" unicode="ђ"/><glyph d="M72 0v510h314v-36h-277v-474h-37zM224 580l73 133h38l-80 -133h-31z" glyph-name="uni0453" horiz-adv-x="400" unicode="ѓ"/><glyph d="M297 -5q-106 0 -180 76.5t-74 184.5t74 183.5t179 75.5q85 0 151.5 -49t92.5 -127h-39q-23 63 -79 102t-126 39q-87 0 -149 -60t-68 -149h250v-32h-250q6 -88 68 -148.5t150 -60.5q70 0 125 39t79 102h39q-25 -78 -92 -127t-151 -49z" glyph-name="uni0454" horiz-adv-x="572" unicode="є"/><glyph d="M237 -5q-76 0 -127 36t-64 104h35q12 -52 52 -80t104 -28t101 27.5t37 73.5q0 41 -32.5 67t-78.5 39t-92.5 27.5t-79 44.5t-32.5 77q0 57 43 94.5t119 37.5q73 0 120.5 -36t54.5 -99h-34q-20 103 -139 103q-62 0 -95 -28t-33 -69q0 -39 32.5 -63.5t79 -37.5t93 -28 t79 -46t32.5 -80q0 -62 -48 -99t-127 -37z" glyph-name="uni0455" horiz-adv-x="458" unicode="ѕ"/><glyph d="M72 0v510h37v-510h-37zM91 623q-14 0 -23.5 9.5t-9.5 22.5q0 14 9.5 23.5t23.5 9.5q13 0 22.5 -9.5t9.5 -23.5q0 -13 -9.5 -22.5t-22.5 -9.5z" glyph-name="uni0456" horiz-adv-x="180" unicode="і"/><glyph d="M72 0v510h37v-510h-37zM164 624q-13 0 -22 9t-9 22t9 22.5t22 9.5t22 -9.5t9 -22.5t-9 -22t-22 -9zM17 624q-13 0 -22.5 9t-9.5 22t9.5 22.5t22.5 9.5q12 0 21 -9.5t9 -22.5t-9 -22t-21 -9z" glyph-name="uni0457" horiz-adv-x="180" unicode="ї"/><glyph d="M-21 -250v34h97v726h37v-760h-134zM95 623q-14 0 -23.5 9.5t-9.5 22.5q0 14 9.5 23.5t23.5 9.5q13 0 22.5 -9.5t9.5 -23.5q0 -13 -9.5 -22.5t-22.5 -9.5z" glyph-name="uni0458" horiz-adv-x="185" unicode="ј"/><glyph d="M19 0v36h85l96 474h261v-216h145q71 0 115 -40t44 -107t-44 -107t-115 -40h-182v474h-195l-96 -474h-114zM603 34q57 0 91 30.5t34 82.5t-34 83t-91 31h-142v-227h142z" glyph-name="uni0459" horiz-adv-x="798" unicode="љ"/><glyph d="M72 0v510h37v-216h280v216h37v-216h145q71 0 115 -40t44 -107t-44 -107t-115 -40h-182v261h-280v-261h-37zM568 34q57 0 91.5 30.5t34.5 82.5t-34.5 83t-91.5 31h-142v-227h142z" glyph-name="uni045A" horiz-adv-x="763" unicode="њ"/><glyph d="M134 0v637h-112v30h112v133h37v-133h228v-30h-228v-246q22 60 70 92t112 32q87 0 143 -59t56 -182v-274h-37v271q0 110 -48.5 160t-121.5 50q-78 0 -126 -53.5t-48 -156.5v-271h-37z" glyph-name="uni045B" horiz-adv-x="614" unicode="ћ"/><glyph d="M72 0v510h37v-241l293 241h53l-305 -251l318 -259h-53l-306 249v-249h-37zM240 580l73 133h38l-80 -133h-31z" glyph-name="uni045C" horiz-adv-x="490" unicode="ќ"/><glyph d="M72 -11v521h37v-436l383 447h2v-521h-36v436l-384 -447h-2zM275 580l-81 133h38l73 -133h-30z" glyph-name="uni045D" horiz-adv-x="566" unicode="ѝ"/><glyph d="M142 -250l100 240l-228 520h38l209 -475l197 475h40l-317 -760h-39zM256 579q-53 0 -81 35t-28 99h29q0 -107 80 -107q81 0 81 107h28q0 -64 -28 -99t-81 -35z" glyph-name="uni045E" horiz-adv-x="511" unicode="ў"/><glyph d="M258 -140v140h-186v510h37v-473h336v473h37v-510h-188v-140h-36z" glyph-name="uni045F" horiz-adv-x="554" unicode="џ"/><glyph d="M138 0v555h-121v31h121v114h38v-114h175v-31h-175v-147h173q95 0 157 -54.5t62 -149.5t-62 -149.5t-157 -54.5h-211zM347 36q83 0 133 45.5t50 122.5t-50.5 122.5t-132.5 45.5h-171v-336h171z" glyph-name="uni0462" horiz-adv-x="609" unicode="Ѣ"/><glyph d="M130 0v503h-111v30h111v267h37v-267h160v-30h-160v-189h145q73 0 121 -43t48 -114t-48 -114t-121 -43h-182zM309 34q59 0 97 33.5t38 89.5t-38 90t-97 34h-142v-247h142z" glyph-name="uni0463" horiz-adv-x="513" unicode="ѣ"/><glyph d="M393 -10q-149 0 -249.5 105t-100.5 255t100.5 255t249.5 105q148 0 249 -105t101 -255t-101 -255t-249 -105zM393 28q128 0 217 89t95 218h-624q6 -129 95 -218t217 -89zM81 367h624q-7 129 -96 217t-216 88t-216 -88t-96 -217z" glyph-name="uni0472" horiz-adv-x="786" unicode="Ѳ"/><glyph d="M296 -5q-105 0 -179 76.5t-74 183.5q0 109 74 184.5t179 75.5q106 0 180.5 -75.5t74.5 -184.5q0 -107 -74.5 -183.5t-180.5 -76.5zM296 30q87 0 149 61t67 150h-431q5 -89 66.5 -150t148.5 -61zM512 270q-5 89 -67 149.5t-149 60.5q-86 0 -148 -60.5t-67 -149.5h431z" glyph-name="uni0473" horiz-adv-x="593" unicode="ѳ"/><glyph d="M318 -11l-304 711h42l263 -626l264 626h131v-37h-106l-288 -674h-2z" glyph-name="uni0474" horiz-adv-x="718" unicode="Ѵ"/><glyph d="M254 -11l-245 521h41l205 -446l205 446h114v-34h-89l-229 -487h-2z" glyph-name="uni0475" horiz-adv-x="578" unicode="ѵ"/><glyph d="M83 0v700h327v100h38v-136h-327v-664h-38z" glyph-name="uni0490" horiz-adv-x="466" unicode="Ґ"/><glyph d="M72 0v510h277v100h37v-136h-277v-474h-37z" glyph-name="uni0491" horiz-adv-x="400" unicode="ґ"/><glyph d="M127 0v330h-108v32h108v338h365v-36h-327v-302h189v-32h-189v-330h-38z" glyph-name="uni0492" horiz-adv-x="511" unicode="Ғ"/><glyph d="M106 0v219h-84v30h84v261h313v-36h-277v-225h153v-30h-153v-219h-36z" glyph-name="uni0493" horiz-adv-x="433" unicode="ғ"/><glyph d="M769 -150v150h-82l-294 342v-342h-38v343l-296 -343h-47l305 352l-297 348h47l288 -339v339h38v-338l287 338h47l-297 -348l277 -315h101v-187h-39z" glyph-name="uni0496" horiz-adv-x="841" unicode="Җ"/><glyph d="M640 -140v140h-71l-232 248v-247h-36v247l-232 -248h-47l244 259l-234 251h46l223 -240v240h36v-240l223 240h46l-234 -251l214 -223h90v-176h-36z" glyph-name="uni0497" horiz-adv-x="705" unicode="җ"/><glyph d="M578 -150v150h-82l-375 343v-343h-38v700h38v-339l366 339h53l-376 -348l348 -315h105v-187h-39z" glyph-name="uni049A" horiz-adv-x="650" unicode="Қ"/><glyph d="M486 -140v140h-71l-306 249v-248h-37v509h37v-241l293 241h53l-305 -251l277 -223h95v-176h-36z" glyph-name="uni049B" horiz-adv-x="550" unicode="қ"/><glyph d="M607 -150v150h-89v343h-397v-343h-38v700h38v-321h397v321h38v-663h89v-187h-38z" glyph-name="uni04A2" horiz-adv-x="679" unicode="Ң"/><glyph d="M543 -140v140h-85v237h-349v-237h-37v510h37v-236h349v236h36v-474h85v-176h-36z" glyph-name="uni04A3" horiz-adv-x="607" unicode="ң"/><glyph d="M253 0v290l-244 410h42l221 -372l221 372h42l-244 -409v-291h-38z" glyph-name="uni04AE" horiz-adv-x="544" unicode="Ү"/><glyph d="M237 -250v250l-228 510h41l205 -466l205 466h42l-228 -507v-253h-37z" glyph-name="uni04AF" horiz-adv-x="510" unicode="ү"/><glyph d="M253 0v276h-171v31h162l-235 393h42l221 -372l221 372h42l-234 -393h161v-31h-171v-276h-38z" glyph-name="uni04B0" horiz-adv-x="544" unicode="Ұ"/><glyph d="M237 -250v219h-138v31h137l-227 510h41l205 -470l205 470h42l-227 -510h135v-31h-136v-219h-37z" glyph-name="uni04B1" horiz-adv-x="510" unicode="ұ"/><glyph d="M593 -150v150h-85l-220 329l-221 -329h-45l239 358l-228 342h45l210 -313l211 313h45l-230 -342l216 -321h101v-187h-38z" glyph-name="uni04B2" horiz-adv-x="665" unicode="Ҳ"/><glyph d="M501 -140v140h-71l-183 235l-184 -235h-45l203 261l-193 249h45l174 -222l172 222h46l-194 -249l177 -225h89v-176h-36z" glyph-name="uni04B3" horiz-adv-x="566" unicode="ҳ"/><glyph d="M553 -150v150h-89v312h-388v388h38v-351h350v351h38v-663h89v-187h-38z" glyph-name="uni04B6" horiz-adv-x="625" unicode="Ҷ"/><glyph d="M472 -140v140h-85v223h-320v287h37v-252h283v252h37v-474h84v-176h-36z" glyph-name="uni04B7" horiz-adv-x="537" unicode="ҷ"/><glyph d="M83 0v700h38v-312h388v-388h-38v351h-350v-351h-38z" glyph-name="uni04BA" horiz-adv-x="585" unicode="Һ"/><glyph d="M72 0v800h37v-409q22 60 70 92t112 32q86 0 142 -59t56 -182v-274h-36v271q0 110 -48 160t-122 50q-78 0 -126 -53.5t-48 -156.5v-271h-37z" glyph-name="uni04BB" unicode="һ"/><glyph d="M83 0v700h38v-700h-38z" glyph-name="uni04C0" horiz-adv-x="204" unicode="Ӏ"/><glyph d="M12 0l305 352l-297 348h47l288 -339v339h38v-338l287 338h47l-297 -348l304 -352h-47l-294 342v-342h-38v343l-296 -343h-47zM373 769q-53 0 -81 35t-28 99h29q0 -107 80 -107q81 0 81 107h28q0 -64 -28 -99t-81 -35z" glyph-name="uni04C1" horiz-adv-x="746" unicode="Ӂ"/><glyph d="M22 0l244 259l-234 251h46l223 -240v240h36v-240l223 240h46l-234 -251l244 -259h-47l-232 248v-247h-36v247l-232 -248h-47zM320 579q-53 0 -81 35t-28 99h29q0 -107 80 -107q81 0 81 107h28q0 -64 -28 -99t-81 -35z" glyph-name="uni04C2" horiz-adv-x="638" unicode="ӂ"/><glyph d="M72 0v800h37v-800h-37z" glyph-name="uni04CF" horiz-adv-x="180" unicode="ӏ"/><glyph d="M12 0l304 711h2l305 -711h-43l-68 163h-389l-68 -163h-43zM138 198h359l-180 429zM317 769q-53 0 -81 35t-28 99h29q0 -107 80 -107q81 0 81 107h28q0 -64 -28 -99t-81 -35z" glyph-name="uni04D0" horiz-adv-x="635" unicode="Ӑ"/><glyph d="M285 -5q-103 0 -172.5 75.5t-69.5 184.5t69.5 184.5t172.5 75.5q74 0 131 -41t85 -109v145h37v-510h-37v144q-28 -67 -85 -108t-131 -41zM290 29q90 0 150.5 65.5t60.5 160.5t-60.5 160.5t-150.5 65.5t-150.5 -65.5t-60.5 -160.5t60.5 -160.5t150.5 -65.5zM300 579 q-53 0 -81 35t-28 99h29q0 -107 80 -107q81 0 81 107h28q0 -64 -28 -99t-81 -35z" glyph-name="uni04D1" horiz-adv-x="610" unicode="ӑ"/><glyph d="M12 0l304 711h2l305 -711h-43l-68 163h-389l-68 -163h-43zM138 198h359l-180 429zM391 814q-13 0 -22 9t-9 22t9 22.5t22 9.5t22 -9.5t9 -22.5t-9 -22t-22 -9zM244 814q-13 0 -22.5 9t-9.5 22t9 22.5t23 9.5q12 0 21 -9.5t9 -22.5t-9 -22t-21 -9z" glyph-name="uni04D2" horiz-adv-x="635" unicode="Ӓ"/><glyph d="M285 -5q-103 0 -172.5 75.5t-69.5 184.5t69.5 184.5t172.5 75.5q74 0 131 -41t85 -109v145h37v-510h-37v144q-28 -67 -85 -108t-131 -41zM290 29q90 0 150.5 65.5t60.5 160.5t-60.5 160.5t-150.5 65.5t-150.5 -65.5t-60.5 -160.5t60.5 -160.5t150.5 -65.5zM374 624 q-13 0 -22 9t-9 22t9 22.5t22 9.5t22 -9.5t9 -22.5t-9 -22t-22 -9zM227 624q-13 0 -22.5 9t-9.5 22t9.5 22.5t22.5 9.5q12 0 21 -9.5t9 -22.5t-9 -22t-21 -9z" glyph-name="uni04D3" horiz-adv-x="610" unicode="ӓ"/><glyph d="M13 0l290 700h520v-37h-483l125 -290h323v-35h-309l128 -301h216v-37h-242l-69 163h-391l-66 -163h-42zM136 198h361l-184 434z" glyph-name="uni04D4" horiz-adv-x="869" unicode="Ӕ"/><glyph d="M286 -5q-104 0 -173.5 75.5t-69.5 184.5t69.5 184.5t173.5 75.5q73 0 130 -41t85 -109v145h35v-145q28 67 88.5 108.5t135.5 41.5q104 0 178.5 -75t74.5 -176v-20h-473q3 -90 66.5 -152.5t153.5 -62.5q66 0 120 34.5t76 89.5h39q-26 -70 -90 -114t-145 -44 q-76 0 -136 41.5t-88 109.5v-146h-35v145q-28 -68 -85 -109t-130 -41zM290 29q90 0 150.5 65.5t60.5 160.5t-60.5 160.5t-150.5 65.5t-150.5 -65.5t-60.5 -160.5t60.5 -160.5t150.5 -65.5zM976 277q-5 86 -68 145t-150 59q-86 0 -148 -58.5t-69 -145.5h435z" glyph-name="uni04D5" horiz-adv-x="1056" unicode="ӕ"/><glyph d="M83 0v700h415v-37h-377v-290h342v-35h-342v-301h377v-37h-415zM299 769q-53 0 -81 35t-28 99h29q0 -107 80 -107q81 0 81 107h28q0 -64 -28 -99t-81 -35z" glyph-name="uni04D6" horiz-adv-x="546" unicode="Ӗ"/><glyph d="M299 -5q-107 0 -181.5 76t-74.5 184t74.5 184t180.5 76q105 0 180 -75t75 -176q0 -13 -1 -20h-473q4 -91 68 -153t153 -62q66 0 119.5 34.5t76.5 89.5h39q-26 -70 -90.5 -114t-145.5 -44zM293 579q-53 0 -81 35t-28 99h29q0 -107 80 -107q81 0 81 107h28q0 -64 -28 -99 t-81 -35zM80 277h436q-6 86 -68.5 145t-149.5 59q-86 0 -148 -58.5t-70 -145.5z" glyph-name="uni04D7" horiz-adv-x="596" unicode="ӗ"/><glyph d="M392 -10q-148 0 -248.5 104t-100.5 255v13h660q-4 130 -93 220.5t-218 90.5q-100 0 -178 -56.5t-112 -148.5h-41q35 107 125 174.5t206 67.5q149 0 250 -105t101 -255t-101 -255t-250 -105zM392 27q126 0 215 87.5t96 214.5h-621q6 -128 95.5 -215t214.5 -87z" glyph-name="uni04D8" horiz-adv-x="785" unicode="Ә"/><glyph d="M298 -5q-105 0 -180 75t-75 176q0 13 1 20h473q-4 91 -68 153t-153 62q-66 0 -120 -34.5t-76 -89.5h-39q26 70 90.5 114t145.5 44q107 0 181.5 -76t74.5 -184t-74.5 -184t-180.5 -76zM80 233q5 -86 68 -145t150 -59q85 0 147.5 58.5t70.5 145.5h-436z" glyph-name="uni04D9" horiz-adv-x="596" unicode="ә"/><glyph d="M392 -10q-148 0 -248.5 104t-100.5 255v13h660q-4 130 -93 220.5t-218 90.5q-100 0 -178 -56.5t-112 -148.5h-41q35 107 125 174.5t206 67.5q149 0 250 -105t101 -255t-101 -255t-250 -105zM392 27q126 0 215 87.5t96 214.5h-621q6 -128 95.5 -215t214.5 -87zM467 814 q-13 0 -22 9t-9 22t9 22.5t22 9.5t22 -9.5t9 -22.5t-9 -22t-22 -9zM320 814q-13 0 -22.5 9t-9.5 22t9 22.5t23 9.5q12 0 21 -9.5t9 -22.5t-9 -22t-21 -9z" glyph-name="uni04DA" horiz-adv-x="785" unicode="Ӛ"/><glyph d="M298 -5q-105 0 -180 75t-75 176q0 13 1 20h473q-4 91 -68 153t-153 62q-66 0 -120 -34.5t-76 -89.5h-39q26 70 90.5 114t145.5 44q107 0 181.5 -76t74.5 -184t-74.5 -184t-180.5 -76zM372 624q-13 0 -22 9t-9 22t9 22.5t22 9.5t22 -9.5t9 -22.5t-9 -22t-22 -9zM225 624 q-13 0 -22.5 9t-9.5 22t9.5 22.5t22.5 9.5q12 0 21 -9.5t9 -22.5t-9 -22t-21 -9zM80 233q5 -86 68 -145t150 -59q85 0 147.5 58.5t70.5 145.5h-436z" glyph-name="uni04DB" horiz-adv-x="596" unicode="ӛ"/><glyph d="M12 0l305 352l-297 348h47l288 -339v339h38v-338l287 338h47l-297 -348l304 -352h-47l-294 342v-342h-38v343l-296 -343h-47zM447 814q-13 0 -22 9t-9 22t9 22.5t22 9.5t22 -9.5t9 -22.5t-9 -22t-22 -9zM300 814q-13 0 -22.5 9t-9.5 22t9 22.5t23 9.5q12 0 21 -9.5 t9 -22.5t-9 -22t-21 -9z" glyph-name="uni04DC" horiz-adv-x="746" unicode="Ӝ"/><glyph d="M22 0l244 259l-234 251h46l223 -240v240h36v-240l223 240h46l-234 -251l244 -259h-47l-232 248v-247h-36v247l-232 -248h-47zM393 624q-13 0 -22 9t-9 22t9 22.5t22 9.5t22 -9.5t9 -22.5t-9 -22t-22 -9zM246 624q-13 0 -22.5 9t-9.5 22t9 22.5t23 9.5q12 0 21 -9.5 t9 -22.5t-9 -22t-21 -9z" glyph-name="uni04DD" horiz-adv-x="638" unicode="ӝ"/><glyph d="M83 -11v711h37v-614l479 625h2v-711h-37v614l-479 -625h-2zM236 823v29h225v-29h-225z" glyph-name="uni04E2" horiz-adv-x="683" unicode="Ӣ"/><glyph d="M72 -11v521h37v-436l383 447h2v-521h-36v436l-384 -447h-2zM178 633v29h225v-29h-225z" glyph-name="uni04E3" horiz-adv-x="566" unicode="ӣ"/><glyph d="M83 -11v711h37v-614l479 625h2v-711h-37v614l-479 -625h-2zM422 814q-13 0 -22 9t-9 22t9 22.5t22 9.5t22 -9.5t9 -22.5t-9 -22t-22 -9zM275 814q-13 0 -22.5 9t-9.5 22t9.5 22.5t22.5 9.5q12 0 21 -9.5t9 -22.5t-9 -22t-21 -9z" glyph-name="uni04E4" horiz-adv-x="683" unicode="Ӥ"/><glyph d="M72 -11v521h37v-436l383 447h2v-521h-36v436l-384 -447h-2zM364 624q-13 0 -22 9t-9 22t9 22.5t22 9.5t22 -9.5t9 -22.5t-9 -22t-22 -9zM217 624q-13 0 -22.5 9t-9.5 22t9.5 22.5t22.5 9.5q12 0 21 -9.5t9 -22.5t-9 -22t-21 -9z" glyph-name="uni04E5" horiz-adv-x="566" unicode="ӥ"/><glyph d="M393 -10q-149 0 -249.5 105t-100.5 255t100.5 255t249.5 105q148 0 249 -105t101 -255t-101 -255t-249 -105zM393 28q132 0 222 94t90 228t-90 228t-222 94t-222 -94t-90 -228t90 -228t222 -94zM467 814q-13 0 -22 9t-9 22t9 22.5t22 9.5t22 -9.5t9 -22.5t-9 -22t-22 -9z M320 814q-13 0 -22.5 9t-9.5 22t9 22.5t23 9.5q12 0 21 -9.5t9 -22.5t-9 -22t-21 -9z" glyph-name="uni04E6" horiz-adv-x="786" unicode="Ӧ"/><glyph d="M296 -5q-105 0 -179 76.5t-74 183.5q0 109 74 184.5t179 75.5q106 0 180.5 -75.5t74.5 -184.5q0 -107 -74.5 -183.5t-180.5 -76.5zM296 31q91 0 154.5 65.5t63.5 158.5q0 94 -63.5 159t-154.5 65t-154 -65t-63 -159q0 -93 63 -158.5t154 -65.5zM370 624q-13 0 -22 9 t-9 22t9 22.5t22 9.5t22 -9.5t9 -22.5t-9 -22t-22 -9zM223 624q-13 0 -22.5 9t-9.5 22t9.5 22.5t22.5 9.5q12 0 21 -9.5t9 -22.5t-9 -22t-21 -9z" glyph-name="uni04E7" horiz-adv-x="593" unicode="ӧ"/><glyph d="M393 -10q-149 0 -249.5 105t-100.5 255t100.5 255t249.5 105q148 0 249 -105t101 -255t-101 -255t-249 -105zM393 28q128 0 217 89t95 218h-624q6 -129 95 -218t217 -89zM81 367h624q-7 129 -96 217t-216 88t-216 -88t-96 -217z" glyph-name="uni04E8" horiz-adv-x="786" unicode="Ө"/><glyph d="M296 -5q-105 0 -179 76.5t-74 183.5q0 109 74 184.5t179 75.5q106 0 180.5 -75.5t74.5 -184.5q0 -107 -74.5 -183.5t-180.5 -76.5zM296 30q87 0 149 61t67 150h-431q5 -89 66.5 -150t148.5 -61zM512 270q-5 89 -67 149.5t-149 60.5q-86 0 -148 -60.5t-67 -149.5h431z" glyph-name="uni04E9" horiz-adv-x="593" unicode="ө"/><glyph d="M393 -10q-149 0 -249.5 105t-100.5 255t100.5 255t249.5 105q148 0 249 -105t101 -255t-101 -255t-249 -105zM393 28q128 0 217 89t95 218h-624q6 -129 95 -218t217 -89zM467 814q-13 0 -22 9t-9 22t9 22.5t22 9.5t22 -9.5t9 -22.5t-9 -22t-22 -9zM320 814q-13 0 -22.5 9 t-9.5 22t9 22.5t23 9.5q12 0 21 -9.5t9 -22.5t-9 -22t-21 -9zM81 367h624q-7 129 -96 217t-216 88t-216 -88t-96 -217z" glyph-name="uni04EA" horiz-adv-x="786" unicode="Ӫ"/><glyph d="M296 -5q-105 0 -179 76.5t-74 183.5q0 109 74 184.5t179 75.5q106 0 180.5 -75.5t74.5 -184.5q0 -107 -74.5 -183.5t-180.5 -76.5zM296 30q87 0 149 61t67 150h-431q5 -89 66.5 -150t148.5 -61zM512 270q-5 89 -67 149.5t-149 60.5q-86 0 -148 -60.5t-67 -149.5h431z M370 624q-13 0 -22 9t-9 22t9 22.5t22 9.5t22 -9.5t9 -22.5t-9 -22t-22 -9zM223 624q-13 0 -22.5 9t-9.5 22t9.5 22.5t22.5 9.5q12 0 21 -9.5t9 -22.5t-9 -22t-21 -9z" glyph-name="uni04EB" horiz-adv-x="593" unicode="ӫ"/><glyph d="M359 -10q-114 0 -203 61.5t-122 159.5h41q32 -82 109.5 -133t174.5 -51q130 0 218.5 88.5t94.5 217.5h-423v35h423q-6 129 -95 217t-219 88q-97 0 -175 -51.5t-109 -134.5h-40q33 99 122 161t203 62q151 0 252 -104.5t101 -255.5t-101 -255.5t-252 -104.5zM451 814 q-13 0 -22 9t-9 22t9 22.5t22 9.5t22 -9.5t9 -22.5t-9 -22t-22 -9zM304 814q-13 0 -22.5 9t-9.5 22t9 22.5t23 9.5q12 0 21 -9.5t9 -22.5t-9 -22t-21 -9z" glyph-name="uni04EC" horiz-adv-x="754" unicode="Ӭ"/><glyph d="M276 -5q-84 0 -151 49t-92 127h39q24 -63 79.5 -102.5t124.5 -39.5q88 0 150 61t67 149h-249v32h249q-5 89 -67.5 149.5t-149.5 60.5q-70 0 -125 -39t-79 -103h-39q25 78 92 127t151 49q106 0 180 -75.5t74 -183.5t-74 -184.5t-180 -76.5zM358 624q-13 0 -22 9t-9 22 t9 22.5t22 9.5t22 -9.5t9 -22.5t-9 -22t-22 -9zM211 624q-13 0 -22.5 9t-9.5 22t9.5 22.5t22.5 9.5q12 0 21 -9.5t9 -22.5t-9 -22t-21 -9z" glyph-name="uni04ED" horiz-adv-x="573" unicode="ӭ"/><glyph d="M144 0l118 234l-233 466h40l214 -425l214 425h41l-353 -700h-41zM171 823v29h225v-29h-225z" glyph-name="uni04EE" horiz-adv-x="562" unicode="Ӯ"/><glyph d="M142 -250l100 240l-228 520h38l209 -475l197 475h40l-317 -760h-39zM143 633v29h225v-29h-225z" glyph-name="uni04EF" horiz-adv-x="511" unicode="ӯ"/><glyph d="M144 0l118 234l-233 466h40l214 -425l214 425h41l-353 -700h-41zM357 814q-13 0 -22 9t-9 22t9 22.5t22 9.5t22 -9.5t9 -22.5t-9 -22t-22 -9zM210 814q-13 0 -22.5 9t-9.5 22t9 22.5t23 9.5q12 0 21 -9.5t9 -22.5t-9 -22t-21 -9z" glyph-name="uni04F0" horiz-adv-x="562" unicode="Ӱ"/><glyph d="M142 -250l100 240l-228 520h38l209 -475l197 475h40l-317 -760h-39zM329 624q-13 0 -22 9t-9 22t9 22.5t22 9.5t22 -9.5t9 -22.5t-9 -22t-22 -9zM182 624q-13 0 -22.5 9t-9.5 22t9 22.5t23 9.5q12 0 21 -9.5t9 -22.5t-9 -22t-21 -9z" glyph-name="uni04F1" horiz-adv-x="511" unicode="ӱ"/><glyph d="M144 0l118 234l-233 466h40l214 -425l214 425h41l-353 -700h-41zM324 770l74 133h38l-81 -133h-31zM213 770l73 133h38l-80 -133h-31z" glyph-name="uni04F2" horiz-adv-x="562" unicode="Ӳ"/><glyph d="M142 -250l100 240l-228 520h38l209 -475l197 475h40l-317 -760h-39zM296 580l74 133h38l-81 -133h-31zM185 580l73 133h38l-80 -133h-31z" glyph-name="uni04F3" horiz-adv-x="511" unicode="ӳ"/><glyph d="M464 0v312h-388v388h38v-351h350v351h38v-700h-38zM363 814q-13 0 -22 9t-9 22t9 22.5t22 9.5t22 -9.5t9 -22.5t-9 -22t-22 -9zM216 814q-13 0 -22.5 9t-9.5 22t9 22.5t23 9.5q12 0 21 -9.5t9 -22.5t-9 -22t-21 -9z" glyph-name="uni04F4" horiz-adv-x="585" unicode="Ӵ"/><glyph d="M387 0v223h-320v287h37v-252h283v252h37v-510h-37zM319 624q-13 0 -22 9t-9 22t9 22.5t22 9.5t22 -9.5t9 -22.5t-9 -22t-22 -9zM172 624q-13 0 -22.5 9t-9.5 22t9 22.5t23 9.5q12 0 21 -9.5t9 -22.5t-9 -22t-21 -9z" glyph-name="uni04F5" horiz-adv-x="496" unicode="ӵ"/><glyph d="M83 0v700h38v-292h153q94 0 156.5 -54.5t62.5 -149.5t-62.5 -149.5t-156.5 -54.5h-191zM600 0v700h38v-700h-38zM435 814q-13 0 -22 9t-9 22t9 22.5t22 9.5t22 -9.5t9 -22.5t-9 -22t-22 -9zM288 814q-13 0 -22.5 9t-9.5 22t9 22.5t23 9.5q12 0 21 -9.5t9 -22.5t-9 -22 t-21 -9zM121 36h151q82 0 132.5 45.5t50.5 122.5t-50.5 122.5t-132.5 45.5h-151v-336z" glyph-name="uni04F8" horiz-adv-x="721" unicode="Ӹ"/><glyph d="M72 0v510h37v-196h125q73 0 120.5 -44t47.5 -113t-47.5 -113t-120.5 -44h-162zM231 34q59 0 96.5 34t37.5 89t-37.5 89.5t-96.5 34.5h-122v-247h122zM494 0v510h37v-510h-37zM375 624q-13 0 -22 9t-9 22t9 22.5t22 9.5t22 -9.5t9 -22.5t-9 -22t-22 -9zM228 624 q-13 0 -22.5 9t-9.5 22t9 22.5t23 9.5q12 0 21 -9.5t9 -22.5t-9 -22t-21 -9z" glyph-name="uni04F9" horiz-adv-x="603" unicode="ӹ"/><glyph d="M243 -11l-229 711h41l190 -605l189 616h2l188 -616l190 605h41l-229 -711h-2l-189 615l-190 -615h-2z" glyph-name="uni051C" horiz-adv-x="868" unicode="Ԝ"/><glyph d="M201 -11l-192 521h39l156 -430l142 439h2l143 -439l155 430h40l-192 -521h-2l-145 437l-144 -437h-2z" glyph-name="uni051D" horiz-adv-x="695" unicode="ԝ"/><glyph d="M83 0v700h173v102h34v-103q87 -4 140 -46.5t53 -128.5q0 -128 -122 -164q147 -32 147 -177q0 -178 -218 -183v-102h-34v102h-173zM121 36h137v304h-137v-304zM121 374h137v291h-137v-291zM288 36q182 3 182 150q0 149 -182 154v-304zM288 375q157 10 157 145 q0 136 -157 144v-289z" glyph-name="uni0E3F" horiz-adv-x="550" unicode="฿"/><glyph d="M393 -10q-149 0 -249.5 105t-100.5 255q0 151 101 255.5t251 104.5q114 0 203.5 -62.5t122.5 -161.5h-40q-32 83 -110 135t-175 52q-134 0 -224.5 -94t-90.5 -229t90 -229t223 -94q105 0 187 64t112 195h-280v35h327q-25 -165 -122 -248t-225 -83zM281 823v29h225v-29 h-225z" glyph-name="uni1E20" horiz-adv-x="775" unicode="Ḡ"/><glyph d="M173 -250v34h328v360q-28 -67 -85 -108t-131 -41q-103 0 -172.5 75.5t-69.5 184.5t69.5 184.5t172.5 75.5q74 0 131 -41t85 -109v145h37v-760h-365zM290 29q90 0 150.5 65.5t60.5 160.5t-60.5 160.5t-150.5 65.5t-150.5 -65.5t-60.5 -160.5t60.5 -160.5t150.5 -65.5z M184 633v29h225v-29h-225z" glyph-name="uni1E21" horiz-adv-x="610" unicode="ḡ"/><glyph d="M426 -11l-202 606l-143 -595h-39l172 711h2l211 -626l211 626h2l172 -711h-38l-144 595l-202 -606h-2zM412 770l73 133h38l-80 -133h-31z" glyph-name="uni1E3E" horiz-adv-x="854" unicode="Ḿ"/><glyph d="M72 0v510h37v-105q19 52 62.5 81t100.5 29q131 0 163 -135q18 66 65 100.5t109 34.5q76 0 125.5 -52.5t49.5 -168.5v-294h-37v293q0 101 -41.5 144.5t-102.5 43.5q-70 0 -113.5 -47t-43.5 -141v-293h-37v293q0 101 -41 144.5t-103 43.5q-69 0 -112.5 -47t-43.5 -141v-293 h-37zM413 580l73 133h38l-80 -133h-31z" glyph-name="uni1E3F" horiz-adv-x="846" unicode="ḿ"/><glyph d="M599 -11l-479 625v-614h-37v711h2l479 -624v613h37v-711h-2zM341 813q-14 0 -23.5 9.5t-9.5 22.5q0 14 9.5 23.5t23.5 9.5q13 0 22.5 -9.5t9.5 -23.5q0 -13 -9.5 -22.5t-22.5 -9.5z" glyph-name="uni1E44" horiz-adv-x="683" unicode="Ṅ"/><glyph d="M72 0v510h37v-119q22 60 70 92t112 32q86 0 142 -59t56 -182v-274h-36v271q0 110 -48 160t-122 50q-78 0 -126 -53.5t-48 -156.5v-271h-37zM281 623q-14 0 -23.5 9.5t-9.5 22.5q0 14 9.5 23.5t23.5 9.5q13 0 22.5 -9.5t9.5 -23.5q0 -13 -9.5 -22.5t-22.5 -9.5z" glyph-name="uni1E45" unicode="ṅ"/><glyph d="M599 -11l-479 625v-614h-37v711h2l479 -624v613h37v-711h-2zM341 -168q-14 0 -23.5 9.5t-9.5 23.5q0 13 9.5 22.5t23.5 9.5q13 0 22.5 -9.5t9.5 -23.5t-9.5 -23t-22.5 -9z" glyph-name="uni1E46" horiz-adv-x="683" unicode="Ṇ"/><glyph d="M72 0v510h37v-119q22 60 70 92t112 32q86 0 142 -59t56 -182v-274h-36v271q0 110 -48 160t-122 50q-78 0 -126 -53.5t-48 -156.5v-271h-37zM280 -168q-14 0 -23.5 9.5t-9.5 23.5q0 13 9.5 22.5t23.5 9.5q13 0 22.5 -9.5t9.5 -23.5t-9 -23t-23 -9z" glyph-name="uni1E47" unicode="ṇ"/><glyph d="M243 -11l-229 711h41l190 -605l189 616h2l188 -616l190 605h41l-229 -711h-2l-189 615l-190 -615h-2zM419 770l-81 133h38l73 -133h-30z" glyph-name="Wgrave" horiz-adv-x="868" unicode="Ẁ"/><glyph d="M201 -11l-192 521h39l156 -430l142 439h2l143 -439l155 430h40l-192 -521h-2l-145 437l-144 -437h-2zM332 580l-81 133h38l73 -133h-30z" glyph-name="wgrave" horiz-adv-x="695" unicode="ẁ"/><glyph d="M243 -11l-229 711h41l190 -605l189 616h2l188 -616l190 605h41l-229 -711h-2l-189 615l-190 -615h-2zM419 770l73 133h38l-80 -133h-31z" glyph-name="Wacute" horiz-adv-x="868" unicode="Ẃ"/><glyph d="M201 -11l-192 521h39l156 -430l142 439h2l143 -439l155 430h40l-192 -521h-2l-145 437l-144 -437h-2zM332 580l73 133h38l-80 -133h-31z" glyph-name="wacute" horiz-adv-x="695" unicode="ẃ"/><glyph d="M243 -11l-229 711h41l190 -605l189 616h2l188 -616l190 605h41l-229 -711h-2l-189 615l-190 -615h-2zM508 814q-13 0 -22 9t-9 22t9 22.5t22 9.5t22 -9.5t9 -22.5t-9 -22t-22 -9zM361 814q-13 0 -22.5 9t-9.5 22t9.5 22.5t22.5 9.5q12 0 21 -9.5t9 -22.5t-9 -22t-21 -9z " glyph-name="Wdieresis" horiz-adv-x="868" unicode="Ẅ"/><glyph d="M201 -11l-192 521h39l156 -430l142 439h2l143 -439l155 430h40l-192 -521h-2l-145 437l-144 -437h-2zM421 624q-13 0 -22 9t-9 22t9 22.5t22 9.5t22 -9.5t9 -22.5t-9 -22t-22 -9zM274 624q-13 0 -22.5 9t-9.5 22t9 22.5t23 9.5q12 0 21 -9.5t9 -22.5t-9 -22t-21 -9z" glyph-name="wdieresis" horiz-adv-x="695" unicode="ẅ"/><glyph d="M44 0l455 664h-424v36h489l-454 -664h444v-36h-510zM299 -168q-14 0 -23.5 9.5t-9.5 23.5q0 13 9.5 22.5t23.5 9.5q13 0 22.5 -9.5t9.5 -23.5t-9.5 -23t-22.5 -9z" glyph-name="uni1E92" horiz-adv-x="597" unicode="Ẓ"/><glyph d="M39 0l347 476h-322v34h390l-348 -476h338v-34h-405zM241 -168q-14 0 -23.5 9.5t-9.5 23.5q0 13 9.5 22.5t23.5 9.5q13 0 22.5 -9.5t9.5 -23.5t-9.5 -23t-22.5 -9z" glyph-name="uni1E93" horiz-adv-x="488" unicode="ẓ"/><glyph d="M451 -10q-87 0 -152.5 46.5t-84.5 139.5h39q19 -74 72 -112t125 -38q79 0 126 41.5t47 108.5q0 79 -66.5 120.5t-191.5 65.5l220 302h-464v-664h-38v700h568l-228 -314q238 -51 238 -209q0 -85 -58.5 -136t-151.5 -51z" glyph-name="uni1E9E" horiz-adv-x="722" unicode="ẞ"/><glyph d="M12 0l304 711h2l305 -711h-43l-68 163h-389l-68 -163h-43zM138 198h359l-180 429zM317 -168q-14 0 -23.5 9.5t-9.5 23.5q0 13 9.5 22.5t23.5 9.5q13 0 22.5 -9.5t9.5 -23.5t-9.5 -23t-22.5 -9z" glyph-name="uni1EA0" horiz-adv-x="635" unicode="Ạ"/><glyph d="M285 -5q-103 0 -172.5 75.5t-69.5 184.5t69.5 184.5t172.5 75.5q74 0 131 -41t85 -109v145h37v-510h-37v144q-28 -67 -85 -108t-131 -41zM290 29q90 0 150.5 65.5t60.5 160.5t-60.5 160.5t-150.5 65.5t-150.5 -65.5t-60.5 -160.5t60.5 -160.5t150.5 -65.5zM301 -168 q-14 0 -23.5 9.5t-9.5 23.5q0 13 9.5 22.5t23.5 9.5q13 0 22.5 -9.5t9.5 -23.5t-9.5 -23t-22.5 -9z" glyph-name="uni1EA1" horiz-adv-x="610" unicode="ạ"/><glyph d="M12 0l304 711h2l305 -711h-43l-68 163h-389l-68 -163h-43zM138 198h359l-180 429zM304 769v56h9q27 0 43.5 14.5t16.5 37.5q0 21 -14.5 36t-42.5 15q-49 0 -58 -39h-28q4 29 28 47t58 18q37 0 60.5 -21.5t23.5 -54.5q0 -30 -20 -50.5t-51 -23.5v-35h-25z" glyph-name="uni1EA2" horiz-adv-x="635" unicode="Ả"/><glyph d="M285 -5q-103 0 -172.5 75.5t-69.5 184.5t69.5 184.5t172.5 75.5q74 0 131 -41t85 -109v145h37v-510h-37v144q-28 -67 -85 -108t-131 -41zM290 29q90 0 150.5 65.5t60.5 160.5t-60.5 160.5t-150.5 65.5t-150.5 -65.5t-60.5 -160.5t60.5 -160.5t150.5 -65.5zM287 579v56h9 q27 0 43.5 14.5t16.5 37.5q0 21 -14.5 36t-42.5 15q-49 0 -58 -39h-28q4 29 28 47t58 18q37 0 60.5 -21.5t23.5 -54.5q0 -30 -20 -50.5t-51 -23.5v-35h-25z" glyph-name="uni1EA3" horiz-adv-x="610" unicode="ả"/><glyph d="M12 0l304 711h2l305 -711h-43l-68 163h-389l-68 -163h-43zM138 198h359l-180 429zM205 770l89 133h45l89 -133h-36l-75 116l-75 -116h-37zM418 841l52 114h37l-60 -114h-29z" glyph-name="uni1EA4" horiz-adv-x="635" unicode="Ấ"/><glyph d="M285 -5q-103 0 -172.5 75.5t-69.5 184.5t69.5 184.5t172.5 75.5q74 0 131 -41t85 -109v145h37v-510h-37v144q-28 -67 -85 -108t-131 -41zM290 29q90 0 150.5 65.5t60.5 160.5t-60.5 160.5t-150.5 65.5t-150.5 -65.5t-60.5 -160.5t60.5 -160.5t150.5 -65.5zM188 580 l89 133h45l89 -133h-36l-75 116l-75 -116h-37zM401 651l52 114h37l-60 -114h-29z" glyph-name="uni1EA5" horiz-adv-x="610" unicode="ấ"/><glyph d="M12 0l304 711h2l305 -711h-43l-68 163h-389l-68 -163h-43zM138 198h359l-180 429zM205 770l89 133h45l89 -133h-36l-75 116l-75 -116h-37zM463 841l-60 114h36l53 -114h-29z" glyph-name="uni1EA6" horiz-adv-x="635" unicode="Ầ"/><glyph d="M285 -5q-103 0 -172.5 75.5t-69.5 184.5t69.5 184.5t172.5 75.5q74 0 131 -41t85 -109v145h37v-510h-37v144q-28 -67 -85 -108t-131 -41zM290 29q90 0 150.5 65.5t60.5 160.5t-60.5 160.5t-150.5 65.5t-150.5 -65.5t-60.5 -160.5t60.5 -160.5t150.5 -65.5zM188 580 l89 133h45l89 -133h-36l-75 116l-75 -116h-37zM446 651l-60 114h36l53 -114h-29z" glyph-name="uni1EA7" horiz-adv-x="610" unicode="ầ"/><glyph d="M12 0l304 711h2l305 -711h-43l-68 163h-389l-68 -163h-43zM138 198h359l-180 429zM427 844v51h8q27 0 44 13.5t17 33.5t-14.5 33.5t-42.5 13.5q-49 0 -58 -39h-28q4 29 28 46.5t59 17.5q37 0 60 -19.5t23 -49.5q0 -29 -20 -47.5t-50 -20.5v-33h-26zM205 770l89 133h45 l89 -133h-36l-75 116l-75 -116h-37z" glyph-name="uni1EA8" horiz-adv-x="635" unicode="Ẩ"/><glyph d="M285 -5q-103 0 -172.5 75.5t-69.5 184.5t69.5 184.5t172.5 75.5q74 0 131 -41t85 -109v145h37v-510h-37v144q-28 -67 -85 -108t-131 -41zM290 29q90 0 150.5 65.5t60.5 160.5t-60.5 160.5t-150.5 65.5t-150.5 -65.5t-60.5 -160.5t60.5 -160.5t150.5 -65.5zM410 654v51h8 q27 0 44 13.5t17 33.5t-14.5 33.5t-42.5 13.5q-49 0 -58 -39h-28q4 29 28 46.5t59 17.5q37 0 60 -19.5t23 -49.5q0 -29 -20 -47.5t-50 -20.5v-33h-26zM188 580l89 133h45l89 -133h-36l-75 116l-75 -116h-37z" glyph-name="uni1EA9" horiz-adv-x="610" unicode="ẩ"/><glyph d="M12 0l304 711h2l305 -711h-43l-68 163h-389l-68 -163h-43zM138 198h359l-180 429zM205 770l90 113h44l89 -113h-37l-74 97l-74 -97h-38zM205 911q4 78 62 78q27 0 53.5 -26t45.5 -26q30 0 36 52h26q-4 -78 -60 -78q-28 0 -54.5 26.5t-45.5 26.5q-34 0 -37 -53h-26z" glyph-name="uni1EAA" horiz-adv-x="635" unicode="Ẫ"/><glyph d="M285 -5q-103 0 -172.5 75.5t-69.5 184.5t69.5 184.5t172.5 75.5q74 0 131 -41t85 -109v145h37v-510h-37v144q-28 -67 -85 -108t-131 -41zM290 29q90 0 150.5 65.5t60.5 160.5t-60.5 160.5t-150.5 65.5t-150.5 -65.5t-60.5 -160.5t60.5 -160.5t150.5 -65.5zM188 580 l90 113h44l89 -113h-37l-74 97l-74 -97h-38zM188 721q4 78 62 78q27 0 53.5 -26t45.5 -26q30 0 36 52h26q-4 -78 -60 -78q-28 0 -54.5 26.5t-45.5 26.5q-34 0 -37 -53h-26z" glyph-name="uni1EAB" horiz-adv-x="610" unicode="ẫ"/><glyph d="M12 0l304 711h2l305 -711h-43l-68 163h-389l-68 -163h-43zM138 198h359l-180 429zM317 -168q-14 0 -23.5 9.5t-9.5 23.5q0 13 9.5 22.5t23.5 9.5q13 0 22.5 -9.5t9.5 -23.5t-9.5 -23t-22.5 -9zM205 770l89 133h45l89 -133h-36l-75 116l-75 -116h-37z" glyph-name="uni1EAC" horiz-adv-x="635" unicode="Ậ"/><glyph d="M285 -5q-103 0 -172.5 75.5t-69.5 184.5t69.5 184.5t172.5 75.5q74 0 131 -41t85 -109v145h37v-510h-37v144q-28 -67 -85 -108t-131 -41zM290 29q90 0 150.5 65.5t60.5 160.5t-60.5 160.5t-150.5 65.5t-150.5 -65.5t-60.5 -160.5t60.5 -160.5t150.5 -65.5zM301 -168 q-14 0 -23.5 9.5t-9.5 23.5q0 13 9.5 22.5t23.5 9.5q13 0 22.5 -9.5t9.5 -23.5t-9.5 -23t-22.5 -9zM188 580l89 133h45l89 -133h-36l-75 116l-75 -116h-37z" glyph-name="uni1EAD" horiz-adv-x="610" unicode="ậ"/><glyph d="M12 0l304 711h2l305 -711h-43l-68 163h-389l-68 -163h-43zM138 198h359l-180 429zM317 759q-53 0 -81 35t-28 99h28q0 -107 81 -107t81 107h28q0 -64 -28 -99t-81 -35zM302 903l53 113h36l-60 -113h-29z" glyph-name="uni1EAE" horiz-adv-x="635" unicode="Ắ"/><glyph d="M285 -5q-103 0 -172.5 75.5t-69.5 184.5t69.5 184.5t172.5 75.5q74 0 131 -41t85 -109v145h37v-510h-37v144q-28 -67 -85 -108t-131 -41zM290 29q90 0 150.5 65.5t60.5 160.5t-60.5 160.5t-150.5 65.5t-150.5 -65.5t-60.5 -160.5t60.5 -160.5t150.5 -65.5zM300 569 q-53 0 -81 35t-28 99h28q0 -107 81 -107t81 107h28q0 -64 -28 -99t-81 -35zM285 713l53 113h36l-60 -113h-29z" glyph-name="uni1EAF" horiz-adv-x="610" unicode="ắ"/><glyph d="M12 0l304 711h2l305 -711h-43l-68 163h-389l-68 -163h-43zM138 198h359l-180 429zM317 759q-53 0 -81 35t-28 99h28q0 -107 81 -107t81 107h28q0 -64 -28 -99t-81 -35zM303 903l-59 113h36l52 -113h-29z" glyph-name="uni1EB0" horiz-adv-x="635" unicode="Ằ"/><glyph d="M285 -5q-103 0 -172.5 75.5t-69.5 184.5t69.5 184.5t172.5 75.5q74 0 131 -41t85 -109v145h37v-510h-37v144q-28 -67 -85 -108t-131 -41zM290 29q90 0 150.5 65.5t60.5 160.5t-60.5 160.5t-150.5 65.5t-150.5 -65.5t-60.5 -160.5t60.5 -160.5t150.5 -65.5zM300 569 q-53 0 -81 35t-28 99h28q0 -107 81 -107t81 107h28q0 -64 -28 -99t-81 -35zM286 713l-59 113h36l52 -113h-29z" glyph-name="uni1EB1" horiz-adv-x="610" unicode="ằ"/><glyph d="M12 0l304 711h2l305 -711h-43l-68 163h-389l-68 -163h-43zM138 198h359l-180 429zM305 877v43h8q27 0 43.5 12t16.5 31t-14 31t-42 12q-49 0 -58 -39h-29q5 29 29 46.5t59 17.5q36 0 59 -18t23 -47q0 -27 -19.5 -44.5t-50.5 -19.5v-25h-25zM317 759q-53 0 -81 31t-28 87 h28q0 -91 81 -91t81 91h28q0 -56 -28 -87t-81 -31z" glyph-name="uni1EB2" horiz-adv-x="635" unicode="Ẳ"/><glyph d="M285 -5q-103 0 -172.5 75.5t-69.5 184.5t69.5 184.5t172.5 75.5q74 0 131 -41t85 -109v145h37v-510h-37v144q-28 -67 -85 -108t-131 -41zM290 29q90 0 150.5 65.5t60.5 160.5t-60.5 160.5t-150.5 65.5t-150.5 -65.5t-60.5 -160.5t60.5 -160.5t150.5 -65.5zM288 687v43h8 q27 0 43.5 12t16.5 31t-14 31t-42 12q-49 0 -58 -39h-29q5 29 29 46.5t59 17.5q36 0 59 -18t23 -47q0 -27 -19.5 -44.5t-50.5 -19.5v-25h-25zM300 569q-53 0 -81 31t-28 87h28q0 -91 81 -91t81 91h28q0 -56 -28 -87t-81 -31z" glyph-name="uni1EB3" horiz-adv-x="610" unicode="ẳ"/><glyph d="M12 0l304 711h2l305 -711h-43l-68 163h-389l-68 -163h-43zM138 198h359l-180 429zM317 759q-53 0 -81 31t-28 87h28q0 -91 81 -91t81 91h28q0 -56 -28 -87t-81 -31zM208 901q4 78 60 78q27 0 52 -26t43 -26q33 0 37 52h26q-4 -78 -60 -78q-27 0 -52 26.5t-43 26.5 q-33 0 -37 -53h-26z" glyph-name="uni1EB4" horiz-adv-x="635" unicode="Ẵ"/><glyph d="M285 -5q-103 0 -172.5 75.5t-69.5 184.5t69.5 184.5t172.5 75.5q74 0 131 -41t85 -109v145h37v-510h-37v144q-28 -67 -85 -108t-131 -41zM290 29q90 0 150.5 65.5t60.5 160.5t-60.5 160.5t-150.5 65.5t-150.5 -65.5t-60.5 -160.5t60.5 -160.5t150.5 -65.5zM300 569 q-53 0 -81 31t-28 87h28q0 -91 81 -91t81 91h28q0 -56 -28 -87t-81 -31zM191 711q4 78 60 78q27 0 52 -26t43 -26q33 0 37 52h26q-4 -78 -60 -78q-27 0 -52 26.5t-43 26.5q-33 0 -37 -53h-26z" glyph-name="uni1EB5" horiz-adv-x="610" unicode="ẵ"/><glyph d="M12 0l304 711h2l305 -711h-43l-68 163h-389l-68 -163h-43zM138 198h359l-180 429zM317 -168q-14 0 -23.5 9.5t-9.5 23.5q0 13 9.5 22.5t23.5 9.5q13 0 22.5 -9.5t9.5 -23.5t-9.5 -23t-22.5 -9zM317 769q-53 0 -81 35t-28 99h29q0 -107 80 -107q81 0 81 107h28 q0 -64 -28 -99t-81 -35z" glyph-name="uni1EB6" horiz-adv-x="635" unicode="Ặ"/><glyph d="M285 -5q-103 0 -172.5 75.5t-69.5 184.5t69.5 184.5t172.5 75.5q74 0 131 -41t85 -109v145h37v-510h-37v144q-28 -67 -85 -108t-131 -41zM290 29q90 0 150.5 65.5t60.5 160.5t-60.5 160.5t-150.5 65.5t-150.5 -65.5t-60.5 -160.5t60.5 -160.5t150.5 -65.5zM301 -168 q-14 0 -23.5 9.5t-9.5 23.5q0 13 9.5 22.5t23.5 9.5q13 0 22.5 -9.5t9.5 -23.5t-9.5 -23t-22.5 -9zM300 579q-53 0 -81 35t-28 99h29q0 -107 80 -107q81 0 81 107h28q0 -64 -28 -99t-81 -35z" glyph-name="uni1EB7" horiz-adv-x="610" unicode="ặ"/><glyph d="M83 0v700h415v-37h-377v-290h342v-35h-342v-301h377v-37h-415zM294 -168q-14 0 -23.5 9.5t-9.5 23.5q0 13 9.5 22.5t23.5 9.5q13 0 22.5 -9.5t9.5 -23.5t-9 -23t-23 -9z" glyph-name="uni1EB8" horiz-adv-x="546" unicode="Ẹ"/><glyph d="M299 -5q-107 0 -181.5 76t-74.5 184t74.5 184t180.5 76q105 0 180 -75t75 -176q0 -13 -1 -20h-473q4 -91 68 -153t153 -62q66 0 119.5 34.5t76.5 89.5h39q-26 -70 -90.5 -114t-145.5 -44zM293 -168q-14 0 -23.5 9.5t-9.5 23.5q0 13 9.5 22.5t23.5 9.5q13 0 22.5 -9.5 t9.5 -23.5t-9.5 -23t-22.5 -9zM80 277h436q-6 86 -68.5 145t-149.5 59q-86 0 -148 -58.5t-70 -145.5z" glyph-name="uni1EB9" horiz-adv-x="596" unicode="ẹ"/><glyph d="M83 0v700h415v-37h-377v-290h342v-35h-342v-301h377v-37h-415zM285 769v56h9q27 0 43.5 14.5t16.5 37.5q0 21 -14.5 36t-42.5 15q-49 0 -58 -39h-28q4 29 28 47t58 18q37 0 60.5 -21.5t23.5 -54.5q0 -30 -20 -50.5t-51 -23.5v-35h-25z" glyph-name="uni1EBA" horiz-adv-x="546" unicode="Ẻ"/><glyph d="M299 -5q-107 0 -181.5 76t-74.5 184t74.5 184t180.5 76q105 0 180 -75t75 -176q0 -13 -1 -20h-473q4 -91 68 -153t153 -62q66 0 119.5 34.5t76.5 89.5h39q-26 -70 -90.5 -114t-145.5 -44zM280 579v56h9q27 0 43.5 14.5t16.5 37.5q0 21 -14.5 36t-42.5 15q-49 0 -58 -39 h-28q4 29 28 47t58 18q37 0 60.5 -21.5t23.5 -54.5q0 -30 -20 -50.5t-51 -23.5v-35h-25zM80 277h436q-6 86 -68.5 145t-149.5 59q-86 0 -148 -58.5t-70 -145.5z" glyph-name="uni1EBB" horiz-adv-x="596" unicode="ẻ"/><glyph d="M83 0v700h415v-37h-377v-290h342v-35h-342v-301h377v-37h-415zM187 795q4 100 61 100q22 0 38.5 -17.5t30.5 -35t31 -17.5q33 0 37 70h25q-4 -100 -61 -100q-22 0 -38.5 17.5t-30.5 35t-31 17.5q-32 0 -36 -70h-26z" glyph-name="uni1EBC" horiz-adv-x="546" unicode="Ẽ"/><glyph d="M299 -5q-107 0 -181.5 76t-74.5 184t74.5 184t180.5 76q105 0 180 -75t75 -176q0 -13 -1 -20h-473q4 -91 68 -153t153 -62q66 0 119.5 34.5t76.5 89.5h39q-26 -70 -90.5 -114t-145.5 -44zM182 605q4 100 61 100q22 0 38.5 -17.5t30.5 -35t31 -17.5q33 0 37 70h25 q-4 -100 -61 -100q-22 0 -38.5 17.5t-30.5 35t-31 17.5q-32 0 -36 -70h-26zM80 277h436q-6 86 -68.5 145t-149.5 59q-86 0 -148 -58.5t-70 -145.5z" glyph-name="uni1EBD" horiz-adv-x="596" unicode="ẽ"/><glyph d="M83 0v700h415v-37h-377v-290h342v-35h-342v-301h377v-37h-415zM187 770l89 133h45l89 -133h-36l-75 116l-75 -116h-37zM400 841l52 114h37l-60 -114h-29z" glyph-name="uni1EBE" horiz-adv-x="546" unicode="Ế"/><glyph d="M299 -5q-107 0 -181.5 76t-74.5 184t74.5 184t180.5 76q105 0 180 -75t75 -176q0 -13 -1 -20h-473q4 -91 68 -153t153 -62q66 0 119.5 34.5t76.5 89.5h39q-26 -70 -90.5 -114t-145.5 -44zM182 580l89 133h45l89 -133h-36l-75 116l-75 -116h-37zM395 651l52 114h37 l-60 -114h-29zM80 277h436q-6 86 -68.5 145t-149.5 59q-86 0 -148 -58.5t-70 -145.5z" glyph-name="uni1EBF" horiz-adv-x="596" unicode="ế"/><glyph d="M83 0v700h415v-37h-377v-290h342v-35h-342v-301h377v-37h-415zM187 770l89 133h45l89 -133h-36l-75 116l-75 -116h-37zM445 841l-60 114h36l53 -114h-29z" glyph-name="uni1EC0" horiz-adv-x="546" unicode="Ề"/><glyph d="M299 -5q-107 0 -181.5 76t-74.5 184t74.5 184t180.5 76q105 0 180 -75t75 -176q0 -13 -1 -20h-473q4 -91 68 -153t153 -62q66 0 119.5 34.5t76.5 89.5h39q-26 -70 -90.5 -114t-145.5 -44zM182 580l89 133h45l89 -133h-36l-75 116l-75 -116h-37zM440 651l-60 114h36 l53 -114h-29zM80 277h436q-6 86 -68.5 145t-149.5 59q-86 0 -148 -58.5t-70 -145.5z" glyph-name="uni1EC1" horiz-adv-x="596" unicode="ề"/><glyph d="M83 0v700h415v-37h-377v-290h342v-35h-342v-301h377v-37h-415zM409 844v51h8q27 0 44 13.5t17 33.5t-14.5 33.5t-42.5 13.5q-49 0 -58 -39h-28q4 29 28 46.5t59 17.5q37 0 60 -19.5t23 -49.5q0 -29 -20 -47.5t-50 -20.5v-33h-26zM187 770l89 133h45l89 -133h-36l-75 116 l-75 -116h-37z" glyph-name="uni1EC2" horiz-adv-x="546" unicode="Ể"/><glyph d="M299 -5q-107 0 -181.5 76t-74.5 184t74.5 184t180.5 76q105 0 180 -75t75 -176q0 -13 -1 -20h-473q4 -91 68 -153t153 -62q66 0 119.5 34.5t76.5 89.5h39q-26 -70 -90.5 -114t-145.5 -44zM404 654v51h8q27 0 44 13.5t17 33.5t-14.5 33.5t-42.5 13.5q-49 0 -58 -39h-28 q4 29 28 46.5t59 17.5q37 0 60 -19.5t23 -49.5q0 -29 -20 -47.5t-50 -20.5v-33h-26zM182 580l89 133h45l89 -133h-36l-75 116l-75 -116h-37zM80 277h436q-6 86 -68.5 145t-149.5 59q-86 0 -148 -58.5t-70 -145.5z" glyph-name="uni1EC3" horiz-adv-x="596" unicode="ể"/><glyph d="M83 0v700h415v-37h-377v-290h342v-35h-342v-301h377v-37h-415zM186 770l90 113h44l89 -113h-37l-74 97l-74 -97h-38zM186 911q4 78 62 78q27 0 53.5 -26t45.5 -26q30 0 36 52h26q-4 -78 -60 -78q-28 0 -54.5 26.5t-45.5 26.5q-34 0 -37 -53h-26z" glyph-name="uni1EC4" horiz-adv-x="546" unicode="Ễ"/><glyph d="M299 -5q-107 0 -181.5 76t-74.5 184t74.5 184t180.5 76q105 0 180 -75t75 -176q0 -13 -1 -20h-473q4 -91 68 -153t153 -62q66 0 119.5 34.5t76.5 89.5h39q-26 -70 -90.5 -114t-145.5 -44zM181 580l90 113h44l89 -113h-37l-74 97l-74 -97h-38zM181 721q4 78 62 78 q27 0 53.5 -26t45.5 -26q30 0 36 52h26q-4 -78 -60 -78q-28 0 -54.5 26.5t-45.5 26.5q-34 0 -37 -53h-26zM80 277h436q-6 86 -68.5 145t-149.5 59q-86 0 -148 -58.5t-70 -145.5z" glyph-name="uni1EC5" horiz-adv-x="596" unicode="ễ"/><glyph d="M83 0v700h415v-37h-377v-290h342v-35h-342v-301h377v-37h-415zM294 -168q-14 0 -23.5 9.5t-9.5 23.5q0 13 9.5 22.5t23.5 9.5q13 0 22.5 -9.5t9.5 -23.5t-9 -23t-23 -9zM187 770l89 133h45l89 -133h-36l-75 116l-75 -116h-37z" glyph-name="uni1EC6" horiz-adv-x="546" unicode="Ệ"/><glyph d="M299 -5q-107 0 -181.5 76t-74.5 184t74.5 184t180.5 76q105 0 180 -75t75 -176q0 -13 -1 -20h-473q4 -91 68 -153t153 -62q66 0 119.5 34.5t76.5 89.5h39q-26 -70 -90.5 -114t-145.5 -44zM293 -168q-14 0 -23.5 9.5t-9.5 23.5q0 13 9.5 22.5t23.5 9.5q13 0 22.5 -9.5 t9.5 -23.5t-9.5 -23t-22.5 -9zM182 580l89 133h45l89 -133h-36l-75 116l-75 -116h-37zM80 277h436q-6 86 -68.5 145t-149.5 59q-86 0 -148 -58.5t-70 -145.5z" glyph-name="uni1EC7" horiz-adv-x="596" unicode="ệ"/><glyph d="M83 0v700h38v-700h-38zM88 769v56h9q27 0 43.5 14.5t16.5 37.5q0 21 -14.5 36t-42.5 15q-49 0 -58 -39h-28q4 29 28 47t58 18q37 0 60.5 -21.5t23.5 -54.5q0 -30 -20 -50.5t-51 -23.5v-35h-25z" glyph-name="uni1EC8" horiz-adv-x="204" unicode="Ỉ"/><glyph d="M72 0v510h37v-510h-37zM77 579v56h9q27 0 43.5 14.5t16.5 37.5q0 21 -14.5 36t-42.5 15q-49 0 -58 -39h-28q4 29 28 47t58 18q37 0 60.5 -21.5t23.5 -54.5q0 -30 -20 -50.5t-51 -23.5v-35h-25z" glyph-name="uni1EC9" horiz-adv-x="180" unicode="ỉ"/><glyph d="M83 0v700h38v-700h-38zM98 -168q-14 0 -23.5 9.5t-9.5 23.5q0 13 9.5 22.5t23.5 9.5q13 0 22.5 -9.5t9.5 -23.5t-9 -23t-23 -9z" glyph-name="uni1ECA" horiz-adv-x="204" unicode="Ị"/><glyph d="M72 0v510h37v-510h-37zM91 623q-14 0 -23.5 9.5t-9.5 22.5q0 14 9.5 23.5t23.5 9.5q13 0 22.5 -9.5t9.5 -23.5q0 -13 -9.5 -22.5t-22.5 -9.5zM91 -168q-14 0 -23.5 9.5t-9.5 23.5q0 13 9.5 22.5t23.5 9.5q13 0 22.5 -9.5t9.5 -23.5t-9.5 -23t-22.5 -9z" glyph-name="uni1ECB" horiz-adv-x="180" unicode="ị"/><glyph d="M393 -10q-149 0 -249.5 105t-100.5 255t100.5 255t249.5 105q148 0 249 -105t101 -255t-101 -255t-249 -105zM393 28q132 0 222 94t90 228t-90 228t-222 94t-222 -94t-90 -228t90 -228t222 -94zM393 -168q-14 0 -23.5 9.5t-9.5 23.5q0 13 9.5 22.5t23.5 9.5 q13 0 22.5 -9.5t9.5 -23.5t-9.5 -23t-22.5 -9z" glyph-name="uni1ECC" horiz-adv-x="786" unicode="Ọ"/><glyph d="M296 -5q-105 0 -179 76.5t-74 183.5q0 109 74 184.5t179 75.5q106 0 180.5 -75.5t74.5 -184.5q0 -107 -74.5 -183.5t-180.5 -76.5zM296 31q91 0 154.5 65.5t63.5 158.5q0 94 -63.5 159t-154.5 65t-154 -65t-63 -159q0 -93 63 -158.5t154 -65.5zM296 -168q-14 0 -23.5 9.5 t-9.5 23.5q0 13 9.5 22.5t23.5 9.5q13 0 22.5 -9.5t9.5 -23.5t-9 -23t-23 -9z" glyph-name="uni1ECD" horiz-adv-x="593" unicode="ọ"/><glyph d="M393 -10q-149 0 -249.5 105t-100.5 255t100.5 255t249.5 105q148 0 249 -105t101 -255t-101 -255t-249 -105zM393 28q132 0 222 94t90 228t-90 228t-222 94t-222 -94t-90 -228t90 -228t222 -94zM380 769v56h9q27 0 43.5 14.5t16.5 37.5q0 21 -14.5 36t-42.5 15 q-49 0 -58 -39h-28q4 29 28 47t58 18q37 0 60.5 -21.5t23.5 -54.5q0 -30 -20 -50.5t-51 -23.5v-35h-25z" glyph-name="uni1ECE" horiz-adv-x="786" unicode="Ỏ"/><glyph d="M296 -5q-105 0 -179 76.5t-74 183.5q0 109 74 184.5t179 75.5q106 0 180.5 -75.5t74.5 -184.5q0 -107 -74.5 -183.5t-180.5 -76.5zM296 31q91 0 154.5 65.5t63.5 158.5q0 94 -63.5 159t-154.5 65t-154 -65t-63 -159q0 -93 63 -158.5t154 -65.5zM283 579v56h9 q27 0 43.5 14.5t16.5 37.5q0 21 -14.5 36t-42.5 15q-49 0 -58 -39h-28q4 29 28 47t58 18q37 0 60.5 -21.5t23.5 -54.5q0 -30 -20 -50.5t-51 -23.5v-35h-25z" glyph-name="uni1ECF" horiz-adv-x="593" unicode="ỏ"/><glyph d="M393 -10q-149 0 -249.5 105t-100.5 255t100.5 255t249.5 105q148 0 249 -105t101 -255t-101 -255t-249 -105zM393 28q132 0 222 94t90 228t-90 228t-222 94t-222 -94t-90 -228t90 -228t222 -94zM281 770l89 133h45l89 -133h-36l-75 116l-75 -116h-37zM494 841l52 114h37 l-60 -114h-29z" glyph-name="uni1ED0" horiz-adv-x="786" unicode="Ố"/><glyph d="M296 -5q-105 0 -179 76.5t-74 183.5q0 109 74 184.5t179 75.5q106 0 180.5 -75.5t74.5 -184.5q0 -107 -74.5 -183.5t-180.5 -76.5zM296 31q91 0 154.5 65.5t63.5 158.5q0 94 -63.5 159t-154.5 65t-154 -65t-63 -159q0 -93 63 -158.5t154 -65.5zM184 580l89 133h45 l89 -133h-36l-75 116l-75 -116h-37zM397 651l52 114h37l-60 -114h-29z" glyph-name="uni1ED1" horiz-adv-x="593" unicode="ố"/><glyph d="M393 -10q-149 0 -249.5 105t-100.5 255t100.5 255t249.5 105q148 0 249 -105t101 -255t-101 -255t-249 -105zM393 28q132 0 222 94t90 228t-90 228t-222 94t-222 -94t-90 -228t90 -228t222 -94zM281 770l89 133h45l89 -133h-36l-75 116l-75 -116h-37zM539 841l-60 114h36 l53 -114h-29z" glyph-name="uni1ED2" horiz-adv-x="786" unicode="Ồ"/><glyph d="M296 -5q-105 0 -179 76.5t-74 183.5q0 109 74 184.5t179 75.5q106 0 180.5 -75.5t74.5 -184.5q0 -107 -74.5 -183.5t-180.5 -76.5zM296 31q91 0 154.5 65.5t63.5 158.5q0 94 -63.5 159t-154.5 65t-154 -65t-63 -159q0 -93 63 -158.5t154 -65.5zM184 580l89 133h45 l89 -133h-36l-75 116l-75 -116h-37zM442 651l-60 114h36l53 -114h-29z" glyph-name="uni1ED3" horiz-adv-x="593" unicode="ồ"/><glyph d="M393 -10q-149 0 -249.5 105t-100.5 255t100.5 255t249.5 105q148 0 249 -105t101 -255t-101 -255t-249 -105zM393 28q132 0 222 94t90 228t-90 228t-222 94t-222 -94t-90 -228t90 -228t222 -94zM503 844v51h8q27 0 44 13.5t17 33.5t-14.5 33.5t-42.5 13.5q-49 0 -58 -39 h-28q4 29 28 46.5t59 17.5q37 0 60 -19.5t23 -49.5q0 -29 -20 -47.5t-50 -20.5v-33h-26zM281 770l89 133h45l89 -133h-36l-75 116l-75 -116h-37z" glyph-name="uni1ED4" horiz-adv-x="786" unicode="Ổ"/><glyph d="M296 -5q-105 0 -179 76.5t-74 183.5q0 109 74 184.5t179 75.5q106 0 180.5 -75.5t74.5 -184.5q0 -107 -74.5 -183.5t-180.5 -76.5zM296 31q91 0 154.5 65.5t63.5 158.5q0 94 -63.5 159t-154.5 65t-154 -65t-63 -159q0 -93 63 -158.5t154 -65.5zM406 654v51h8 q27 0 44 13.5t17 33.5t-14.5 33.5t-42.5 13.5q-49 0 -58 -39h-28q4 29 28 46.5t59 17.5q37 0 60 -19.5t23 -49.5q0 -29 -20 -47.5t-50 -20.5v-33h-26zM184 580l89 133h45l89 -133h-36l-75 116l-75 -116h-37z" glyph-name="uni1ED5" horiz-adv-x="593" unicode="ổ"/><glyph d="M393 -10q-149 0 -249.5 105t-100.5 255t100.5 255t249.5 105q148 0 249 -105t101 -255t-101 -255t-249 -105zM393 28q132 0 222 94t90 228t-90 228t-222 94t-222 -94t-90 -228t90 -228t222 -94zM281 770l90 113h44l89 -113h-37l-74 97l-74 -97h-38zM281 911q4 78 62 78 q27 0 53.5 -26t45.5 -26q30 0 36 52h26q-4 -78 -60 -78q-28 0 -54.5 26.5t-45.5 26.5q-34 0 -37 -53h-26z" glyph-name="uni1ED6" horiz-adv-x="786" unicode="Ỗ"/><glyph d="M296 -5q-105 0 -179 76.5t-74 183.5q0 109 74 184.5t179 75.5q106 0 180.5 -75.5t74.5 -184.5q0 -107 -74.5 -183.5t-180.5 -76.5zM296 31q91 0 154.5 65.5t63.5 158.5q0 94 -63.5 159t-154.5 65t-154 -65t-63 -159q0 -93 63 -158.5t154 -65.5zM184 580l90 113h44 l89 -113h-37l-74 97l-74 -97h-38zM184 721q4 78 62 78q27 0 53.5 -26t45.5 -26q30 0 36 52h26q-4 -78 -60 -78q-28 0 -54.5 26.5t-45.5 26.5q-34 0 -37 -53h-26z" glyph-name="uni1ED7" horiz-adv-x="593" unicode="ỗ"/><glyph d="M393 -10q-149 0 -249.5 105t-100.5 255t100.5 255t249.5 105q148 0 249 -105t101 -255t-101 -255t-249 -105zM393 28q132 0 222 94t90 228t-90 228t-222 94t-222 -94t-90 -228t90 -228t222 -94zM393 -168q-14 0 -23.5 9.5t-9.5 23.5q0 13 9.5 22.5t23.5 9.5 q13 0 22.5 -9.5t9.5 -23.5t-9.5 -23t-22.5 -9zM281 770l89 133h45l89 -133h-36l-75 116l-75 -116h-37z" glyph-name="uni1ED8" horiz-adv-x="786" unicode="Ộ"/><glyph d="M296 -5q-105 0 -179 76.5t-74 183.5q0 109 74 184.5t179 75.5q106 0 180.5 -75.5t74.5 -184.5q0 -107 -74.5 -183.5t-180.5 -76.5zM296 31q91 0 154.5 65.5t63.5 158.5q0 94 -63.5 159t-154.5 65t-154 -65t-63 -159q0 -93 63 -158.5t154 -65.5zM296 -168q-14 0 -23.5 9.5 t-9.5 23.5q0 13 9.5 22.5t23.5 9.5q13 0 22.5 -9.5t9.5 -23.5t-9 -23t-23 -9zM184 580l89 133h45l89 -133h-36l-75 116l-75 -116h-37z" glyph-name="uni1ED9" horiz-adv-x="593" unicode="ộ"/><glyph d="M393 -10q-149 0 -249.5 105t-100.5 255q0 151 100.5 255.5t250.5 104.5q45 0 84 -10h139q59 0 59 54q0 34 -22 67h33q19 -32 19 -69q0 -78 -87 -78h-72q89 -44 142.5 -131t53.5 -193q0 -150 -101 -255t-249 -105zM393 28q132 0 222 94t90 228t-90 228t-222 94t-222 -94 t-90 -228t90 -228t222 -94zM378 770l73 133h38l-80 -133h-31z" glyph-name="uni1EDA" horiz-adv-x="786" unicode="Ớ"/><glyph d="M296 -5q-105 0 -179 76.5t-74 184.5t74 183.5t178 75.5q25 0 52 -5h105q59 0 59 54q0 34 -22 67h33q19 -36 19 -68q0 -39 -22.5 -58.5t-60.5 -19.5h-44q63 -33 100 -94t37 -136q0 -107 -74.5 -183.5t-180.5 -76.5zM296 31q91 0 154.5 65.5t63.5 158.5q0 94 -63.5 159 t-154.5 65t-154 -65t-63 -159q0 -93 63 -158.5t154 -65.5zM281 580l73 133h38l-80 -133h-31z" glyph-name="uni1EDB" horiz-adv-x="593" unicode="ớ"/><glyph d="M393 -10q-149 0 -249.5 105t-100.5 255q0 151 100.5 255.5t250.5 104.5q45 0 84 -10h139q59 0 59 54q0 34 -22 67h33q19 -32 19 -69q0 -78 -87 -78h-72q89 -44 142.5 -131t53.5 -193q0 -150 -101 -255t-249 -105zM393 28q132 0 222 94t90 228t-90 228t-222 94t-222 -94 t-90 -228t90 -228t222 -94zM378 770l-81 133h38l73 -133h-30z" glyph-name="uni1EDC" horiz-adv-x="786" unicode="Ờ"/><glyph d="M296 -5q-105 0 -179 76.5t-74 184.5t74 183.5t178 75.5q25 0 52 -5h105q59 0 59 54q0 34 -22 67h33q19 -36 19 -68q0 -39 -22.5 -58.5t-60.5 -19.5h-44q63 -33 100 -94t37 -136q0 -107 -74.5 -183.5t-180.5 -76.5zM296 31q91 0 154.5 65.5t63.5 158.5q0 94 -63.5 159 t-154.5 65t-154 -65t-63 -159q0 -93 63 -158.5t154 -65.5zM281 580l-81 133h38l73 -133h-30z" glyph-name="uni1EDD" horiz-adv-x="593" unicode="ờ"/><glyph d="M393 -10q-149 0 -249.5 105t-100.5 255q0 151 100.5 255.5t250.5 104.5q45 0 84 -10h139q59 0 59 54q0 34 -22 67h33q19 -32 19 -69q0 -78 -87 -78h-72q89 -44 142.5 -131t53.5 -193q0 -150 -101 -255t-249 -105zM393 28q132 0 222 94t90 228t-90 228t-222 94t-222 -94 t-90 -228t90 -228t222 -94zM380 769v56h9q27 0 43.5 14.5t16.5 37.5q0 21 -14.5 36t-42.5 15q-49 0 -58 -39h-28q4 29 28 47t58 18q37 0 60.5 -21.5t23.5 -54.5q0 -30 -20 -50.5t-51 -23.5v-35h-25z" glyph-name="uni1EDE" horiz-adv-x="786" unicode="Ở"/><glyph d="M296 -5q-105 0 -179 76.5t-74 184.5t74 183.5t178 75.5q25 0 52 -5h105q59 0 59 54q0 34 -22 67h33q19 -36 19 -68q0 -39 -22.5 -58.5t-60.5 -19.5h-44q63 -33 100 -94t37 -136q0 -107 -74.5 -183.5t-180.5 -76.5zM296 31q91 0 154.5 65.5t63.5 158.5q0 94 -63.5 159 t-154.5 65t-154 -65t-63 -159q0 -93 63 -158.5t154 -65.5zM283 579v56h9q27 0 43.5 14.5t16.5 37.5q0 21 -14.5 36t-42.5 15q-49 0 -58 -39h-28q4 29 28 47t58 18q37 0 60.5 -21.5t23.5 -54.5q0 -30 -20 -50.5t-51 -23.5v-35h-25z" glyph-name="uni1EDF" horiz-adv-x="593" unicode="ở"/><glyph d="M393 -10q-149 0 -249.5 105t-100.5 255q0 151 100.5 255.5t250.5 104.5q45 0 84 -10h139q59 0 59 54q0 34 -22 67h33q19 -32 19 -69q0 -78 -87 -78h-72q89 -44 142.5 -131t53.5 -193q0 -150 -101 -255t-249 -105zM393 28q132 0 222 94t90 228t-90 228t-222 94t-222 -94 t-90 -228t90 -228t222 -94zM282 795q4 100 61 100q22 0 38.5 -17.5t30.5 -35t31 -17.5q33 0 37 70h25q-4 -100 -61 -100q-22 0 -38.5 17.5t-30.5 35t-31 17.5q-32 0 -36 -70h-26z" glyph-name="uni1EE0" horiz-adv-x="786" unicode="Ỡ"/><glyph d="M296 -5q-105 0 -179 76.5t-74 184.5t74 183.5t178 75.5q25 0 52 -5h105q59 0 59 54q0 34 -22 67h33q19 -36 19 -68q0 -39 -22.5 -58.5t-60.5 -19.5h-44q63 -33 100 -94t37 -136q0 -107 -74.5 -183.5t-180.5 -76.5zM296 31q91 0 154.5 65.5t63.5 158.5q0 94 -63.5 159 t-154.5 65t-154 -65t-63 -159q0 -93 63 -158.5t154 -65.5zM184 605q4 100 61 100q22 0 38.5 -17.5t30.5 -35t31 -17.5q33 0 37 70h25q-4 -100 -61 -100q-22 0 -38.5 17.5t-30.5 35t-31 17.5q-32 0 -36 -70h-26z" glyph-name="uni1EE1" horiz-adv-x="593" unicode="ỡ"/><glyph d="M393 -10q-149 0 -249.5 105t-100.5 255q0 151 100.5 255.5t250.5 104.5q45 0 84 -10h139q59 0 59 54q0 34 -22 67h33q19 -32 19 -69q0 -78 -87 -78h-72q89 -44 142.5 -131t53.5 -193q0 -150 -101 -255t-249 -105zM393 28q132 0 222 94t90 228t-90 228t-222 94t-222 -94 t-90 -228t90 -228t222 -94zM393 -168q-14 0 -23.5 9.5t-9.5 23.5q0 13 9.5 22.5t23.5 9.5q13 0 22.5 -9.5t9.5 -23.5t-9.5 -23t-22.5 -9z" glyph-name="uni1EE2" horiz-adv-x="786" unicode="Ợ"/><glyph d="M296 -5q-105 0 -179 76.5t-74 184.5t74 183.5t178 75.5q25 0 52 -5h105q59 0 59 54q0 34 -22 67h33q19 -36 19 -68q0 -39 -22.5 -58.5t-60.5 -19.5h-44q63 -33 100 -94t37 -136q0 -107 -74.5 -183.5t-180.5 -76.5zM296 31q91 0 154.5 65.5t63.5 158.5q0 94 -63.5 159 t-154.5 65t-154 -65t-63 -159q0 -93 63 -158.5t154 -65.5zM296 -168q-14 0 -23.5 9.5t-9.5 23.5q0 13 9.5 22.5t23.5 9.5q13 0 22.5 -9.5t9.5 -23.5t-9 -23t-23 -9z" glyph-name="uni1EE3" horiz-adv-x="593" unicode="ợ"/><glyph d="M325 -10q-102 0 -177.5 66.5t-75.5 181.5v462h39v-461q0 -100 64.5 -155.5t149.5 -55.5q86 0 151 55.5t65 155.5v461h38v-462q0 -114 -76 -181t-178 -67zM325 -168q-14 0 -23.5 9.5t-9.5 23.5q0 13 9.5 22.5t23.5 9.5q13 0 22.5 -9.5t9.5 -23.5t-9.5 -23t-22.5 -9z" glyph-name="uni1EE4" horiz-adv-x="651" unicode="Ụ"/><glyph d="M261 -5q-86 0 -142 59t-56 182v274h36v-271q0 -110 48.5 -160t121.5 -50q78 0 126.5 53.5t48.5 156.5v271h36v-510h-36v119q-23 -61 -71 -92.5t-112 -31.5zM273 -168q-14 0 -23.5 9.5t-9.5 23.5q0 13 9.5 22.5t23.5 9.5q13 0 22.5 -9.5t9.5 -23.5t-9.5 -23t-22.5 -9z" glyph-name="uni1EE5" unicode="ụ"/><glyph d="M325 -10q-102 0 -177.5 66.5t-75.5 181.5v462h39v-461q0 -100 64.5 -155.5t149.5 -55.5q86 0 151 55.5t65 155.5v461h38v-462q0 -114 -76 -181t-178 -67zM313 769v56h9q27 0 43.5 14.5t16.5 37.5q0 21 -14.5 36t-42.5 15q-49 0 -58 -39h-28q4 29 28 47t58 18 q37 0 60.5 -21.5t23.5 -54.5q0 -30 -20 -50.5t-51 -23.5v-35h-25z" glyph-name="uni1EE6" horiz-adv-x="651" unicode="Ủ"/><glyph d="M261 -5q-86 0 -142 59t-56 182v274h36v-271q0 -110 48.5 -160t121.5 -50q78 0 126.5 53.5t48.5 156.5v271h36v-510h-36v119q-23 -61 -71 -92.5t-112 -31.5zM257 579v56h9q27 0 43.5 14.5t16.5 37.5q0 21 -14.5 36t-42.5 15q-49 0 -58 -39h-28q4 29 28 47t58 18 q37 0 60.5 -21.5t23.5 -54.5q0 -30 -20 -50.5t-51 -23.5v-35h-25z" glyph-name="uni1EE7" unicode="ủ"/><glyph d="M325 -10q-102 0 -177.5 66.5t-75.5 181.5v462h39v-461q0 -100 64.5 -155.5t149.5 -55.5q86 0 151 55.5t65 155.5v461h32q59 0 59 54q0 33 -21 67h32q19 -32 19 -68q0 -77 -83 -79v-436q0 -114 -76 -181t-178 -67zM311 770l73 133h38l-80 -133h-31z" glyph-name="uni1EE8" horiz-adv-x="670" unicode="Ứ"/><glyph d="M261 -5q-86 0 -142 59t-56 182v274h36v-271q0 -110 48.5 -160t121.5 -50q78 0 126.5 53.5t48.5 156.5v271h31q59 0 59 54q0 33 -21 67h32q19 -32 19 -68q0 -77 -84 -79v-484h-36v119q-23 -61 -71 -92.5t-112 -31.5zM255 580l73 133h38l-80 -133h-31z" glyph-name="uni1EE9" horiz-adv-x="579" unicode="ứ"/><glyph d="M325 -10q-102 0 -177.5 66.5t-75.5 181.5v462h39v-461q0 -100 64.5 -155.5t149.5 -55.5q86 0 151 55.5t65 155.5v461h32q59 0 59 54q0 33 -21 67h32q19 -32 19 -68q0 -77 -83 -79v-436q0 -114 -76 -181t-178 -67zM311 770l-81 133h38l73 -133h-30z" glyph-name="uni1EEA" horiz-adv-x="670" unicode="Ừ"/><glyph d="M261 -5q-86 0 -142 59t-56 182v274h36v-271q0 -110 48.5 -160t121.5 -50q78 0 126.5 53.5t48.5 156.5v271h31q59 0 59 54q0 33 -21 67h32q19 -32 19 -68q0 -77 -84 -79v-484h-36v119q-23 -61 -71 -92.5t-112 -31.5zM256 580l-81 133h38l73 -133h-30z" glyph-name="uni1EEB" horiz-adv-x="579" unicode="ừ"/><glyph d="M325 -10q-102 0 -177.5 66.5t-75.5 181.5v462h39v-461q0 -100 64.5 -155.5t149.5 -55.5q86 0 151 55.5t65 155.5v461h32q59 0 59 54q0 33 -21 67h32q19 -32 19 -68q0 -77 -83 -79v-436q0 -114 -76 -181t-178 -67zM313 769v56h9q27 0 43.5 14.5t16.5 37.5q0 21 -14.5 36 t-42.5 15q-49 0 -58 -39h-28q4 29 28 47t58 18q37 0 60.5 -21.5t23.5 -54.5q0 -30 -20 -50.5t-51 -23.5v-35h-25z" glyph-name="uni1EEC" horiz-adv-x="670" unicode="Ử"/><glyph d="M261 -5q-86 0 -142 59t-56 182v274h36v-271q0 -110 48.5 -160t121.5 -50q78 0 126.5 53.5t48.5 156.5v271h31q59 0 59 54q0 33 -21 67h32q19 -32 19 -68q0 -77 -84 -79v-484h-36v119q-23 -61 -71 -92.5t-112 -31.5zM257 579v56h9q27 0 43.5 14.5t16.5 37.5q0 21 -14.5 36 t-42.5 15q-49 0 -58 -39h-28q4 29 28 47t58 18q37 0 60.5 -21.5t23.5 -54.5q0 -30 -20 -50.5t-51 -23.5v-35h-25z" glyph-name="uni1EED" horiz-adv-x="579" unicode="ử"/><glyph d="M325 -10q-102 0 -177.5 66.5t-75.5 181.5v462h39v-461q0 -100 64.5 -155.5t149.5 -55.5q86 0 151 55.5t65 155.5v461h32q59 0 59 54q0 33 -21 67h32q19 -32 19 -68q0 -77 -83 -79v-436q0 -114 -76 -181t-178 -67zM215 795q4 100 61 100q22 0 38.5 -17.5t30.5 -35 t31 -17.5q33 0 37 70h25q-4 -100 -61 -100q-22 0 -38.5 17.5t-30.5 35t-31 17.5q-32 0 -36 -70h-26z" glyph-name="uni1EEE" horiz-adv-x="670" unicode="Ữ"/><glyph d="M261 -5q-86 0 -142 59t-56 182v274h36v-271q0 -110 48.5 -160t121.5 -50q78 0 126.5 53.5t48.5 156.5v271h31q59 0 59 54q0 33 -21 67h32q19 -32 19 -68q0 -77 -84 -79v-484h-36v119q-23 -61 -71 -92.5t-112 -31.5zM159 605q4 100 61 100q22 0 38.5 -17.5t30.5 -35 t31 -17.5q33 0 37 70h25q-4 -100 -61 -100q-22 0 -38.5 17.5t-30.5 35t-31 17.5q-32 0 -36 -70h-26z" glyph-name="uni1EEF" horiz-adv-x="579" unicode="ữ"/><glyph d="M325 -10q-102 0 -177.5 66.5t-75.5 181.5v462h39v-461q0 -100 64.5 -155.5t149.5 -55.5q86 0 151 55.5t65 155.5v461h32q59 0 59 54q0 33 -21 67h32q19 -32 19 -68q0 -77 -83 -79v-436q0 -114 -76 -181t-178 -67zM325 -168q-14 0 -23.5 9.5t-9.5 23.5q0 13 9.5 22.5 t23.5 9.5q13 0 22.5 -9.5t9.5 -23.5t-9.5 -23t-22.5 -9z" glyph-name="uni1EF0" horiz-adv-x="670" unicode="Ự"/><glyph d="M261 -5q-86 0 -142 59t-56 182v274h36v-271q0 -110 48.5 -160t121.5 -50q78 0 126.5 53.5t48.5 156.5v271h31q59 0 59 54q0 33 -21 67h32q19 -32 19 -68q0 -77 -84 -79v-484h-36v119q-23 -61 -71 -92.5t-112 -31.5zM273 -168q-14 0 -23.5 9.5t-9.5 23.5q0 13 9.5 22.5 t23.5 9.5q13 0 22.5 -9.5t9.5 -23.5t-9.5 -23t-22.5 -9z" glyph-name="uni1EF1" horiz-adv-x="579" unicode="ự"/><glyph d="M253 0v290l-244 410h42l221 -372l221 372h42l-244 -409v-291h-38zM258 770l-81 133h38l73 -133h-30z" glyph-name="Ygrave" horiz-adv-x="544" unicode="Ỳ"/><glyph d="M142 -250l100 240l-228 520h38l209 -475l197 475h40l-317 -760h-39zM241 580l-81 133h38l73 -133h-30z" glyph-name="ygrave" horiz-adv-x="511" unicode="ỳ"/><glyph d="M253 0v290l-244 410h42l221 -372l221 372h42l-244 -409v-291h-38zM274 -168q-14 0 -23.5 9.5t-9.5 23.5q0 13 9.5 22.5t23.5 9.5q13 0 22.5 -9.5t9.5 -23.5t-9 -23t-23 -9z" glyph-name="uni1EF4" horiz-adv-x="544" unicode="Ỵ"/><glyph d="M142 -250l100 240l-228 520h38l209 -475l197 475h40l-317 -760h-39zM334 -168q-14 0 -23.5 9.5t-9.5 23.5q0 13 9.5 22.5t23.5 9.5q13 0 22.5 -9.5t9.5 -23.5t-9 -23t-23 -9z" glyph-name="uni1EF5" horiz-adv-x="511" unicode="ỵ"/><glyph d="M253 0v290l-244 410h42l221 -372l221 372h42l-244 -409v-291h-38zM260 769v56h9q27 0 43.5 14.5t16.5 37.5q0 21 -14.5 36t-42.5 15q-49 0 -58 -39h-28q4 29 28 47t58 18q37 0 60.5 -21.5t23.5 -54.5q0 -30 -20 -50.5t-51 -23.5v-35h-25z" glyph-name="uni1EF6" horiz-adv-x="544" unicode="Ỷ"/><glyph d="M142 -250l100 240l-228 520h38l209 -475l197 475h40l-317 -760h-39zM243 579v56h9q27 0 43.5 14.5t16.5 37.5q0 21 -14.5 36t-42.5 15q-49 0 -58 -39h-28q4 29 28 47t58 18q37 0 60.5 -21.5t23.5 -54.5q0 -30 -20 -50.5t-51 -23.5v-35h-25z" glyph-name="uni1EF7" horiz-adv-x="511" unicode="ỷ"/><glyph d="M253 0v290l-244 410h42l221 -372l221 372h42l-244 -409v-291h-38zM162 795q4 100 61 100q22 0 38.5 -17.5t30.5 -35t31 -17.5q33 0 37 70h25q-4 -100 -61 -100q-22 0 -38.5 17.5t-30.5 35t-31 17.5q-32 0 -36 -70h-26z" glyph-name="uni1EF8" horiz-adv-x="544" unicode="Ỹ"/><glyph d="M142 -250l100 240l-228 520h38l209 -475l197 475h40l-317 -760h-39zM144 605q4 100 61 100q22 0 38.5 -17.5t30.5 -35t31 -17.5q33 0 37 70h25q-4 -100 -61 -100q-22 0 -38.5 17.5t-30.5 35t-31 17.5q-32 0 -36 -70h-26z" glyph-name="uni1EF9" horiz-adv-x="511" unicode="ỹ"/><glyph d="M47 253v35h410v-35h-410z" glyph-name="endash" horiz-adv-x="504" unicode="–"/><glyph d="M47 253v35h594v-35h-594z" glyph-name="emdash" horiz-adv-x="688" unicode="—"/><glyph d="M40 513l46 187h30l-39 -187h-37z" glyph-name="quoteleft" horiz-adv-x="146" unicode="‘"/><glyph d="M40 513l39 187h37l-46 -187h-30z" glyph-name="quoteright" horiz-adv-x="146" unicode="’"/><glyph d="M40 -142l39 187h37l-46 -187h-30z" glyph-name="quotesinglbase" horiz-adv-x="146" unicode="‚"/><glyph d="M163 513l46 187h29l-38 -187h-37zM40 513l46 187h30l-39 -187h-37z" glyph-name="quotedblleft" horiz-adv-x="268" unicode="“"/><glyph d="M163 513l39 187h36l-45 -187h-30zM40 513l39 187h37l-46 -187h-30z" glyph-name="quotedblright" horiz-adv-x="268" unicode="”"/><glyph d="M163 -142l39 187h36l-45 -187h-30zM40 -142l39 187h37l-46 -187h-30z" glyph-name="quotedblbase" horiz-adv-x="268" unicode="„"/><glyph d="M206 0v473h-156v33h156v194h34v-194h156v-33h-156v-473h-34z" glyph-name="dagger" horiz-adv-x="446" unicode="†"/><glyph d="M206 0v194h-156v33h156v246h-156v33h156v194h34v-194h156v-33h-156v-246h156v-33h-156v-194h-34z" glyph-name="daggerdbl" horiz-adv-x="446" unicode="‡"/><glyph d="M94 208q-20 0 -33.5 14t-13.5 34t13.5 33.5t33.5 13.5t34 -13.5t14 -33.5t-14 -34t-34 -14z" glyph-name="bullet" horiz-adv-x="189" unicode="•"/><glyph d="M454 -6q-13 0 -22 9t-9 22t9 21.5t22 8.5t22 -8.5t9 -21.5t-9 -22t-22 -9zM79 -6q-13 0 -22.5 9t-9.5 22t9 21.5t23 8.5q13 0 21.5 -8.5t8.5 -21.5t-8.5 -22t-21.5 -9zM266 -6q-13 0 -22 9t-9 22t9 21.5t22 8.5t22 -8.5t9 -21.5t-9 -22t-22 -9z" glyph-name="ellipsis" horiz-adv-x="532" unicode="…"/><glyph d="M163 0l419 700h36l-419 -700h-36zM572 -10q-72 0 -117.5 47t-45.5 120q0 72 45.5 119.5t117.5 47.5q71 0 116 -47.5t45 -119.5t-45 -119.5t-116 -47.5zM572 22q57 0 93 38.5t36 96.5t-36.5 97t-92.5 39q-57 0 -93.5 -39t-36.5 -97t36.5 -96.5t93.5 -38.5zM210 376 q-72 0 -117.5 47t-45.5 120q0 72 45.5 119.5t117.5 47.5q71 0 116.5 -47.5t45.5 -119.5t-45.5 -119.5t-116.5 -47.5zM210 407q56 0 92.5 39t36.5 97t-36 96.5t-93 38.5t-93.5 -38.5t-36.5 -96.5t36.5 -97t93.5 -39zM953 -10q-71 0 -116.5 47t-45.5 120t45.5 120t116.5 47 t116.5 -47t45.5 -120t-45.5 -120t-116.5 -47zM953 22q57 0 93.5 38.5t36.5 96.5t-36.5 97t-93.5 39t-93.5 -39t-36.5 -97t36.5 -96.5t93.5 -38.5z" glyph-name="perthousand" horiz-adv-x="1162" unicode="‰"/><glyph d="M239 91l-173 160l172 158l23 -21l-150 -137l150 -138z" glyph-name="guilsinglleft" horiz-adv-x="316" unicode="‹"/><glyph d="M78 91l-22 22l149 138l-149 137l22 21l173 -158z" glyph-name="guilsinglright" horiz-adv-x="316" unicode="›"/><glyph d="M249 142v368h32v-155q71 6 116.5 51t45.5 115q0 64 -47.5 109.5t-128.5 45.5q-73 0 -122 -41.5t-61 -100.5h-37q12 74 71.5 125t149.5 51q98 0 155.5 -55.5t57.5 -132.5q0 -83 -56 -135.5t-141 -57.5v-187h-35zM266 -6q-13 0 -21.5 9t-8.5 23q0 12 8.5 20.5t21.5 8.5 t22.5 -8.5t9.5 -20.5q0 -14 -9 -23t-23 -9z" glyph-name="uni203D" horiz-adv-x="528" unicode="‽"/><glyph d="M-144 0l468 700h33l-468 -700h-33z" glyph-name="fraction" horiz-adv-x="213" unicode="⁄"/><glyph d="M160 445q-62 0 -100 51t-38 129t38 129t100 51t100 -51t38 -129t-38 -129t-100 -51zM160 474q49 0 79 43t30 108t-30 108t-79 43t-79 -42.5t-30 -108.5t30 -108.5t79 -42.5z" glyph-name="uni2070" horiz-adv-x="320" unicode="⁰"/><glyph d="M190 450v87h-176v27l172 236h33v-236h51v-27h-51v-87h-29zM45 564h145v199z" glyph-name="uni2074" horiz-adv-x="280" unicode="⁴"/><glyph d="M139 445q-48 0 -82 28.5t-38 73.5h28q4 -33 30.5 -54t62.5 -21q38 0 64 25t26 63t-26 63t-64 25q-49 0 -80 -33l-25 13l25 172h169v-27h-145l-19 -128q35 28 81 28q47 0 80.5 -32.5t33.5 -81.5t-35 -81.5t-86 -32.5z" glyph-name="uni2075" horiz-adv-x="278" unicode="⁵"/><glyph d="M135 445q-49 0 -82.5 34t-33.5 84q0 32 17 64l97 173h34l-83 -140q26 19 56 19q46 0 79.5 -33.5t33.5 -82.5q0 -50 -34 -84t-84 -34zM135 472q37 0 62.5 26t25.5 65t-25.5 64.5t-62.5 25.5q-36 0 -61.5 -25.5t-25.5 -64.5t25.5 -65t61.5 -26z" glyph-name="uni2076" horiz-adv-x="271" unicode="⁶"/><glyph d="M68 450l134 323h-190v27h232l-145 -350h-31z" glyph-name="uni2077" horiz-adv-x="253" unicode="⁷"/><glyph d="M138 445q-52 0 -84 27.5t-32 70.5q0 32 19.5 56t51.5 34q-28 10 -44.5 31.5t-16.5 50.5q0 38 29.5 64t76.5 26q46 0 75 -26t29 -64q0 -28 -16.5 -50t-43.5 -32q32 -10 51 -34.5t19 -55.5q0 -43 -31.5 -70.5t-82.5 -27.5zM138 471q38 0 61.5 20t23.5 53t-25 54t-60 21 q-37 0 -62 -21t-25 -54t24 -53t63 -20zM138 644q32 0 54 19.5t22 49.5q0 29 -21 47.5t-55 18.5q-35 0 -56 -18.5t-21 -47.5q0 -30 22 -49.5t55 -19.5z" glyph-name="uni2078" horiz-adv-x="275" unicode="⁸"/><glyph d="M184 588q-24 -17 -52 -17q-47 0 -80 33t-33 84q0 50 33.5 83.5t82.5 33.5q50 0 84 -34t34 -83q0 -32 -19 -65l-96 -173h-33zM135 597q37 0 62.5 26t25.5 65q0 38 -25.5 64t-62.5 26q-36 0 -61.5 -26t-25.5 -65t25.5 -64.5t61.5 -25.5z" glyph-name="uni2079" horiz-adv-x="271" unicode="⁹"/><glyph d="M160 -105q-62 0 -100 51t-38 129t38 129t100 51t100 -51t38 -129t-38 -129t-100 -51zM160 -76q49 0 79 43t30 108t-30 108t-79 43t-79 -42.5t-30 -108.5t30 -108.5t79 -42.5z" glyph-name="uni2080" horiz-adv-x="320" unicode="₀"/><glyph d="M66 -100v323h-57v27h86v-350h-29z" glyph-name="uni2081" horiz-adv-x="138" unicode="₁"/><glyph d="M22 -100v25l104 93q45 40 67.5 70t22.5 64q0 35 -23.5 55.5t-58.5 20.5t-60 -21t-28 -57h-27q3 48 36 76.5t79 28.5t78.5 -28.5t32.5 -74.5q0 -39 -24.5 -73.5t-73.5 -78.5l-82 -73h177v-27h-220z" glyph-name="uni2082" horiz-adv-x="263" unicode="₂"/><glyph d="M137 -105q-48 0 -80.5 27t-37.5 71h28q5 -34 30 -53t60 -19q36 0 60 20.5t24 52.5t-25 53.5t-60 21.5h-19v26h18q31 0 52.5 20t21.5 49q0 28 -21 46.5t-55 18.5q-32 0 -54 -17t-27 -45h-28q5 39 34.5 63.5t75.5 24.5t74.5 -26t28.5 -64q0 -29 -16.5 -51t-42.5 -31 q32 -9 52 -33t20 -56q0 -43 -32 -71t-81 -28z" glyph-name="uni2083" horiz-adv-x="273" unicode="₃"/><glyph d="M190 -100v87h-176v27l172 236h33v-236h51v-27h-51v-87h-29zM45 14h145v199z" glyph-name="uni2084" horiz-adv-x="280" unicode="₄"/><glyph d="M139 -105q-48 0 -82 28.5t-38 73.5h28q4 -33 30.5 -54t62.5 -21q38 0 64 25t26 63t-26 63t-64 25q-49 0 -80 -33l-25 13l25 172h169v-27h-145l-19 -128q35 28 81 28q47 0 80.5 -32.5t33.5 -81.5t-35 -81.5t-86 -32.5z" glyph-name="uni2085" horiz-adv-x="278" unicode="₅"/><glyph d="M135 -105q-49 0 -82.5 34t-33.5 84q0 32 17 64l97 173h34l-83 -140q26 19 56 19q46 0 79.5 -33.5t33.5 -82.5q0 -50 -34 -84t-84 -34zM135 -78q37 0 62.5 26t25.5 65t-25.5 64.5t-62.5 25.5q-36 0 -61.5 -25.5t-25.5 -64.5t25.5 -65t61.5 -26z" glyph-name="uni2086" horiz-adv-x="271" unicode="₆"/><glyph d="M68 -100l134 323h-190v27h232l-145 -350h-31z" glyph-name="uni2087" horiz-adv-x="253" unicode="₇"/><glyph d="M138 -105q-52 0 -84 27.5t-32 70.5q0 32 19.5 56t51.5 34q-28 10 -44.5 31.5t-16.5 50.5q0 38 29.5 64t76.5 26q46 0 75 -26t29 -64q0 -28 -16.5 -50t-43.5 -32q32 -10 51 -34.5t19 -55.5q0 -43 -31.5 -70.5t-82.5 -27.5zM138 -79q38 0 61.5 20t23.5 53t-25 54t-60 21 q-37 0 -62 -21t-25 -54t24 -53t63 -20zM138 94q32 0 54 19.5t22 49.5q0 29 -21 47.5t-55 18.5q-35 0 -56 -18.5t-21 -47.5q0 -30 22 -49.5t55 -19.5z" glyph-name="uni2088" horiz-adv-x="275" unicode="₈"/><glyph d="M184 38q-24 -17 -52 -17q-47 0 -80 33t-33 84q0 50 33.5 83.5t82.5 33.5q50 0 84 -34t34 -83q0 -32 -19 -65l-96 -173h-33zM135 47q37 0 62.5 26t25.5 65q0 38 -25.5 64t-62.5 26q-36 0 -61.5 -26t-25.5 -65t25.5 -64.5t61.5 -25.5z" glyph-name="uni2089" horiz-adv-x="271" unicode="₉"/><glyph d="M261 -11l-94 292h-153v27h144l-42 133h-102v27h92l-74 232h41l191 -605l188 616h2l189 -616l189 605h41l-74 -232h93v-27h-102l-42 -133h144v-27h-154l-93 -292h-2l-190 615l-190 -615h-2z" glyph-name="uni20A9" horiz-adv-x="905" unicode="₩"/><glyph d="M225 113q-78 0 -130 53t-52 130t52 131t129 54q54 0 97 -29t64 -76v206h-169v27h169v91h32v-91h82v-27h-82v-462h-32v96q-20 -48 -63 -75.5t-97 -27.5zM43 0v27h374v-27h-374zM229 142q66 0 110.5 45t44.5 109q0 65 -44.5 110t-110.5 45t-110 -45t-44 -110 q0 -64 44.5 -109t109.5 -45z" glyph-name="dong" horiz-adv-x="545" unicode="₫"/><glyph d="M489 -10q-129 0 -223 78t-121 201h-102v30h97q-4 21 -4 51q0 28 4 51h-97v29h102q27 123 121 201.5t223 78.5q114 0 203 -62t122 -161h-40q-32 83 -109.5 134.5t-175.5 51.5q-112 0 -195.5 -68t-109.5 -175h303v-29h-309q-4 -34 -4 -51q0 -23 5 -51h308v-30h-302 q26 -107 109 -174.5t195 -67.5q97 0 174.5 51t109.5 133h41q-33 -98 -122 -159.5t-203 -61.5z" glyph-name="Euro" horiz-adv-x="848" unicode="€"/><glyph d="M46 390v26h371q72 45 72 113q0 63 -51 104t-132 41q-78 0 -129.5 -38.5t-71.5 -103.5h-37q18 83 82.5 130.5t155.5 47.5q94 0 157.5 -48t63.5 -128q0 -71 -62 -118h96v-26h-515zM294 -10q-94 0 -157.5 48t-63.5 127q0 71 62 118h-89v27h515v-27h-378q-72 -43 -72 -113 q0 -63 50.5 -103.5t132.5 -40.5q78 0 129.5 38t71.5 104h37q-18 -84 -82.5 -131t-155.5 -47z" glyph-name="uni20B4" horiz-adv-x="606" unicode="₴"/><glyph d="M412 0l-329 279v35h136q77 0 126.5 42.5t55.5 114.5h-318v35h318q-5 72 -55 115t-127 43h-136v36h456v-34h-203q96 -47 103 -160h100v-35h-100q-6 -89 -67.5 -140.5t-150.5 -51.5h-82l330 -279h-57z" glyph-name="uni20B9" horiz-adv-x="582" unicode="₹"/><glyph d="M114 0v179h-95v26h95v108h-95v29h95v358h181q95 0 157 -52t62 -142q0 -88 -61 -140.5t-155 -52.5h-145v-108h228v-26h-228v-179h-39zM293 342q82 0 132.5 43.5t50.5 117.5t-50.5 117.5t-132.5 43.5h-140v-322h140z" glyph-name="uni20BD" horiz-adv-x="555" unicode="₽"/><glyph d="M83 0v700h95v102h31v-102h60q14 0 40 -2v104h31v-109q143 -28 143 -169q0 -128 -122 -164q147 -32 147 -177q0 -156 -168 -179v-106h-31v103q-10 -1 -30 -1h-70v-102h-31v102h-95zM278 36q192 0 192 150q0 154 -192 154h-157v-304h157zM265 374q85 0 132.5 36t47.5 110 q0 145 -180 145h-144v-291h144z" glyph-name="uni20BF" horiz-adv-x="550" unicode="₿"/><glyph d="M599 -11l-479 625v-614h-37v711h2l479 -624v613h37v-711h-2zM705 244v31h324v-31h-324zM867 376q-72 0 -117 47.5t-45 119.5t45 119.5t117 47.5q71 0 116.5 -47.5t45.5 -119.5t-45.5 -119.5t-116.5 -47.5zM868 405q57 0 94.5 39t37.5 99q0 59 -37.5 98.5t-94.5 39.5 q-59 0 -96.5 -39.5t-37.5 -98.5q0 -60 37.5 -99t96.5 -39z" glyph-name="uni2116" horiz-adv-x="1063" unicode="№"/><glyph d="M400 0q-146 0 -248 102t-102 248t102.5 248t249.5 102q146 0 247 -101t101 -247q0 -147 -102 -249.5t-248 -102.5zM400 27q134 0 228.5 94.5t94.5 228.5t-94.5 228.5t-228.5 94.5t-228.5 -94.5t-94.5 -228.5t94.5 -228.5t228.5 -94.5zM308 175v350h123q48 0 78.5 -28 t30.5 -77q0 -48 -30.5 -76.5t-78.5 -28.5h-95v-140h-28zM429 341q37 0 60 21t23 58t-22.5 57.5t-60.5 20.5h-93v-157h93z" glyph-name="uni2117" horiz-adv-x="800" unicode="℗"/><glyph d="M521 344l-101 285l-68 -279h-26l86 356l109 -301l108 301l86 -356h-26l-68 279zM160 350v325h-113v25h252v-25h-113v-325h-26z" glyph-name="trademark" horiz-adv-x="762" unicode="™"/><glyph d="M66 350v323h-57v27h86v-350h-29zM-6 0l468 700h33l-468 -700h-33zM419 0l134 323h-190v27h232l-145 -350h-31z" glyph-name="uni2150" horiz-adv-x="604" unicode="⅐"/><glyph d="M66 350v323h-57v27h86v-350h-29zM-6 0l468 700h33l-468 -700h-33zM535 138q-24 -17 -52 -17q-47 0 -80 33t-33 84q0 50 33.5 83.5t82.5 33.5q50 0 84 -34t34 -83q0 -32 -19 -65l-96 -173h-33zM486 147q37 0 62.5 26t25.5 65q0 38 -25.5 64t-62.5 26q-36 0 -61.5 -26 t-25.5 -65t25.5 -64.5t61.5 -25.5z" glyph-name="uni2151" horiz-adv-x="622" unicode="⅑"/><glyph d="M66 350v323h-57v27h86v-350h-29zM-6 0l468 700h33l-468 -700h-33zM417 0v323h-57v27h86v-350h-29zM649 -5q-62 0 -100 51t-38 129t38 129t100 51t100 -51t38 -129t-38 -129t-100 -51zM649 24q49 0 79 43t30 108t-30 108t-79 43t-79 -42.5t-30 -108.5t30 -108.5t79 -42.5z " glyph-name="uni2152" horiz-adv-x="809" unicode="⅒"/><glyph d="M66 350v323h-57v27h86v-350h-29zM-6 0l468 700h33l-468 -700h-33zM488 -5q-48 0 -80.5 27t-37.5 71h28q5 -34 30 -53t60 -19q36 0 60 20.5t24 52.5t-25 53.5t-60 21.5h-19v26h18q31 0 52.5 20t21.5 49q0 28 -21 46.5t-55 18.5q-32 0 -54 -17t-27 -45h-28q5 39 34.5 63.5 t75.5 24.5t74.5 -26t28.5 -64q0 -29 -16.5 -51t-42.5 -31q32 -9 52 -33t20 -56q0 -43 -32 -71t-81 -28z" glyph-name="onethird" horiz-adv-x="624" unicode="⅓"/><glyph d="M22 350v25l104 93q45 40 67.5 70t22.5 64q0 35 -23.5 55.5t-58.5 20.5t-60 -21t-28 -57h-27q3 48 36 76.5t79 28.5t78.5 -28.5t32.5 -74.5q0 -39 -24.5 -73.5t-73.5 -78.5l-82 -73h177v-27h-220zM119 0l468 700h33l-468 -700h-33zM613 -5q-48 0 -80.5 27t-37.5 71h28 q5 -34 30 -53t60 -19q36 0 60 20.5t24 52.5t-25 53.5t-60 21.5h-19v26h18q31 0 52.5 20t21.5 49q0 28 -21 46.5t-55 18.5q-32 0 -54 -17t-27 -45h-28q5 39 34.5 63.5t75.5 24.5t74.5 -26t28.5 -64q0 -29 -16.5 -51t-42.5 -31q32 -9 52 -33t20 -56q0 -43 -32 -71t-81 -28z " glyph-name="twothirds" horiz-adv-x="749" unicode="⅔"/><glyph d="M66 350v323h-57v27h86v-350h-29zM-6 0l468 700h33l-468 -700h-33zM490 -5q-48 0 -82 28.5t-38 73.5h28q4 -33 30.5 -54t62.5 -21q38 0 64 25t26 63t-26 63t-64 25q-49 0 -80 -33l-25 13l25 172h169v-27h-145l-19 -128q35 28 81 28q47 0 80.5 -32.5t33.5 -81.5t-35 -81.5 t-86 -32.5z" glyph-name="uni2155" horiz-adv-x="629" unicode="⅕"/><glyph d="M22 350v25l104 93q45 40 67.5 70t22.5 64q0 35 -23.5 55.5t-58.5 20.5t-60 -21t-28 -57h-27q3 48 36 76.5t79 28.5t78.5 -28.5t32.5 -74.5q0 -39 -24.5 -73.5t-73.5 -78.5l-82 -73h177v-27h-220zM119 0l468 700h33l-468 -700h-33zM615 -5q-48 0 -82 28.5t-38 73.5h28 q4 -33 30.5 -54t62.5 -21q38 0 64 25t26 63t-26 63t-64 25q-49 0 -80 -33l-25 13l25 172h169v-27h-145l-19 -128q35 28 81 28q47 0 80.5 -32.5t33.5 -81.5t-35 -81.5t-86 -32.5z" glyph-name="uni2156" horiz-adv-x="754" unicode="⅖"/><glyph d="M137 345q-48 0 -80.5 27t-37.5 71h28q5 -34 30 -53t60 -19q36 0 60 20.5t24 52.5t-25 53.5t-60 21.5h-19v26h18q31 0 52.5 20t21.5 49q0 28 -21 46.5t-55 18.5q-32 0 -54 -17t-27 -45h-28q5 39 34.5 63.5t75.5 24.5t74.5 -26t28.5 -64q0 -29 -16.5 -51t-42.5 -31 q32 -9 52 -33t20 -56q0 -43 -32 -71t-81 -28zM129 0l468 700h33l-468 -700h-33zM625 -5q-48 0 -82 28.5t-38 73.5h28q4 -33 30.5 -54t62.5 -21q38 0 64 25t26 63t-26 63t-64 25q-49 0 -80 -33l-25 13l25 172h169v-27h-145l-19 -128q35 28 81 28q47 0 80.5 -32.5t33.5 -81.5 t-35 -81.5t-86 -32.5z" glyph-name="uni2157" horiz-adv-x="764" unicode="⅗"/><glyph d="M190 350v87h-176v27l172 236h33v-236h51v-27h-51v-87h-29zM45 464h145v199zM136 0l468 700h33l-468 -700h-33zM632 -5q-48 0 -82 28.5t-38 73.5h28q4 -33 30.5 -54t62.5 -21q38 0 64 25t26 63t-26 63t-64 25q-49 0 -80 -33l-25 13l25 172h169v-27h-145l-19 -128 q35 28 81 28q47 0 80.5 -32.5t33.5 -81.5t-35 -81.5t-86 -32.5z" glyph-name="uni2158" horiz-adv-x="771" unicode="⅘"/><glyph d="M66 350v323h-57v27h86v-350h-29zM-6 0l468 700h33l-468 -700h-33zM486 -5q-49 0 -82.5 34t-33.5 84q0 32 17 64l97 173h34l-83 -140q26 19 56 19q46 0 79.5 -33.5t33.5 -82.5q0 -50 -34 -84t-84 -34zM486 22q37 0 62.5 26t25.5 65t-25.5 64.5t-62.5 25.5 q-36 0 -61.5 -25.5t-25.5 -64.5t25.5 -65t61.5 -26z" glyph-name="uni2159" horiz-adv-x="622" unicode="⅙"/><glyph d="M139 345q-48 0 -82 28.5t-38 73.5h28q4 -33 30.5 -54t62.5 -21q38 0 64 25t26 63t-26 63t-64 25q-49 0 -80 -33l-25 13l25 172h169v-27h-145l-19 -128q35 28 81 28q47 0 80.5 -32.5t33.5 -81.5t-35 -81.5t-86 -32.5zM134 0l468 700h33l-468 -700h-33zM626 -5 q-49 0 -82.5 34t-33.5 84q0 32 17 64l97 173h34l-83 -140q26 19 56 19q46 0 79.5 -33.5t33.5 -82.5q0 -50 -34 -84t-84 -34zM626 22q37 0 62.5 26t25.5 65t-25.5 64.5t-62.5 25.5q-36 0 -61.5 -25.5t-25.5 -64.5t25.5 -65t61.5 -26z" glyph-name="uni215A" horiz-adv-x="762" unicode="⅚"/><glyph d="M66 350v323h-57v27h86v-350h-29zM-6 0l468 700h33l-468 -700h-33zM489 -5q-52 0 -84 27.5t-32 70.5q0 32 19.5 56t51.5 34q-28 10 -44.5 31.5t-16.5 50.5q0 38 29.5 64t76.5 26q46 0 75 -26t29 -64q0 -28 -16.5 -50t-43.5 -32q32 -10 51 -34.5t19 -55.5 q0 -43 -31.5 -70.5t-82.5 -27.5zM489 21q38 0 61.5 20t23.5 53t-25 54t-60 21q-37 0 -62 -21t-25 -54t24 -53t63 -20zM489 194q32 0 54 19.5t22 49.5q0 29 -21 47.5t-55 18.5q-35 0 -56 -18.5t-21 -47.5q0 -30 22 -49.5t55 -19.5z" glyph-name="oneeighth" horiz-adv-x="626" unicode="⅛"/><glyph d="M137 345q-48 0 -80.5 27t-37.5 71h28q5 -34 30 -53t60 -19q36 0 60 20.5t24 52.5t-25 53.5t-60 21.5h-19v26h18q31 0 52.5 20t21.5 49q0 28 -21 46.5t-55 18.5q-32 0 -54 -17t-27 -45h-28q5 39 34.5 63.5t75.5 24.5t74.5 -26t28.5 -64q0 -29 -16.5 -51t-42.5 -31 q32 -9 52 -33t20 -56q0 -43 -32 -71t-81 -28zM129 0l468 700h33l-468 -700h-33zM624 -5q-52 0 -84 27.5t-32 70.5q0 32 19.5 56t51.5 34q-28 10 -44.5 31.5t-16.5 50.5q0 38 29.5 64t76.5 26q46 0 75 -26t29 -64q0 -28 -16.5 -50t-43.5 -32q32 -10 51 -34.5t19 -55.5 q0 -43 -31.5 -70.5t-82.5 -27.5zM624 21q38 0 61.5 20t23.5 53t-25 54t-60 21q-37 0 -62 -21t-25 -54t24 -53t63 -20zM624 194q32 0 54 19.5t22 49.5q0 29 -21 47.5t-55 18.5q-35 0 -56 -18.5t-21 -47.5q0 -30 22 -49.5t55 -19.5z" glyph-name="threeeighths" horiz-adv-x="761" unicode="⅜"/><glyph d="M139 345q-48 0 -82 28.5t-38 73.5h28q4 -33 30.5 -54t62.5 -21q38 0 64 25t26 63t-26 63t-64 25q-49 0 -80 -33l-25 13l25 172h169v-27h-145l-19 -128q35 28 81 28q47 0 80.5 -32.5t33.5 -81.5t-35 -81.5t-86 -32.5zM134 0l468 700h33l-468 -700h-33zM629 -5 q-52 0 -84 27.5t-32 70.5q0 32 19.5 56t51.5 34q-28 10 -44.5 31.5t-16.5 50.5q0 38 29.5 64t76.5 26q46 0 75 -26t29 -64q0 -28 -16.5 -50t-43.5 -32q32 -10 51 -34.5t19 -55.5q0 -43 -31.5 -70.5t-82.5 -27.5zM629 21q38 0 61.5 20t23.5 53t-25 54t-60 21q-37 0 -62 -21 t-25 -54t24 -53t63 -20zM629 194q32 0 54 19.5t22 49.5q0 29 -21 47.5t-55 18.5q-35 0 -56 -18.5t-21 -47.5q0 -30 22 -49.5t55 -19.5z" glyph-name="fiveeighths" horiz-adv-x="766" unicode="⅝"/><glyph d="M68 350l134 323h-190v27h232l-145 -350h-31zM79 0l468 700h33l-468 -700h-33zM574 -5q-52 0 -84 27.5t-32 70.5q0 32 19.5 56t51.5 34q-28 10 -44.5 31.5t-16.5 50.5q0 38 29.5 64t76.5 26q46 0 75 -26t29 -64q0 -28 -16.5 -50t-43.5 -32q32 -10 51 -34.5t19 -55.5 q0 -43 -31.5 -70.5t-82.5 -27.5zM574 21q38 0 61.5 20t23.5 53t-25 54t-60 21q-37 0 -62 -21t-25 -54t24 -53t63 -20zM574 194q32 0 54 19.5t22 49.5q0 29 -21 47.5t-55 18.5q-35 0 -56 -18.5t-21 -47.5q0 -30 22 -49.5t55 -19.5z" glyph-name="seveneighths" horiz-adv-x="711" unicode="⅞"/><glyph d="M66 350v323h-57v27h86v-350h-29zM28 0l468 700h33l-468 -700h-33z" glyph-name="uni215F" horiz-adv-x="529" unicode="⅟"/><glyph d="M313 114l-237 236l237 236l20 -20l-201 -200h492v-31h-492l201 -200z" glyph-name="arrowleft" horiz-adv-x="700" unicode="←"/><glyph d="M334 76v492l-199 -201l-21 20l236 237l236 -237l-20 -20l-201 201v-492h-31z" glyph-name="arrowup" horiz-adv-x="700" unicode="↑"/><glyph d="M387 114l-20 21l201 200h-492v31h492l-201 200l20 20l237 -236z" glyph-name="arrowright" horiz-adv-x="700" unicode="→"/><glyph d="M350 76l-236 237l20 20l200 -201v492h31v-492l200 201l21 -20z" glyph-name="arrowdown" horiz-adv-x="700" unicode="↓"/><glyph d="M256 114l-237 236l237 236l20 -20l-201 -200h550l-201 200l20 20l237 -236l-237 -236l-20 21l201 200h-550l201 -200z" glyph-name="arrowboth" horiz-adv-x="700" unicode="↔"/><glyph d="M350 19l-236 237l21 20l199 -201v550l-199 -201l-21 20l236 237l236 -237l-20 -20l-201 201v-550l201 201l20 -20z" glyph-name="arrowupdn" horiz-adv-x="700" unicode="↕"/><glyph d="M528 152l-349 348v-285h-28v334h334v-28h-283l347 -348z" glyph-name="uni2196" horiz-adv-x="700" unicode="↖"/><glyph d="M172 152l-21 21l347 348h-283v28h334v-334h-28v285z" glyph-name="uni2197" horiz-adv-x="700" unicode="↗"/><glyph d="M215 152v28h283l-347 348l21 21l349 -348v285h28v-334h-334z" glyph-name="uni2198" horiz-adv-x="700" unicode="↘"/><glyph d="M151 152v334h28v-285l349 348l21 -21l-347 -348h283v-28h-334z" glyph-name="uni2199" horiz-adv-x="700" unicode="↙"/><glyph d="M246 -5q-87 0 -145.5 65t-58.5 160q0 108 69 185.5t165 77.5q64 0 112 -38.5t68 -100.5q-7 69 -31.5 127.5t-53.5 95.5t-72 70t-73.5 49t-71.5 34l13 30q52 -24 92 -47t85 -62.5t75 -84.5t49.5 -112t19.5 -147q0 -16 -2 -52q-7 -106 -77 -178t-163 -72zM249 29 q82 0 140.5 67t58.5 161q0 82 -48 137.5t-121 55.5q-82 0 -141 -67t-59 -163q0 -81 48 -136t122 -55z" glyph-name="partialdiff" horiz-adv-x="530" unicode="∂"/><glyph d="M215 48q-80 47 -126 129.5t-46 181.5q0 150 100.5 255t249.5 105q81 0 157 -37l42 78h37l-50 -95q76 -48 120 -129t44 -177q0 -150 -101 -255t-249 -105q-79 0 -150 33l-49 -92h-37zM532 649q-63 34 -139 34q-132 0 -223 -94.5t-91 -229.5q0 -88 41.5 -161.5 t111.5 -116.5zM394 35q131 0 221.5 94.5t90.5 229.5q0 86 -39 158t-106 115l-301 -566q62 -31 134 -31z" glyph-name="emptyset" horiz-adv-x="786" unicode="∅"/><glyph d="M34 0l227 700h50l236 -700h-513zM85 34h410l-209 625z" glyph-name="Delta" horiz-adv-x="581" unicode="∆"/><glyph d="M134 -170v836h-107v34h520v-34h-108v-836h-35v836h-235v-836h-35z" glyph-name="product" horiz-adv-x="574" unicode="∏"/><glyph d="M69 0v33l214 317l-214 317v33h411v-36h-363l212 -314l-212 -314h363v-36h-411z" glyph-name="summation" horiz-adv-x="549" unicode="∑"/><glyph d="M81 316v29h379v-29h-379z" glyph-name="minus" horiz-adv-x="542" unicode="−"/><glyph d="M203 0l-174 470l31 9l162 -432l186 753h226v-33h-198l-190 -767h-43z" glyph-name="radical" horiz-adv-x="577" unicode="√"/><glyph d="M185 194q-58 0 -97.5 38t-39.5 98q0 61 39.5 98.5t97.5 37.5q36 0 69.5 -17.5t53.5 -37t48 -52.5q41 51 80.5 79t89.5 28q58 0 97.5 -37.5t39.5 -98.5q0 -60 -39.5 -98t-96.5 -38q-50 0 -89.5 29t-81.5 82q-42 -53 -81 -82t-90 -29zM188 226q43 0 76 27t74 79 q-39 49 -72.5 75.5t-76.5 26.5t-75 -27.5t-32 -75.5t32 -76.5t74 -28.5zM522 226q43 0 75 28.5t32 76.5t-32 75.5t-75 27.5q-42 0 -75.5 -25.5t-74.5 -75.5q27 -35 44.5 -54t46.5 -36t59 -17z" glyph-name="infinity" horiz-adv-x="711" unicode="∞"/><glyph d="M84 -130q-36 0 -61 13l13 26q21 -7 45 -7q55 0 89.5 41.5t34.5 109.5v596q0 95 47 138.5t110 43.5q36 0 61 -13l-13 -25q-26 7 -45 7q-56 0 -90 -41.5t-34 -110.5v-595q0 -94 -47.5 -138.5t-109.5 -44.5z" glyph-name="integral" horiz-adv-x="446" unicode="∫"/><glyph d="M47 379q17 33 47.5 53.5t57.5 20.5q42 0 96 -29.5t82 -29.5q52 0 85 53l20 -19q-16 -29 -45 -46.5t-56 -17.5q-36 0 -92 29t-87 29q-46 0 -86 -61zM47 224q17 33 47.5 53.5t57.5 20.5q42 0 96 -29.5t82 -29.5q52 0 85 53l20 -19q-16 -29 -45 -46.5t-56 -17.5 q-36 0 -92 29t-87 29q-46 0 -86 -61z" glyph-name="approxequal" horiz-adv-x="482" unicode="≈"/><glyph d="M183 120l40 115h-142v29h152l43 124h-195v28h206l42 124h29l-43 -124h145v-28h-156l-42 -124h198v-29h-208l-40 -115h-29z" glyph-name="notequal" horiz-adv-x="542" unicode="≠"/><glyph d="M394 226l-319 133v28l319 130v-31l-277 -113l277 -115v-32zM75 74v28h319v-28h-319z" glyph-name="lessequal" horiz-adv-x="469" unicode="≤"/><glyph d="M75 226v32l277 115l-277 113v31l319 -130v-28zM75 74v28h319v-28h-319z" glyph-name="greaterequal" horiz-adv-x="469" unicode="≥"/><glyph d="M486 -75q-176 0 -301 125t-125 301q0 175 125 299.5t301 124.5t300 -124.5t124 -299.5q0 -176 -124.5 -301t-299.5 -125zM494 175v323h-57v27h86v-350h-29zM486 -46q163 0 279 116.5t116 280.5q0 163 -115.5 279t-279.5 116t-280.5 -116t-116.5 -279q0 -164 116.5 -280.5 t280.5 -116.5z" glyph-name="uni2460" horiz-adv-x="970" unicode="①"/><glyph d="M486 -75q-176 0 -301 125t-125 301q0 175 125 299.5t301 124.5t300 -124.5t124 -299.5q0 -176 -124.5 -301t-299.5 -125zM486 -46q163 0 279 116.5t116 280.5q0 163 -115.5 279t-279.5 116t-280.5 -116t-116.5 -279q0 -164 116.5 -280.5t280.5 -116.5zM373 175v25l105 93 q45 41 67 70.5t22 63.5q0 35 -23 55.5t-58 20.5q-36 0 -61 -21t-27 -57h-28q3 48 36 76.5t79 28.5t78.5 -28.5t32.5 -74.5q0 -40 -24.5 -74.5t-73.5 -77.5l-82 -73h177v-27h-220z" glyph-name="uni2461" horiz-adv-x="970" unicode="②"/><glyph d="M486 -75q-176 0 -301 125t-125 301q0 175 125 299.5t301 124.5t300 -124.5t124 -299.5q0 -176 -124.5 -301t-299.5 -125zM486 -46q163 0 279 116.5t116 280.5q0 163 -115.5 279t-279.5 116t-280.5 -116t-116.5 -279q0 -164 116.5 -280.5t280.5 -116.5zM488 170 q-48 0 -81 27t-38 71h29q5 -34 30 -53t59 -19q37 0 60.5 20.5t23.5 52.5t-25 53.5t-60 21.5h-18v26h18q31 0 52.5 20t21.5 49q0 28 -21 46.5t-55 18.5q-32 0 -54 -17.5t-27 -44.5h-28q5 39 34.5 63.5t75.5 24.5t74.5 -26t28.5 -64q0 -29 -16.5 -51t-42.5 -31q32 -9 52 -33.5 t20 -56.5q0 -42 -32 -70t-81 -28z" glyph-name="uni2462" horiz-adv-x="970" unicode="③"/><glyph d="M486 -75q-176 0 -301 125t-125 301q0 175 125 299.5t301 124.5t300 -124.5t124 -299.5q0 -176 -124.5 -301t-299.5 -125zM518 175v87h-176v27l172 236h34v-236h51v-27h-51v-87h-30zM486 -46q163 0 279 116.5t116 280.5q0 163 -115.5 279t-279.5 116t-280.5 -116 t-116.5 -279q0 -164 116.5 -280.5t280.5 -116.5zM373 289h145v199z" glyph-name="uni2463" horiz-adv-x="970" unicode="④"/><glyph d="M486 -75q-176 0 -301 125t-125 301q0 175 125 299.5t301 124.5t300 -124.5t124 -299.5q0 -176 -124.5 -301t-299.5 -125zM486 -46q163 0 279 116.5t116 280.5q0 163 -115.5 279t-279.5 116t-280.5 -116t-116.5 -279q0 -164 116.5 -280.5t280.5 -116.5zM486 170 q-48 0 -82.5 28.5t-38.5 73.5h28q4 -33 30.5 -54t62.5 -21q38 0 64.5 25t26.5 63t-26 63t-64 25q-48 0 -81 -33l-24 13l25 172h168v-27h-145l-18 -128q35 28 81 28q47 0 80 -32t33 -81q0 -50 -34.5 -82.5t-85.5 -32.5z" glyph-name="uni2464" horiz-adv-x="970" unicode="⑤"/><glyph d="M486 -75q-176 0 -301 125t-125 301q0 175 125 299.5t301 124.5t300 -124.5t124 -299.5q0 -176 -124.5 -301t-299.5 -125zM485 197q37 0 62.5 26t25.5 65t-25.5 64.5t-62.5 25.5q-36 0 -61.5 -25.5t-25.5 -64.5t25.5 -65t61.5 -26zM486 -46q163 0 279 116.5t116 280.5 q0 163 -115.5 279t-279.5 116t-280.5 -116t-116.5 -279q0 -164 116.5 -280.5t280.5 -116.5zM485 170q-49 0 -83 34t-34 84q0 33 18 64l97 173h33l-82 -140q25 19 56 19q46 0 79.5 -33.5t33.5 -82.5q0 -50 -34 -84t-84 -34z" glyph-name="uni2465" horiz-adv-x="970" unicode="⑥"/><glyph d="M486 -75q-176 0 -301 125t-125 301q0 175 125 299.5t301 124.5t300 -124.5t124 -299.5q0 -176 -124.5 -301t-299.5 -125zM486 -46q163 0 279 116.5t116 280.5q0 163 -115.5 279t-279.5 116t-280.5 -116t-116.5 -279q0 -164 116.5 -280.5t280.5 -116.5zM436 175l134 323 h-190v27h231l-144 -350h-31z" glyph-name="uni2466" horiz-adv-x="970" unicode="⑦"/><glyph d="M486 -75q-176 0 -301 125t-125 301q0 175 125 299.5t301 124.5t300 -124.5t124 -299.5q0 -176 -124.5 -301t-299.5 -125zM486 196q38 0 62 20t24 53t-25 54t-61 21q-37 0 -62 -21t-25 -54t24 -53t63 -20zM486 -46q163 0 279 116.5t116 280.5q0 163 -115.5 279t-279.5 116 t-280.5 -116t-116.5 -279q0 -164 116.5 -280.5t280.5 -116.5zM486 170q-52 0 -84 27.5t-32 69.5q0 33 19.5 57t52.5 34q-62 22 -62 82q0 38 29 64t76 26t76.5 -26t29.5 -64q0 -28 -16.5 -50t-44.5 -32q32 -10 51.5 -34.5t19.5 -55.5q0 -43 -31.5 -70.5t-83.5 -27.5zM486 369 q32 0 54 19.5t22 49.5q0 29 -21 47.5t-55 18.5t-55.5 -18.5t-21.5 -47.5q0 -30 22 -49.5t55 -19.5z" glyph-name="uni2467" horiz-adv-x="970" unicode="⑧"/><glyph d="M486 -75q-176 0 -301 125t-125 301q0 175 125 299.5t301 124.5t300 -124.5t124 -299.5q0 -176 -124.5 -301t-299.5 -125zM486 -46q163 0 279 116.5t116 280.5q0 163 -115.5 279t-279.5 116t-280.5 -116t-116.5 -279q0 -164 116.5 -280.5t280.5 -116.5zM534 313 q-24 -17 -53 -17q-47 0 -80 33t-33 84q0 50 34 83.5t83 33.5q50 0 84 -34t34 -83q0 -32 -19 -65l-96 -173h-33zM485 322q37 0 62.5 26t25.5 64q0 39 -25.5 65t-62.5 26q-36 0 -61.5 -26t-25.5 -65t25.5 -64.5t61.5 -25.5z" glyph-name="uni2468" horiz-adv-x="970" unicode="⑨"/><glyph d="M486 -75q-176 0 -301 125t-125 301q0 175 125 299.5t301 124.5t300 -124.5t124 -299.5q0 -176 -124.5 -301t-299.5 -125zM486 -46q163 0 279 116.5t116 280.5q0 163 -115.5 279t-279.5 116t-280.5 -116t-116.5 -279q0 -164 116.5 -280.5t280.5 -116.5zM485 170 q-62 0 -100 51t-38 129t38 129t100 51t100 -51t38 -129t-38 -129t-100 -51zM485 199q49 0 79 43t30 108t-30 108t-79 43t-79 -42.5t-30 -108.5t30 -108.5t79 -42.5z" glyph-name="uni24EA" horiz-adv-x="970" unicode="⓪"/><glyph d="M486 -75q-176 0 -301 125t-125 301q0 175 125 299.5t301 124.5q177 0 300.5 -124t123.5 -300t-124.5 -301t-299.5 -125zM485 170q62 0 100 51t38 129t-38 129t-100 51t-100 -51t-38 -129t38 -129t100 -51zM485 199q-49 0 -79 42.5t-30 108.5t30 108.5t79 42.5t79 -43 t30 -108t-30 -108t-79 -43z" glyph-name="uni24FF" horiz-adv-x="970" unicode="⓿"/><glyph d="M222 0l-195 350l195 350h23l198 -350l-198 -350h-23zM234 45l174 305l-174 306l-173 -306z" glyph-name="lozenge" horiz-adv-x="469" unicode="◊"/></font>
</defs>
</svg>
